<svg xmlns="http://www.w3.org/2000/svg" width="32.202" height="32.202" viewBox="0 0 32.202 32.202">
  <g id="Group_37" data-name="Group 37" transform="translate(0)">
    <path id="Path_81" data-name="Path 81" d="M18.914,7.43a2.777,2.777,0,0,0-1.593-1.592,4.639,4.639,0,0,0-1.556-.288c-.884-.04-1.149-.05-3.388-.05s-2.5.01-3.388.05a4.639,4.639,0,0,0-1.558.288A2.777,2.777,0,0,0,5.839,7.432,4.639,4.639,0,0,0,5.55,8.989c-.04.884-.05,1.149-.05,3.388s.01,2.5.05,3.388a4.639,4.639,0,0,0,.288,1.558,2.777,2.777,0,0,0,1.593,1.592,4.639,4.639,0,0,0,1.556.288c.884.04,1.149.05,3.388.05s2.5-.01,3.388-.05a4.639,4.639,0,0,0,1.558-.288,2.777,2.777,0,0,0,1.592-1.593,4.639,4.639,0,0,0,.288-1.556c.04-.884.05-1.149.05-3.388s-.01-2.5-.05-3.388a4.639,4.639,0,0,0-.288-1.558Zm-6.538,9.253a4.307,4.307,0,1,1,4.307-4.307A4.307,4.307,0,0,1,12.377,16.683Zm4.476-7.777A1.006,1.006,0,1,1,17.859,7.9a1.006,1.006,0,0,1-1.006,1.006Z" transform="translate(3.724 3.724)" fill="#fff"/>
    <ellipse id="Ellipse_6" data-name="Ellipse 6" cx="2.796" cy="2.796" rx="2.796" ry="2.796" transform="translate(13.305 13.305)" fill="#fff"/>
    <path id="Path_82" data-name="Path 82" d="M16.1,0A16.1,16.1,0,1,0,32.2,16.1,16.1,16.1,0,0,0,16.1,0Zm8.336,19.559a6.155,6.155,0,0,1-.391,2.034,4.287,4.287,0,0,1-2.452,2.452,6.156,6.156,0,0,1-2.034.391c-.9.04-1.181.05-3.458.05s-2.563-.01-3.458-.05a6.156,6.156,0,0,1-2.034-.391,4.287,4.287,0,0,1-2.452-2.452,6.155,6.155,0,0,1-.391-2.034c-.04-.9-.05-1.181-.05-3.458s.01-2.563.05-3.458a6.155,6.155,0,0,1,.391-2.034,4.287,4.287,0,0,1,2.452-2.452,6.155,6.155,0,0,1,2.034-.391c.9-.04,1.181-.05,3.458-.05s2.563.01,3.458.05a6.155,6.155,0,0,1,2.034.391,4.287,4.287,0,0,1,2.452,2.452,6.155,6.155,0,0,1,.391,2.034c.04.9.05,1.181.05,3.458S24.477,18.664,24.437,19.559Z" transform="translate(0)" fill="#fff"/>
  </g>
</svg>
