<svg xmlns="http://www.w3.org/2000/svg" width="47.552" height="33.413" viewBox="0 0 47.552 33.413">
  <path id="Path_19" data-name="Path 19" d="M48.532,16.034a18.36,18.36,0,0,0-1.966-8.921,6.307,6.307,0,0,0-3.715-2.16,169.273,169.273,0,0,0-18.08-.67,169.452,169.452,0,0,0-18.015.648A6.2,6.2,0,0,0,3.6,6.53c-1.944,1.793-2.16,4.86-2.376,7.452a104.3,104.3,0,0,0,0,14,20.628,20.628,0,0,0,.648,4.32,6.782,6.782,0,0,0,1.534,2.938,6.178,6.178,0,0,0,3.219,1.685,97.594,97.594,0,0,0,14.041.713c7.56.108,14.192,0,22.033-.6A6.221,6.221,0,0,0,46,35.345a5.379,5.379,0,0,0,1.318-2.16,22.853,22.853,0,0,0,1.123-7.344C48.532,24.631,48.532,17.33,48.532,16.034Zm-28.643,11.1V13.766l12.788,6.718C29.091,22.471,24.361,24.718,19.889,27.137Z" transform="translate(-0.991 -4.259)" fill="#fff"/>
</svg>
