<svg xmlns="http://www.w3.org/2000/svg" width="33.433" height="33.433" viewBox="0 0 33.433 33.433">
  <path id="Path_80" data-name="Path 80" d="M24.706,7.989A16.716,16.716,0,1,0,41.423,24.7,16.735,16.735,0,0,0,24.706,7.989Zm4.724,10.552a.3.3,0,0,1-.3.3h-1.9c-1.254,0-1.483.488-1.483,1.45v1.995h3.259a.3.3,0,0,1,.224.1.3.3,0,0,1,.072.235l-.464,3.591a.3.3,0,0,1-.3.26h-2.8v8.917a.3.3,0,0,1-.3.3H21.743a.3.3,0,0,1-.3-.3V26.474h-2.8a.3.3,0,0,1-.3-.3V22.584a.3.3,0,0,1,.3-.3h2.8v-2.35c0-3.113,1.884-5.046,4.917-5.046a25.938,25.938,0,0,1,2.81.144.3.3,0,0,1,.259.3Z" transform="translate(-7.99 -7.989)" fill="#fff"/>
</svg>
