<svg xmlns="http://www.w3.org/2000/svg" width="32.549" height="32.549" viewBox="0 0 32.549 32.549">
  <path id="Path_20" data-name="Path 20" d="M16.279,0H16.27A16.264,16.264,0,0,0,3.1,25.813L1.07,31.859l6.255-2A16.271,16.271,0,1,0,16.279,0Zm9.47,22.981a4.592,4.592,0,0,1-3.194,2.3c-.85.181-1.961.325-5.7-1.225-4.783-1.981-7.863-6.841-8.1-7.157a9.3,9.3,0,0,1-1.933-4.909A5.2,5.2,0,0,1,8.483,8.027a2.365,2.365,0,0,1,1.664-.584c.2,0,.382.01.545.018.478.02.718.049,1.033.8.393.946,1.349,3.281,1.463,3.521a.969.969,0,0,1,.069.881,2.812,2.812,0,0,1-.527.747c-.24.277-.468.488-.708.785-.22.258-.468.535-.191,1.013a14.445,14.445,0,0,0,2.641,3.281,11.965,11.965,0,0,0,3.816,2.354,1.029,1.029,0,0,0,1.147-.181,19.69,19.69,0,0,0,1.271-1.684.908.908,0,0,1,1.168-.354c.439.153,2.765,1.3,3.243,1.54s.793.354.909.555A4.053,4.053,0,0,1,25.748,22.981Z" fill="#fff"/>
</svg>
