<svg xmlns="http://www.w3.org/2000/svg" width="171.541" height="203.383" viewBox="0 0 171.541 203.383">
  <g id="Group_930" data-name="Group 930" transform="translate(-546.866 -3475.456)">
    <rect id="Rectangle_533" data-name="Rectangle 533" width="6.244" height="6.244" transform="translate(546.866 3475.456)" fill="#afabb2"/>
    <path id="Path_2070" data-name="Path 2070" d="M196.967,436.277H184.931v-6.244h12.036Zm-24.075,0H160.856v-6.244h12.036Zm-24.075,0H136.781v-6.244h12.036Zm-24.075,0H112.706v-6.244h12.036Zm-24.075,0-12.1,0,.122-6.244,11.98,0Zm-24.862-2.22a40.663,40.663,0,0,1-11.443-6.135l3.793-4.964a34.3,34.3,0,0,0,9.682,5.2ZM55.433,418.519A40.482,40.482,0,0,1,49.9,406.773l6-1.72a34.194,34.194,0,0,0,4.68,9.935Zm-.868-24.5H48.321V381.98h6.244Zm0-24.075H48.321V357.9h6.244Zm0-24.075H48.321V333.83h6.244Zm0-24.075H48.321V309.755h6.244Zm0-24.072H48.321V285.683h6.244Zm0-24.075H48.321V261.605h6.244Z" transform="translate(498.545 3232.168)" fill="#afabb2"/>
    <path id="Path_2071" data-name="Path 2071" d="M123.168,325.736,99.762,312.224v27.025Z" transform="translate(595.238 3339.589)" fill="#afabb2"/>
  </g>
</svg>
