<svg id="Group_725" data-name="Group 725" xmlns="http://www.w3.org/2000/svg" xmlns:xlink="http://www.w3.org/1999/xlink" width="528.542" height="357.755" viewBox="0 0 528.542 357.755">
  <defs>
    <clipPath id="clip-path">
      <rect id="Rectangle_383" data-name="Rectangle 383" width="528.542" height="357.755" fill="none"/>
    </clipPath>
    <clipPath id="clip-path-3">
      <rect id="Rectangle_364" data-name="Rectangle 364" width="200.409" height="236.857" fill="none"/>
    </clipPath>
    <clipPath id="clip-path-4">
      <rect id="Rectangle_372" data-name="Rectangle 372" width="193.058" height="36.034" fill="none"/>
    </clipPath>
    <clipPath id="clip-path-5">
      <rect id="Rectangle_373" data-name="Rectangle 373" width="96.372" height="40.385" fill="none"/>
    </clipPath>
    <clipPath id="clip-path-6">
      <rect id="Rectangle_374" data-name="Rectangle 374" width="165.08" height="175.032" fill="none"/>
    </clipPath>
    <clipPath id="clip-path-7">
      <rect id="Rectangle_375" data-name="Rectangle 375" width="10.503" height="12.711" fill="none"/>
    </clipPath>
    <clipPath id="clip-path-8">
      <rect id="Rectangle_380" data-name="Rectangle 380" width="76.816" height="96.532" fill="none"/>
    </clipPath>
    <clipPath id="clip-path-9">
      <rect id="Rectangle_381" data-name="Rectangle 381" width="12.489" height="7.355" fill="none"/>
    </clipPath>
  </defs>
  <g id="Group_724" data-name="Group 724" clip-path="url(#clip-path)">
    <g id="Group_723" data-name="Group 723">
      <g id="Group_722" data-name="Group 722" clip-path="url(#clip-path)">
        <path id="Path_1936" data-name="Path 1936" d="M377.013,198.373A174.557,174.557,0,1,1,202.456,23.816,174.557,174.557,0,0,1,377.013,198.373" transform="translate(-24.303 -20.747)" fill="#ecf3fe"/>
        <path id="Path_1937" data-name="Path 1937" d="M136.016,496.137l-33.245-75.473a6.525,6.525,0,0,0-6.525-3.868l-4.3-9.757a59.058,59.058,0,1,0-18.9,8.324l4.3,9.757a6.525,6.525,0,0,0-1.551,7.425l33.245,75.473a6.527,6.527,0,0,0,8.6,3.342l15.028-6.62a6.527,6.527,0,0,0,3.342-8.6M19.163,375.555A43.593,43.593,0,1,1,76.63,397.876a43.642,43.642,0,0,1-57.467-22.321" transform="translate(0 -260.401)" fill="#fff"/>
        <path id="Path_1938" data-name="Path 1938" d="M1826.893,514.326a145.619,145.619,0,1,1-145.619-145.619,145.619,145.619,0,0,1,145.619,145.619" transform="translate(-1337.749 -321.19)" fill="#ecf3fe"/>
        <path id="Path_1939" data-name="Path 1939" d="M2566.989,843.96l7.427-10.6-12-16.885-12.452,3.531c-5.519-3.461-8.306-5.209-13.827-8.669l-2.242-12.748-20.427-3.452-6.308,11.3-15.907,3.646-10.6-7.427-16.883,12,3.531,12.452-8.67,13.825-12.747,2.245c-1.724,10.2-1.729,10.227-3.452,20.427l11.3,6.307,3.646,15.907-7.427,10.6,12,16.885,12.452-3.531,13.825,8.67,2.245,12.747,20.425,3.452,6.309-11.3,15.907-3.646,10.6,7.426,16.885-12-3.533-12.452c3.463-5.519,5.211-8.307,8.672-13.826l12.747-2.245,3.451-20.427-11.3-6.308Zm-48.83,47.024a26.767,26.767,0,1,1,20.112-32.071,26.767,26.767,0,0,1-20.112,32.071" transform="translate(-2127.661 -692.666)" fill="#fff"/>
        <path id="Path_1940" data-name="Path 1940" d="M1257.82,216.787l21,5.88q5.645,1.581,8.1,3.762a12.85,12.85,0,0,1,3.579,5.271,10.859,10.859,0,0,1,.093,6.785q-2.1,7.488-10.92,7.721a12,12,0,0,1,5.857,6.165,11.618,11.618,0,0,1,.429,7.495,12.171,12.171,0,0,1-6.276,7.665q-4.861,2.611-13.477.2l-21-5.88Zm8.3,10.905-2.764,9.871,7.989,2.237q4.391,1.23,6.015-.184a6.313,6.313,0,0,0,2.068-3,4.923,4.923,0,0,0-.114-3.218,4.17,4.17,0,0,0-1.629-2.13,20.666,20.666,0,0,0-4.336-1.552Zm-5.011,17.893-3.042,10.861,8.1,2.269q4.15,1.162,6.271.19a5.6,5.6,0,0,0,2.257-7.805q-1.2-2.046-5.024-3.116Z" transform="translate(-1084.726 -188.849)" fill="#c4d7f2"/>
        <path id="Path_1941" data-name="Path 1941" d="M1844.527,319.493l-10.863,3.8q-2.91-9.473-10.119-7.45-8.27,2.321-4.146,17.009,2.381,8.483,5.478,10.872a7.672,7.672,0,0,0,7.132,1.256q6.547-1.838,5.613-10.762l10.408-2.245q1.28,8.365-2.572,13.986a20.969,20.969,0,0,1-27.419,5.578q-7.327-4.6-10.385-15.494-2.863-10.2.725-18.221t12.962-10.653q16.239-4.558,23.187,12.328" transform="translate(-1573.587 -266.736)" fill="#c4d7f2"/>
        <path id="Path_1942" data-name="Path 1942" d="M901.062,0l23.605,44.122-11.811,2.246-4.727-9.109-15.168,2.884-1.1,10.217-9.636,1.832,6.117-49.774ZM893.951,30.98l9.94-1.89-8.057-15.526Z" transform="translate(-768.526 0.001)" fill="#c4d7f2"/>
        <path id="Path_1943" data-name="Path 1943" d="M535.776,2614.259c0,6.153-113.692,11.141-253.939,11.141S27.9,2620.411,27.9,2614.259s113.692-11.141,253.939-11.141,253.939,4.988,253.939,11.141" transform="translate(-24.303 -2267.644)" fill="#d7e4f9"/>
        <path id="Path_1944" data-name="Path 1944" d="M2843.526,1534.16l45.858,146.5H2852.5l-9.026-30.158H2796.11l-9.183,30.158h-30.09l46.957-146.5Zm-39.184,89.295h31.04L2820,1572.046Z" transform="translate(-2401.553 -1336.447)" fill="#c4d7f2"/>
        <path id="Path_1945" data-name="Path 1945" d="M2950.9,1019.527a1.9,1.9,0,0,1-.168-3.784c2.4-.217,4.89-.53,7.394-.931a1.9,1.9,0,1,1,.6,3.744c-2.589.414-5.163.737-7.65.963-.058.005-.115.008-.174.008m14.971-2.368a1.9,1.9,0,0,1-.408-3.747c2.383-.527,4.826-1.137,7.261-1.811a1.9,1.9,0,1,1,1.012,3.654c-2.5.692-5.006,1.318-7.454,1.859a1.9,1.9,0,0,1-.411.045m14.615-4.037a1.9,1.9,0,0,1-.593-3.7c2.335-.769,4.714-1.611,7.069-2.5a1.9,1.9,0,0,1,1.343,3.546c-2.407.912-4.839,1.773-7.227,2.559a1.9,1.9,0,0,1-.593.1m14.184-5.364a1.9,1.9,0,0,1-.745-3.64c2.273-.969,4.578-2.006,6.848-3.081a1.9,1.9,0,0,1,1.622,3.427c-2.315,1.1-4.665,2.152-6.982,3.141a1.89,1.89,0,0,1-.743.153m13.709-6.481a1.9,1.9,0,0,1-.875-3.578c2.2-1.145,4.427-2.351,6.606-3.583a1.9,1.9,0,1,1,1.866,3.3c-2.218,1.254-4.481,2.481-6.725,3.647a1.89,1.89,0,0,1-.872.214m13.2-7.463a1.9,1.9,0,0,1-.991-3.513c2.121-1.3,4.256-2.656,6.344-4.035a1.9,1.9,0,0,1,2.089,3.165c-2.124,1.4-4.295,2.782-6.453,4.1a1.886,1.886,0,0,1-.988.279m12.656-8.352a1.9,1.9,0,0,1-1.1-3.442c2.04-1.447,4.077-2.946,6.056-4.455a1.9,1.9,0,0,1,2.3,3.015c-2.013,1.536-4.086,3.061-6.161,4.533a1.888,1.888,0,0,1-1.1.35m12.057-9.2a1.9,1.9,0,0,1-1.2-3.362c1.941-1.592,3.866-3.231,5.722-4.87a1.9,1.9,0,0,1,2.51,2.841c-1.891,1.67-3.852,3.339-5.828,4.96a1.887,1.887,0,0,1-1.2.43m11.362-10.044a1.9,1.9,0,0,1-1.309-3.268c1.82-1.736,3.612-3.516,5.327-5.289a1.9,1.9,0,0,1,2.725,2.635c-1.75,1.81-3.579,3.626-5.436,5.4a1.89,1.89,0,0,1-1.308.524m10.535-10.905a1.9,1.9,0,0,1-1.418-3.154c1.676-1.889,3.306-3.813,4.844-5.72a1.9,1.9,0,0,1,2.95,2.381c-1.575,1.952-3.244,3.922-4.958,5.854a1.891,1.891,0,0,1-1.419.638m9.513-11.805a1.9,1.9,0,0,1-1.532-3.01c1.486-2.045,2.906-4.121,4.221-6.168a1.9,1.9,0,1,1,3.19,2.049c-1.354,2.108-2.816,4.244-4.344,6.348a1.893,1.893,0,0,1-1.536.782m8.175-12.765a1.9,1.9,0,0,1-1.657-2.815c1.23-2.22,2.36-4.452,3.36-6.635a1.9,1.9,0,1,1,3.447,1.579c-1.04,2.27-2.214,4.589-3.49,6.892a1.9,1.9,0,0,1-1.66.978m6.276-13.788a1.9,1.9,0,0,1-1.788-2.525,65.544,65.544,0,0,0,2.061-7.069,1.9,1.9,0,0,1,3.7.846,69.337,69.337,0,0,1-2.18,7.48,1.9,1.9,0,0,1-1.789,1.268m3.3-14.757c-.052,0-.1,0-.157-.006a1.9,1.9,0,0,1-1.735-2.044c.1-1.166.144-2.325.144-3.446a37.387,37.387,0,0,0-.188-3.775,1.9,1.9,0,0,1,3.772-.386,41.084,41.084,0,0,1,.208,4.161c0,1.224-.053,2.487-.157,3.756a1.9,1.9,0,0,1-1.887,1.741m-1.644-14.964a1.9,1.9,0,0,1-1.794-1.282,27.488,27.488,0,0,0-3.127-6.343,1.891,1.891,0,0,1-.238-1.6h-.009a1.892,1.892,0,0,1-1.459-.683A28.487,28.487,0,0,0,3082,872.5a1.9,1.9,0,1,1,2.225-3.069,32.293,32.293,0,0,1,5.877,5.474,1.894,1.894,0,0,1,.358,1.761,1.943,1.943,0,0,1,1.587.844,31.291,31.291,0,0,1,3.56,7.218,1.9,1.9,0,0,1-1.793,2.511m-17.275-18.125a1.889,1.889,0,0,1-.766-.162,43.9,43.9,0,0,0-6.867-2.351,1.9,1.9,0,1,1,.939-3.673,47.681,47.681,0,0,1,7.462,2.557,1.9,1.9,0,0,1-.768,3.63m-37.3-3.345a1.9,1.9,0,0,1-.261-3.773c2.6-.365,5.187-.635,7.675-.8a1.9,1.9,0,0,1,.256,3.783c-2.4.162-4.89.423-7.406.776a1.9,1.9,0,0,1-.265.019m22.686-.487a1.875,1.875,0,0,1-.23-.014,71.769,71.769,0,0,0-7.367-.492,1.9,1.9,0,0,1,.064-3.791,75.532,75.532,0,0,1,7.758.52,1.9,1.9,0,0,1-.226,3.778" transform="translate(-2568.961 -750.024)" fill="#f4b545"/>
        <path id="Path_1946" data-name="Path 1946" d="M1162.388,1161.859H882.221V972.78a8.7,8.7,0,0,1,8.7-8.7h262.77a8.7,8.7,0,0,1,8.7,8.7Z" transform="translate(-768.526 -839.836)" fill="#3b82f4"/>
        <rect id="Rectangle_363" data-name="Rectangle 363" width="250.951" height="168.563" transform="translate(128.303 138.853)" fill="#3b82f4"/>
        <path id="Path_1947" data-name="Path 1947" d="M1235.6,1236.686H984.646a1.616,1.616,0,0,1-1.616-1.616V1066.507a1.616,1.616,0,0,1,1.616-1.616H1235.6a1.616,1.616,0,0,1,1.616,1.616V1235.07a1.616,1.616,0,0,1-1.616,1.616m-249.335-3.232h247.72V1068.123H986.262Z" transform="translate(-856.343 -927.655)" fill="#fff"/>
        <path id="Path_1948" data-name="Path 1948" d="M1000.985,2498.759v4.394a16.638,16.638,0,0,1-16.638,16.641H681.41A16.639,16.639,0,0,1,665.1,2506.44a16.473,16.473,0,0,1-.327-3.287v-4.394Z" transform="translate(-579.1 -2176.735)" fill="#fff"/>
        <path id="Path_1949" data-name="Path 1949" d="M1002.87,2558.359a16.64,16.64,0,0,1-16.311,13.354H683.622a16.64,16.64,0,0,1-16.311-13.354Z" transform="translate(-581.312 -2228.654)" fill="#1f3a6f"/>
        <g id="Group_703" data-name="Group 703" transform="translate(166.043 77.052)" opacity="0.2" style="mix-blend-mode: multiply;isolation: isolate">
          <g id="Group_702" data-name="Group 702">
            <g id="Group_701" data-name="Group 701" clip-path="url(#clip-path-3)">
              <path id="Path_1950" data-name="Path 1950" d="M1484.111,616.062l-167.254-18.138a5.292,5.292,0,0,0-5.831,4.69l-22.571,208.136a5.291,5.291,0,0,0,4.69,5.83L1460.4,834.717a5.291,5.291,0,0,0,5.83-4.69L1488.8,621.892a5.292,5.292,0,0,0-4.69-5.831" transform="translate(-1288.423 -597.892)" fill="#003889"/>
            </g>
          </g>
        </g>
        <path id="Path_1951" data-name="Path 1951" d="M1427.932,535.614l-14.619,208.845a5.292,5.292,0,0,1-5.647,4.908L1239.841,737.62a5.292,5.292,0,0,1-4.909-5.648l14.619-208.845a5.292,5.292,0,0,1,5.647-4.909l167.825,11.747a5.291,5.291,0,0,1,4.908,5.648" transform="translate(-1075.771 -451.423)" fill="#fff"/>
        <path id="Path_1952" data-name="Path 1952" d="M1454.568,897.876a4.5,4.5,0,0,0,3.229-4.082,4.694,4.694,0,0,0-.167-1.637,4.644,4.644,0,0,0-.713-1.453,4.782,4.782,0,0,0-1.154-1.132,5.094,5.094,0,0,0-1.79-.793,14.612,14.612,0,0,0-2.41-.344l-6.322-.443a2.517,2.517,0,0,0-1.87.437,2.561,2.561,0,0,0-.7,1.82l-1.027,14.666a2.613,2.613,0,0,0,.422,1.883,2.477,2.477,0,0,0,1.8.709l5.963.417a20.9,20.9,0,0,0,2.712.035,8.084,8.084,0,0,0,2.086-.381,5.048,5.048,0,0,0,2.4-1.779,5.386,5.386,0,0,0,1.042-2.888q.248-3.541-3.513-5.034m-7.976-6.805,3.209.224a8.054,8.054,0,0,1,3.172.708,1.948,1.948,0,0,1,.915,2.038,2.4,2.4,0,0,1-.42,1.227,2.187,2.187,0,0,1-1.308.98,7.271,7.271,0,0,1-2.3.12l-3.62-.253Zm3.3,13.873-4.247-.3.4-5.695,4.112.288a5.83,5.83,0,0,1,3.054.882,2.357,2.357,0,0,1,.891,2.215q-.2,2.89-4.209,2.608" transform="translate(-1255.85 -773.542)" fill="#3b82f4"/>
        <path id="Path_1953" data-name="Path 1953" d="M1606.835,913.707a2.123,2.123,0,0,0-1.439-.569l-8.012-.561.994-14.2a2.567,2.567,0,0,0-.427-1.843,1.887,1.887,0,0,0-1.4-.693,1.818,1.818,0,0,0-1.458.5,2.6,2.6,0,0,0-.665,1.758l-1.052,15.027a2.076,2.076,0,0,0,2.252,2.594l9.542.668a2.169,2.169,0,0,0,1.509-.343,1.485,1.485,0,0,0,.589-1.13,1.527,1.527,0,0,0-.431-1.208" transform="translate(-1388.019 -780.384)" fill="#3b82f4"/>
        <path id="Path_1954" data-name="Path 1954" d="M1726.4,912.832a8,8,0,0,0-3.051-3.731,10.421,10.421,0,0,0-5.125-1.6,10.757,10.757,0,0,0-4.042.42,8.086,8.086,0,0,0-3.123,1.808,8.839,8.839,0,0,0-2.092,3.063,12.607,12.607,0,0,0-.936,4.082,13.134,13.134,0,0,0,.332,4.129,8.958,8.958,0,0,0,1.6,3.363,8.166,8.166,0,0,0,2.877,2.293,11.868,11.868,0,0,0,8.185.593,8.044,8.044,0,0,0,3.153-1.864,8.942,8.942,0,0,0,2.061-3.08,13.07,13.07,0,0,0,.9-4.069,11.952,11.952,0,0,0-.743-5.409m-4.284,8.949a5.284,5.284,0,0,1-2.187,2.2,5.373,5.373,0,0,1-2.842.563,5.309,5.309,0,0,1-2.146-.593,4.981,4.981,0,0,1-1.665-1.446,6.215,6.215,0,0,1-1.027-2.312,10.1,10.1,0,0,1-.209-3.037,9.845,9.845,0,0,1,.628-2.946,6.219,6.219,0,0,1,1.295-2.1,4.817,4.817,0,0,1,1.822-1.176,5.345,5.345,0,0,1,2.22-.293,5.455,5.455,0,0,1,2.893,1.011,5.177,5.177,0,0,1,1.809,2.517,10.414,10.414,0,0,1-.591,7.608" transform="translate(-1487.884 -790.521)" fill="#3b82f4"/>
        <path id="Path_1955" data-name="Path 1955" d="M1894.606,930.587a1.588,1.588,0,0,0-.881-.718,5.788,5.788,0,0,0-1.386-.244l-4.485-.314a1.858,1.858,0,0,0-1.315.335,1.4,1.4,0,0,0-.548,1.045,1.208,1.208,0,0,0,.486,1.171,3.361,3.361,0,0,0,1.647.449l3.063.215-.221,3.168a12.942,12.942,0,0,1-2.517.855,9,9,0,0,1-2.6.178,5.485,5.485,0,0,1-4.272-2.156,7.96,7.96,0,0,1-1.207-5.4,9.805,9.805,0,0,1,.608-2.86,6.193,6.193,0,0,1,1.325-2.118,5.051,5.051,0,0,1,1.941-1.244,6.072,6.072,0,0,1,2.481-.3,5.221,5.221,0,0,1,2.161.552,3.987,3.987,0,0,1,1.3,1.081,15.884,15.884,0,0,1,1.115,1.818,1.9,1.9,0,0,0,.619.606,1.817,1.817,0,0,0,.8.256,1.866,1.866,0,0,0,1.363-.432,1.7,1.7,0,0,0,.64-1.235,3.466,3.466,0,0,0-.367-1.616,5.968,5.968,0,0,0-1.307-1.79,7.656,7.656,0,0,0-2.37-1.5,10.6,10.6,0,0,0-3.449-.771,12.324,12.324,0,0,0-4.336.4,8.8,8.8,0,0,0-3.35,1.792,8.591,8.591,0,0,0-2.221,3.069,12.276,12.276,0,0,0-.971,4.117,11.964,11.964,0,0,0,.406,4.243,8.9,8.9,0,0,0,1.782,3.335,8.632,8.632,0,0,0,3.013,2.229,11.6,11.6,0,0,0,4.052.981,13.715,13.715,0,0,0,3.6-.19,15.831,15.831,0,0,0,3.5-1.158,5.12,5.12,0,0,0,1.054-.623,1.919,1.919,0,0,0,.6-.766,4,4,0,0,0,.229-1.182l.261-3.739a2.682,2.682,0,0,0-.247-1.543" transform="translate(-1634.512 -801.076)" fill="#3b82f4"/>
        <rect id="Rectangle_365" data-name="Rectangle 365" width="47.329" height="83.079" transform="translate(181.636 190.873) rotate(-85.996)" fill="#e4ecf9"/>
        <path id="Path_1956" data-name="Path 1956" d="M1541.2,1242.186l14.271-17.4,10.294,11.907,14.854-19.033,11.96,28.124Z" transform="translate(-1342.579 -1060.734)" fill="#fff"/>
        <rect id="Rectangle_366" data-name="Rectangle 366" width="15.338" height="20.743" transform="matrix(0.07, -0.998, 0.998, 0.07, 271.846, 165.118)" fill="#e4ecf9"/>
        <path id="Path_1957" data-name="Path 1957" d="M2340.7,1198.291l-29.824-2.088a2.24,2.24,0,0,1-2.078-2.391h0a2.24,2.24,0,0,1,2.391-2.078l29.824,2.088a2.24,2.24,0,1,1-.312,4.469" transform="translate(-2011.252 -1038.147)" fill="#e4ecf9"/>
        <path id="Path_1958" data-name="Path 1958" d="M2336.851,1253.32l-29.824-2.088a2.24,2.24,0,0,1,.313-4.469l29.824,2.088a2.24,2.24,0,1,1-.313,4.469" transform="translate(-2007.896 -1086.083)" fill="#e4ecf9"/>
        <rect id="Rectangle_367" data-name="Rectangle 367" width="15.338" height="20.743" transform="matrix(0.07, -0.998, 0.998, 0.07, 270.231, 188.197)" fill="#e4ecf9"/>
        <path id="Path_1959" data-name="Path 1959" d="M2328.167,1377.369l-29.824-2.088a2.24,2.24,0,1,1,.313-4.469l29.824,2.088a2.24,2.24,0,0,1-.313,4.469" transform="translate(-2000.332 -1194.146)" fill="#e4ecf9"/>
        <path id="Path_1960" data-name="Path 1960" d="M2324.316,1432.4l-29.824-2.088a2.24,2.24,0,1,1,.313-4.469l29.824,2.087a2.24,2.24,0,1,1-.313,4.469" transform="translate(-1996.976 -1242.083)" fill="#e4ecf9"/>
        <rect id="Rectangle_368" data-name="Rectangle 368" width="15.338" height="20.743" transform="matrix(0.07, -0.998, 0.998, 0.07, 268.615, 211.275)" fill="#e4ecf9"/>
        <path id="Path_1961" data-name="Path 1961" d="M2315.633,1556.446l-29.824-2.088a2.24,2.24,0,1,1,.313-4.469l29.824,2.088a2.24,2.24,0,1,1-.313,4.469" transform="translate(-1989.413 -1350.145)" fill="#e4ecf9"/>
        <path id="Path_1962" data-name="Path 1962" d="M2311.781,1611.475l-29.825-2.088a2.24,2.24,0,0,1,.313-4.469l29.824,2.088a2.24,2.24,0,1,1-.312,4.469" transform="translate(-1986.057 -1398.082)" fill="#e4ecf9"/>
        <rect id="Rectangle_369" data-name="Rectangle 369" width="15.338" height="20.743" transform="translate(267 234.353) rotate(-85.996)" fill="#e4ecf9"/>
        <path id="Path_1963" data-name="Path 1963" d="M2303.1,1735.523l-29.824-2.088a2.24,2.24,0,0,1,.313-4.469l29.824,2.088a2.24,2.24,0,0,1-.313,4.469" transform="translate(-1978.493 -1506.143)" fill="#e4ecf9"/>
        <path id="Path_1964" data-name="Path 1964" d="M2299.246,1790.552l-29.824-2.088a2.24,2.24,0,0,1,.313-4.469l29.824,2.088a2.24,2.24,0,1,1-.313,4.469" transform="translate(-1975.138 -1554.08)" fill="#e4ecf9"/>
        <rect id="Rectangle_370" data-name="Rectangle 370" width="15.338" height="20.743" transform="translate(265.385 257.432) rotate(-85.996)" fill="#e4ecf9"/>
        <path id="Path_1965" data-name="Path 1965" d="M2290.563,1914.6l-29.824-2.087a2.24,2.24,0,1,1,.313-4.469l29.824,2.087a2.24,2.24,0,1,1-.313,4.469" transform="translate(-1967.573 -1662.143)" fill="#e4ecf9"/>
        <path id="Path_1966" data-name="Path 1966" d="M2286.71,1969.63l-29.824-2.088a2.24,2.24,0,1,1,.313-4.469l29.824,2.088a2.24,2.24,0,1,1-.313,4.469" transform="translate(-1964.218 -1710.08)" fill="#e4ecf9"/>
        <rect id="Rectangle_371" data-name="Rectangle 371" width="15.338" height="20.743" transform="translate(263.769 280.51) rotate(-85.996)" fill="#e4ecf9"/>
        <path id="Path_1967" data-name="Path 1967" d="M2278.028,2093.678l-29.824-2.087a2.24,2.24,0,0,1,.313-4.469l29.824,2.088a2.24,2.24,0,0,1-.313,4.469" transform="translate(-1956.654 -1818.141)" fill="#e4ecf9"/>
        <path id="Path_1968" data-name="Path 1968" d="M2274.176,2148.707l-29.824-2.088a2.24,2.24,0,0,1-2.078-2.391h0a2.24,2.24,0,0,1,2.391-2.078l29.824,2.087a2.24,2.24,0,1,1-.312,4.469" transform="translate(-1953.298 -1866.079)" fill="#e4ecf9"/>
        <path id="Path_1969" data-name="Path 1969" d="M1453.411,1556.422l-47.709-3.34a2.435,2.435,0,1,1,.34-4.857l47.709,3.339a2.435,2.435,0,0,1-.34,4.858" transform="translate(-1222.571 -1348.694)" fill="#3b82f4"/>
        <path id="Path_1970" data-name="Path 1970" d="M1477.9,1641.751l-78.019-5.461a2.435,2.435,0,0,1,.34-4.858l78.019,5.461a2.435,2.435,0,1,1-.34,4.857" transform="translate(-1217.498 -1421.178)" fill="#e4ecf9"/>
        <path id="Path_1971" data-name="Path 1971" d="M1471.442,1733.95l-78.019-5.461a2.435,2.435,0,0,1,.34-4.857l78.019,5.461a2.435,2.435,0,0,1-.34,4.857" transform="translate(-1211.875 -1501.495)" fill="#e4ecf9"/>
        <path id="Path_1972" data-name="Path 1972" d="M1464.988,1826.15l-78.018-5.461a2.435,2.435,0,1,1,.34-4.857l78.019,5.461a2.435,2.435,0,0,1-.34,4.857" transform="translate(-1206.253 -1581.813)" fill="#e4ecf9"/>
        <path id="Path_1973" data-name="Path 1973" d="M1458.535,1918.349l-78.019-5.461a2.435,2.435,0,0,1-2.259-2.6h0a2.435,2.435,0,0,1,2.6-2.259l78.019,5.461a2.435,2.435,0,1,1-.34,4.857" transform="translate(-1200.631 -1662.13)" fill="#e4ecf9"/>
        <path id="Path_1974" data-name="Path 1974" d="M1452.08,2010.549l-78.019-5.461a2.435,2.435,0,0,1,.34-4.857l78.019,5.461a2.435,2.435,0,1,1-.34,4.857" transform="translate(-1195.008 -1742.448)" fill="#e4ecf9"/>
        <path id="Path_1975" data-name="Path 1975" d="M1445.627,2102.748l-78.019-5.461a2.435,2.435,0,0,1,.34-4.858l78.018,5.461a2.435,2.435,0,0,1-.34,4.858" transform="translate(-1189.387 -1822.765)" fill="#e4ecf9"/>
        <g id="Group_706" data-name="Group 706" transform="translate(140.97 75.575)" opacity="0.16" style="mix-blend-mode: multiply;isolation: isolate">
          <g id="Group_705" data-name="Group 705">
            <g id="Group_704" data-name="Group 704" clip-path="url(#clip-path-4)">
              <path id="Path_1976" data-name="Path 1976" d="M1286.9,602.494l-.888-11.248a5.222,5.222,0,0,0-5.617-4.795l-181.726,14.342a5.222,5.222,0,0,0-4.795,5.617l.888,11.248a5.222,5.222,0,0,0,5.616,4.795l181.727-14.342a5.222,5.222,0,0,0,4.795-5.617" transform="translate(-1093.86 -586.434)" fill="#003889"/>
            </g>
          </g>
        </g>
        <path id="Path_1977" data-name="Path 1977" d="M1244.468,551.046l-181.184,20.063a5.222,5.222,0,0,1-5.765-4.615l-1.242-11.214a5.222,5.222,0,0,1,4.615-5.765l181.184-20.063a5.222,5.222,0,0,1,5.765,4.615l1.242,11.214a5.222,5.222,0,0,1-4.616,5.765" transform="translate(-920.123 -461.191)" fill="#f4b545"/>
        <path id="Path_1978" data-name="Path 1978" d="M1118.584,740.217h0a4.158,4.158,0,1,1,3.675-4.59,4.17,4.17,0,0,1-3.675,4.59" transform="translate(-970.407 -637.601)" fill="#fff"/>
        <path id="Path_1979" data-name="Path 1979" d="M1213.316,729.727h0a4.157,4.157,0,1,1,3.675-4.59,4.17,4.17,0,0,1-3.675,4.59" transform="translate(-1052.931 -628.463)" fill="#1f3a6f"/>
        <path id="Path_1980" data-name="Path 1980" d="M1310.322,718.985h0A4.158,4.158,0,1,1,1314,714.4a4.17,4.17,0,0,1-3.675,4.59" transform="translate(-1137.435 -619.106)" fill="#fff"/>
        <path id="Path_1981" data-name="Path 1981" d="M1002.483,2209.159a20.089,20.089,0,0,0-39.3-5.954,15.29,15.29,0,0,0-16.661-.06,20.051,20.051,0,1,0,.7,8.131l7.5.027,7.7.028a20.326,20.326,0,0,0,7.648,13.616,20.319,20.319,0,0,0,2.143,1.46,20.082,20.082,0,0,0,30.264-17.248m-20.037-15.528a15.477,15.477,0,0,1,15.234,13.193l-14.087-.051-16.47-.06c0-.01,0-.021,0-.031v-.015a15.483,15.483,0,0,1,15.318-13.036m-27.6,11.647a10.634,10.634,0,0,1,5.168,1.41l-10.345-.038a10.63,10.63,0,0,1,5.177-1.373m-27.515-11.846a15.483,15.483,0,0,1,15.223,13.147v.015c0,.01,0,.022,0,.032L912,2206.514a15.477,15.477,0,0,1,15.329-13.083m12.368,24.62a15.506,15.506,0,0,1-2.638,2.788,15.446,15.446,0,0,1-25.077-9.688l4.8.017a7.145,7.145,0,0,0-.967,3.667,2.318,2.318,0,0,0,4.637.017c.011-3.156,4.868-3.613,5.384-3.653l16.707.06a15.12,15.12,0,0,1-2.847,6.792m42.635,6.491a15.326,15.326,0,0,1-9.817-3.575,15.541,15.541,0,0,1-2.618-2.807,15.124,15.124,0,0,1-2.8-6.812l16.385.061c.517.043,5.369.535,5.358,3.691a2.318,2.318,0,0,0,4.637.017,7.143,7.143,0,0,0-.94-3.675l5.122.019a15.465,15.465,0,0,1-15.329,13.082" transform="translate(-790.27 -1906.716)" fill="#1f3a6f"/>
        <g id="Group_709" data-name="Group 709" transform="translate(124.356 282.078)" opacity="0.2" style="mix-blend-mode: multiply;isolation: isolate">
          <g id="Group_708" data-name="Group 708">
            <g id="Group_707" data-name="Group 707" clip-path="url(#clip-path-5)">
              <path id="Path_1982" data-name="Path 1982" d="M1060.741,2209.159c2.663-11.066-4.168-20.125-15.24-20.165-9.05-.033-18.179,5.983-22.647,14.211-4.319-3.31-10.744-3.333-16.647-.06-.5-8.246-6.709-14.318-15.774-14.351-11.073-.04-22.248,8.953-24.911,20.02s4.168,20.125,15.24,20.165a23.581,23.581,0,0,0,10.758-2.7,27.506,27.506,0,0,0,2.493-1.43,28.47,28.47,0,0,0,2.65-1.955,27.133,27.133,0,0,0,8.315-11.62l7.5.027,7.7.028a16.211,16.211,0,0,0,2.716,11.645,14.187,14.187,0,0,0,1.705,1.971,14.444,14.444,0,0,0,1.8,1.46,16.583,16.583,0,0,0,9.441,2.772c11.072.04,22.244-8.938,24.911-20.02m-16.356-15.528c7.736.028,12.773,5.767,12.107,13.193l-14.074-.051-16.456-.06.012-.031,0-.015c2.924-7.4,10.7-13.064,18.408-13.036m-30.361,11.647a8.869,8.869,0,0,1,4.833,1.41l-10.336-.038a12.564,12.564,0,0,1,5.5-1.373m-24.707-11.846c7.706.028,12.746,5.739,12.107,13.147l0,.015c0,.01,0,.022,0,.032l-30.53-.111c2.906-7.418,10.694-13.111,18.43-13.083m6.533,24.62a22.073,22.073,0,0,1-3.3,2.788,18.912,18.912,0,0,1-10.673,3.5c-7.737-.028-12.777-5.755-12.107-13.193l4.8.017a9.007,9.007,0,0,0-1.836,3.667,1.774,1.774,0,0,0,1.758,2.327,3.117,3.117,0,0,0,2.874-2.31c.759-3.156,5.724-3.613,6.25-3.653l16.693.06a20.2,20.2,0,0,1-4.457,6.792m41.1,6.491a12.207,12.207,0,0,1-8.97-3.575,11.01,11.01,0,0,1-1.952-2.807,12.553,12.553,0,0,1-1.183-6.812l16.371.061c.506.043,5.242.535,4.483,3.691a1.775,1.775,0,0,0,1.758,2.327,3.118,3.118,0,0,0,2.874-2.31,6.491,6.491,0,0,0-.069-3.675l5.117.019c-2.908,7.428-10.693,13.11-18.43,13.082" transform="translate(-964.945 -2188.794)" fill="#003889"/>
            </g>
          </g>
        </g>
        <path id="Path_1983" data-name="Path 1983" d="M195.794,2166.259h40.493l.721-1.574,26.422-41.548c-.519.46-29.511,26.084-37.506,32.733a12.094,12.094,0,0,1-2.021,1.551c0-.268-5.057-11.62-11.025-24.927-8.484-18.917-18.811-41.776-19.062-42.332.231.949,15.232,62.522,14.8,71.625,0,0-15.255-13.886-22.479-15.024-6.708-1.055,7.595,11.1,9.659,19.5" transform="translate(-160.6 -1820.795)" fill="#4cd8bd"/>
        <g id="Group_712" data-name="Group 712" transform="translate(20.109 171.564)" opacity="0.2" style="mix-blend-mode: multiply;isolation: isolate">
          <g id="Group_711" data-name="Group 711">
            <g id="Group_710" data-name="Group 710" clip-path="url(#clip-path-6)">
              <path id="Path_1984" data-name="Path 1984" d="M317.923,1337.326l-11.876-.312,3.445,8.739-3.445-8.738-57.429,28.331a42.681,42.681,0,0,1-11.04-4.1,3.464,3.464,0,0,0-1.855-1.245l.072-1.8c3.516-2.991,4.986-12.208,5.407-15.5,2.785-1.25,4.912-3.54,3.207-7.734-3.7-9.1-22.35.678-22.546,6.779-.173,5.393.444,9.282,2.086,9.229a11.894,11.894,0,0,0,1.476,3.556l.357,4.619a2.223,2.223,0,0,0-.759.273c-2.75.653-16.05,4.3-18.068,14.182-.854,4.18-1.84,9.077-2.56,13.557l-48.363,23.859,2.584,6.553.861,2.184,1.722,4.369,44.614-22.009c-.266,1.606-.576,3.491-.9,5.494-.37,2.28-.76,4.71-1.122,7.045-.97,6.222-1.758,11.77-1.531,12.031a5.509,5.509,0,0,0,2.117.524L203.9,1431l-3.323,26.27L189.7,1489.814l.591.182-1.46,3.78a1.589,1.589,0,0,1-.145-.112c-1.265-1.2-4.251,5.267-4.655,6.122s.8,2.283.992,2.333,12.637,3.653,16.118,4.1,3.852-1.154,3.97-2.438-4.453-2.419-5.091-2.828c-.5-.319-2.592-4.491-3.488-6.311a.787.787,0,0,0-1.04-.328c-.074.031-.159.057-.244.084l1.216-2.5.519.16,14.937-32.4s4.322-14.3,7.542-25.357l1.933,13.558,1.078,7.564-4.294,37.366.929.015-.295,4.477c-.049-.02-.1-.037-.147-.06-1.56-.822-2.983,5.962-3.18,6.861s1.357,1.953,1.563,1.953,13.564.411,17.165,0,3.583-2,3.389-3.238-5.055-1.208-5.794-1.439c-.577-.18-3.692-3.6-5.034-5.092a.848.848,0,0,0-1.123-.06,3.516,3.516,0,0,1-.368.218l.566-3.586a4.508,4.508,0,0,0,.731-.048c.407-.145,6.969-37.877,6.969-37.877l3.537-30.076.264-2.235a15.751,15.751,0,0,0,3.144-2.959s-1.424-18.916.252-30.541c.042-.3.089-.593.136-.883,1.071-.413,1.689-.654,1.689-.654l-.174-.623a16.711,16.711,0,0,0,8.7-5.495,6.293,6.293,0,0,0,1.409-2.364l2.385-1.176a26.269,26.269,0,0,0,10.152-2.406l24.526-11.978s-.573-.949-1.259-2.1h0c.284.484.553.928.766,1.285l6.058-2.456a21.252,21.252,0,0,0,3.623-3.982l12.459-6.146-.392-.993.392.994,7.8-10.02,2.1-2.692Zm-101.2,43.754,6.92-3.414Z" transform="translate(-156.032 -1331.264)" fill="#003889"/>
            </g>
          </g>
        </g>
        <path id="Path_1985" data-name="Path 1985" d="M1156.6,1388.986l-6.924-13.107,11.918.312,3.2.084-1.736,2.692Z" transform="translate(-1001.509 -1198.564)" fill="#fff"/>
        <path id="Path_1986" data-name="Path 1986" d="M1239.04,1381.075a1.581,1.581,0,0,1-1.466-2.775l3.2.083Z" transform="translate(-1077.494 -1200.673)" fill="#1f3a6f"/>
        <g id="Group_715" data-name="Group 715" transform="translate(152.778 177.71)" opacity="0.18">
          <g id="Group_714" data-name="Group 714">
            <g id="Group_713" data-name="Group 713" clip-path="url(#clip-path-7)">
              <path id="Path_1987" data-name="Path 1987" d="M1187.8,1391.66l-2.307-4.368,7.323-5.819,3.181-2.525-1.736,2.692Z" transform="translate(-1185.49 -1378.948)"/>
            </g>
          </g>
        </g>
        <path id="Path_1988" data-name="Path 1988" d="M642.665,2566.905l-.15,6.286-6.282.427-.515-7.569Z" transform="translate(-553.79 -2235.353)" fill="#fdc8aa"/>
        <path id="Path_1989" data-name="Path 1989" d="M409.885,2543.65l-2.091,5.93-6.105-1.542,1.856-7.356Z" transform="translate(-349.922 -2213.256)" fill="#fdc8aa"/>
        <path id="Path_1990" data-name="Path 1990" d="M567.754,2041.178s-1.507,37.733-1.895,37.878-8.4,0-8.4,0l-.711-37.366-2.091-7.564-7.9-28.548,8.42-.543,11.972-.773.039,2.319.072,4.521Z" transform="translate(-476.297 -1745.965)" fill="#15315e"/>
        <path id="Path_1991" data-name="Path 1991" d="M650.354,2026.777a11.549,11.549,0,0,1-8.21-.391s4.221-2.355,8.138-4.131Z" transform="translate(-559.389 -1761.64)" fill="#072542"/>
        <path id="Path_1992" data-name="Path 1992" d="M555.179,2010.26c-.132,5.907-.354,18.789-.525,29.091l-7.9-28.548Z" transform="translate(-476.296 -1751.191)" fill="#072542"/>
        <path id="Path_1993" data-name="Path 1993" d="M423.881,2070.86l-10.6,32.4-7.582-2.247,6.515-32.547-.2-26.27-.052-7-.01-1.267,4.351-.256,1.934-.114,11.525-.675c.372.76-5.886,37.973-5.886,37.973" transform="translate(-353.418 -1770.901)" fill="#1f3a6f"/>
        <path id="Path_1994" data-name="Path 1994" d="M470.538,2040.668s-4.594,3.081-16.16,4.214l-.052-7c1.747-.646,3.3-1.181,4.34-1.523a10.741,10.741,0,0,1,1.331-.39c.028.018.248.119.6.276,2.242,1.019,9.938,4.423,9.938,4.423" transform="translate(-395.776 -1773.584)" fill="#072542"/>
        <path id="Path_1995" data-name="Path 1995" d="M591.331,1958.924a25.447,25.447,0,0,1-11.213,2.521v-14.251l10.728-.614Z" transform="translate(-505.356 -1695.717)" fill="#fff"/>
        <path id="Path_1996" data-name="Path 1996" d="M627.539,1796.723c-4.612,6.721-10.922,4.8-10.922,4.8-.664-1.885-1.22-3.777-1.683-5.654a80.082,80.082,0,0,1-1.9-23.946,63.16,63.16,0,0,1,.763-6.763l1.119-.116,8.854-.918q-.058.981-.067,2.052c-.119,11.625,3.839,30.541,3.839,30.541" transform="translate(-533.861 -1536.779)" fill="#f4b545"/>
        <path id="Path_1997" data-name="Path 1997" d="M625.057,1764.129q-.058.981-.067,2.052l-10.669,5.744a63.175,63.175,0,0,1,.763-6.763l1.119-.116Z" transform="translate(-535.151 -1536.779)" fill="#e59d29"/>
        <path id="Path_1998" data-name="Path 1998" d="M614.932,1802.075a81.115,81.115,0,0,1-1.14-30.709l1.119-.116c.295,5.256,1.148,22.643.021,30.825" transform="translate(-533.859 -1542.983)" fill="#e59d29"/>
        <path id="Path_1999" data-name="Path 1999" d="M460.208,1789.386c-.259,9.136-.085,21.113-7.409,21.974s-15.943,0-16.545-.6c-.261-.261-.217-5.809-.08-12.031.049-2.334.114-4.764.178-7.044.16-5.711.331-10.48.331-10.48l20.981-8.474,1.424-.574s.455,2.671.791,6.675a94.936,94.936,0,0,1,.328,10.558" transform="translate(-379.867 -1543.769)" fill="#f4b545"/>
        <path id="Path_2000" data-name="Path 2000" d="M546.769,1568.207a9.219,9.219,0,0,0,11.773,0v15.866H547.318Z" transform="translate(-476.305 -1366.106)" fill="#fdc8aa"/>
        <path id="Path_2001" data-name="Path 2001" d="M618.9,1536.495s12.25,7.269,23.295,5.487,26.6-8.464,26.475-8.4,4.389,6.185,4.389,6.185l-22.922,11.978a24.909,24.909,0,0,1-15.982,1.9,46.019,46.019,0,0,0-16.763-.345Z" transform="translate(-537.829 -1335.945)" fill="#f4b545"/>
        <path id="Path_2002" data-name="Path 2002" d="M604.147,1554.166s2.38.582,2.478,2.359.129,4.535.129,4.535l-1.616,1.508,1.616,1.874-6.075,11.525Z" transform="translate(-523.267 -1353.875)" fill="#1f3a6f"/>
        <path id="Path_2003" data-name="Path 2003" d="M548.686,1519.515l-7.555-7.209-.235-6.194-.044-1.156-1.334-6.316,11.062,3.686.615,6.558Z" transform="translate(-469.989 -1305.506)" fill="#fdc8aa"/>
        <path id="Path_2004" data-name="Path 2004" d="M551.2,1508.887c-5.5,1.4-8.588-.7-10.3-2.774l-.044-1.156-1.334-6.315,11.062,3.686Z" transform="translate(-469.989 -1305.507)" fill="#f4a882"/>
        <path id="Path_2005" data-name="Path 2005" d="M537.8,1405.118s.7,17.909-5.7,17.627-10.386-5.932-11.085-10.734,1.13-7.74,5.973-7.74a92.249,92.249,0,0,1,10.816.847" transform="translate(-453.742 -1223.297)" fill="#fdc8aa"/>
        <path id="Path_2006" data-name="Path 2006" d="M513.519,1344.2s14.293-.141,9.378-9.237-22.259.678-21.638,6.78,2,10.282,3.992,9-2.674-2.41-1.092-4.482a3.03,3.03,0,0,1,2.448-.226c1.544.414,1.243-2.09,6.911-1.836" transform="translate(-436.646 -1159.7)" fill="#1f3a6f"/>
        <rect id="Rectangle_376" data-name="Rectangle 376" width="158.447" height="14.821" transform="translate(8.061 251.322) rotate(-27.844)" fill="#6d6d6d"/>
        <rect id="Rectangle_377" data-name="Rectangle 377" width="158.447" height="4.94" transform="matrix(0.884, -0.467, 0.467, 0.884, 8.062, 251.323)" fill="#1f3a6f"/>
        <rect id="Rectangle_378" data-name="Rectangle 378" width="158.447" height="4.94" transform="translate(10.369 255.691) rotate(-27.845)" fill="#1f3a6f"/>
        <rect id="Rectangle_379" data-name="Rectangle 379" width="158.447" height="4.94" transform="translate(12.677 260.06) rotate(-27.845)" fill="#18325b"/>
        <path id="Path_2007" data-name="Path 2007" d="M688.291,1692.968a20.2,20.2,0,0,0,2.517-2.966c.285-.715,2.159-4.33,2.648-2.264s-1.833,4.489,1.1,2.423,7.373-3.416,4.2,1.271a14.053,14.053,0,0,1-8.432,5.6Z" transform="translate(-599.588 -1469.684)" fill="#fdc8aa"/>
        <path id="Path_2008" data-name="Path 2008" d="M459.928,1780.626,438.3,1795.56c.16-5.711.331-10.48.331-10.48l20.981-8.474c.114,1.58.318,4.02.318,4.02" transform="translate(-381.813 -1547.648)" fill="#e59d29"/>
        <path id="Path_2009" data-name="Path 2009" d="M430.113,1548.9s-15.877,3.264-16.653,14.294-1.81,27.058,1.465,27.23,36.02-13.27,36.02-13.27l-2.671-6.463-24.128,8.79.085-8.812,10.555-5.576-3.445-6.337Z" transform="translate(-359.487 -1349.288)" fill="#f4b545"/>
        <path id="Path_2010" data-name="Path 2010" d="M531.811,1563.422l-2.733,1.442-5.8-6.38,1.939-3.1-2.433-.776c.473-6.68,3.49-6.959,3.49-6.959l2.024,6.98Z" transform="translate(-455.415 -1348.196)" fill="#1f3a6f"/>
        <path id="Path_2011" data-name="Path 2011" d="M502.376,1684.657v-4.9l1.645,4.036Z" transform="translate(-437.633 -1463.276)" fill="#e59d29"/>
        <path id="Path_2012" data-name="Path 2012" d="M629.7,2609.906a.865.865,0,0,1,1.131.06c1.542,1.494,5.115,4.911,5.716,5.092.771.231,5.627.206,5.987,1.439s.591,2.826-2.955,3.238-16.959,0-17.165,0-1.9-1.053-1.824-1.953.591-7.683,2.261-6.861c1.4.688,5.514.009,6.849-1.015" transform="translate(-540.609 -2273.4)" fill="#15315e"/>
        <path id="Path_2013" data-name="Path 2013" d="M382.53,2591.063a.866.866,0,0,1,1.084.328c1.14,1.819,3.793,5.992,4.334,6.311.693.409,5.415,1.544,5.47,2.828s-.1,2.886-3.643,2.438-16.468-4.052-16.668-4.1-1.595-1.477-1.3-2.332,2.41-7.32,3.835-6.122c1.193,1,5.352,1.325,6.893.651" transform="translate(-323.852 -2256.448)" fill="#15315e"/>
        <path id="Path_2014" data-name="Path 2014" d="M463.658,2094.638a.2.2,0,0,1-.044-.405,8.548,8.548,0,0,0,6.571-5.371.205.205,0,0,1,.395.111,8.956,8.956,0,0,1-6.878,5.66.208.208,0,0,1-.044,0" transform="translate(-403.726 -1819.533)" fill="#fff"/>
        <path id="Path_2015" data-name="Path 2015" d="M594.576,1838.244a.89.89,0,1,1-.89-.89.89.89,0,0,1,.89.89" transform="translate(-516.401 -1600.567)" fill="#1f3a6f"/>
        <path id="Path_2016" data-name="Path 2016" d="M594.576,1889.4a.89.89,0,1,1-.89-.89.89.89,0,0,1,.89.89" transform="translate(-516.401 -1645.127)" fill="#1f3a6f"/>
        <path id="Path_2017" data-name="Path 2017" d="M594.109,1949.24a.89.89,0,1,1-.89-.89.89.89,0,0,1,.89.89" transform="translate(-515.994 -1697.259)" fill="#1f3a6f"/>
        <path id="Path_2018" data-name="Path 2018" d="M590.1,2004.427a.89.89,0,1,1-.89-.89.89.89,0,0,1,.89.89" transform="translate(-512.499 -1745.334)" fill="#1f3a6f"/>
        <path id="Path_2019" data-name="Path 2019" d="M479.615,1994.583v.666s9.693,1.032,9.693.983v-1.649Z" transform="translate(-417.805 -1737.534)" fill="#e59d29"/>
        <path id="Path_2020" data-name="Path 2020" d="M651.667,1972.776l.2.479s7.289-2.173,7.274-2.209l-.5-1.187Z" transform="translate(-567.684 -1715.996)" fill="#e59d29"/>
        <path id="Path_2021" data-name="Path 2021" d="M1044.063,1503.577l-5.729,2.456c-.261-.357-.589-.8-.938-1.285l1.952-1.031s2.355-2.047,2.355-3.5,2.554-5.915,5.235-3.911-2.874,7.272-2.874,7.272" transform="translate(-903.703 -1303.027)" fill="#fdc8aa"/>
        <g id="Group_718" data-name="Group 718" transform="translate(321.826 236.991)" opacity="0.2" style="mix-blend-mode: multiply;isolation: isolate">
          <g id="Group_717" data-name="Group 717">
            <g id="Group_716" data-name="Group 716" clip-path="url(#clip-path-8)">
              <path id="Path_2022" data-name="Path 2022" d="M2569.584,1905.608a27.176,27.176,0,0,0-6.6,1.305,17.472,17.472,0,0,0,1.095-6.008c.208-4.945-.539-10.779-.6-14.013a22.425,22.425,0,0,0-2.751-11.143,2.31,2.31,0,0,0-.3-.436c1.385-.13,2.344-.41,2.66-.916,1.729-2.771-3.106-4.354-1.36-21.373s-15.5-13.852-15.5-13.852c-8.974,2.375-16.627,17.217-19.246,24.539-1.261,3.52-.519,6.4,1.146,8.309a7.278,7.278,0,0,0,.922.89,7.572,7.572,0,0,0,4.62,1.672,6.769,6.769,0,0,1-2.139.515h0c-4.446-.135-7.1,2.23-8.764,3.307s-4.911,6.522-5.721,10.7-2.819,7.793-5.66,13.839.424,6.8.424,6.8.116.087.335.222c-4.136-.784-10.752-1.536-12.8,1.141-3.055,3.99-2.723,8.014.423,10.559,1.8,1.452,3.363,3.9,10.344,5.435a16.128,16.128,0,0,0,4.049,2.142,58.735,58.735,0,0,0-.985,6.049c.056.188.983.235,1.879.085a3.293,3.293,0,0,0,1.4-.507c.857-.669,5.144-1.167,5.144-1.167s.193-.095.493-.273c.238-.141.544-.338.871-.58l5.067-1.028a15.31,15.31,0,0,0,.953,1.735c2.313-.69,4.6-1.385,6.849-2.078,1.563-.129,3.083-.311,4.549-.539a4.681,4.681,0,0,0,.659.307c.169.063.344.123.517.178.369.119.732.221,1.044.328a7.116,7.116,0,0,1,2.482,1.648,6.2,6.2,0,0,0,1.831.33,4.181,4.181,0,0,0,2.16-.33.846.846,0,0,0,.145-.108c.016-.014.032-.031.048-.046.036-.035.072-.073.109-.116.019-.021.037-.042.055-.065.039-.047.077-.1.117-.154.017-.023.033-.045.05-.069.057-.082.114-.168.172-.263l.006-.01c.057-.093.115-.192.173-.3.02-.035.04-.072.059-.108.042-.076.083-.153.125-.234l.068-.131c.042-.083.085-.168.127-.255.021-.041.041-.082.061-.124.062-.128.124-.259.187-.4l.02-.044q.085-.186.171-.379l.063-.145c.044-.1.087-.2.131-.3l.063-.15q.073-.171.144-.345l.043-.1c.132-.322.261-.648.386-.972l0-.01c.125-.324.247-.646.362-.959a14.945,14.945,0,0,0,4.317-2.925c6.669-2.446,11.835-4.69,14.46-6.512,5.634-3.911,3.239-12.448-1.159-12.576m-14.706-16.244h0m0,.04v-.022a.074.074,0,0,0,0-.014v0c.017.149.281,2.424.577,5.042h-2.32a11.391,11.391,0,0,0,1.741-5.011m-29.586,2.448h0c.095.909.16,1.76.2,2.563h-1.776c.913-1.558,1.574-2.567,1.574-2.567a.007.007,0,0,0,0,0" transform="translate(-2497.223 -1838.94)" fill="#003889"/>
            </g>
          </g>
        </g>
        <path id="Path_2023" data-name="Path 2023" d="M2684.191,1874.4c-1.187,2.771-22.956-1.187-27.705,0a8.4,8.4,0,0,1-6.619-1.486,9.734,9.734,0,0,1-1.1-.89,9.1,9.1,0,0,1-2.772-8.309c1.188-7.322,5.937-22.164,14.446-24.539,0,0,16.623-3.167,18.206,13.852s6.728,18.6,5.541,21.373" transform="translate(-2304.88 -1601.949)" fill="#1f3a6f"/>
        <path id="Path_2024" data-name="Path 2024" d="M2671.326,2018.227a106.2,106.2,0,0,0-1.807,10.866,9.736,9.736,0,0,1-1.1-.89c.469-2.838,1.409-7.419,2.9-9.976" transform="translate(-2324.534 -1758.131)" fill="#15315e"/>
        <path id="Path_2025" data-name="Path 2025" d="M2717.27,2062.732s-.815,8.147-.408,9.928-1.262-.594-1.262-.594a82.619,82.619,0,0,1,1.67-9.334" transform="translate(-2365.631 -1796.9)" fill="#15315e"/>
        <path id="Path_2026" data-name="Path 2026" d="M2871.686,2022.68s1.3,10.785-.216,15.782,3.135,1.188,3.135,1.188Z" transform="translate(-2501.148 -1762.01)" fill="#15315e"/>
        <path id="Path_2027" data-name="Path 2027" d="M2842.57,2057.3c.2-.119,2.276-6.615,2.227-9.155s.4,7.8-.792,10.224-1.435-1.068-1.435-1.068" transform="translate(-2476.238 -1783.843)" fill="#15315e"/>
        <path id="Path_2028" data-name="Path 2028" d="M2725.455,1966.343c-.05.2-.8,8.747,4.7,11.448s12.62-.762,12.324-8.381-17.019-3.067-17.019-3.067" transform="translate(-2374.163 -1711.758)" fill="#15315e"/>
        <path id="Path_2029" data-name="Path 2029" d="M2587.89,2422.851c.061,5.181,11.262,9.25,25.018,9.089s24.86-4.492,24.8-9.672-11.262-9.25-25.018-9.088-24.859,4.492-24.8,9.672" transform="translate(-2254.379 -2102.179)" fill="#072542"/>
        <path id="Path_2030" data-name="Path 2030" d="M2830.216,2407.739s4.354-11.148,8.509-11.082,12.4.165,12.137,1.863-11.082,8.163-12.137,8.493-8.509.725-8.509.725" transform="translate(-2465.476 -2087.791)" fill="#072542"/>
        <path id="Path_2031" data-name="Path 2031" d="M2640.95,2386.757c.056-.741-.3-9.877,11.033-9.169s26.3.983,25.815,4.952-9.687,11.834-14.882,11.686-22.127-5.327-21.966-7.47" transform="translate(-2300.601 -2071.146)" fill="#072542"/>
        <path id="Path_2032" data-name="Path 2032" d="M2610.319,2349.834a12.394,12.394,0,0,1-2.628.8,13.025,13.025,0,0,1-8.85-1.6,7.994,7.994,0,0,1-.028-1.142c.062-1.579.574-4.282,3.327-4.652,3.924-.528,8.179,6.6,8.179,6.6" transform="translate(-2263.888 -2041.232)" fill="#fdc8aa"/>
        <path id="Path_2033" data-name="Path 2033" d="M2895.539,2352.465s-2,1.5-6.733,2.068l-.435.047c-5.046.528,1.88-8.442,1.88-8.442s5.442-1.484,6.1,0a4.153,4.153,0,0,1,.287,1.188c.206,1.775-.18,4.352-1.1,5.139" transform="translate(-2514.533 -2043.208)" fill="#fdc8aa"/>
        <path id="Path_2034" data-name="Path 2034" d="M2633.629,2143.619a10.2,10.2,0,0,1-3.426,2.229,7.168,7.168,0,0,0,.392-1.189c.378-1.579.471-4.237-2.921-4.836a7.808,7.808,0,0,0-.9-.1s.928-.746.36-2.873c-.56-2.094-3.806-12.5-3.906-12.829l0-.008a.048.048,0,0,1,0,.018l0,.022a10.326,10.326,0,0,1-1.957,7.146s3.01,14.886-.2,15.27a85.174,85.174,0,0,1-24.349-.036q-1.178-.172-2.4-.384a39.592,39.592,0,0,1,.93-5.361c.637-2.377,1.3-6.063-1.13-14.187a.006.006,0,0,1,0,0s-3.647,7.924-3.924,13.777c0,0-4.138-1.429-6.05,4.124,0,0-3.411-.76-1.755-6.8s2.96-9.657,2.952-13.839,2.173-9.624,3.627-10.7,3.645-3.441,8.117-3.307,21.4-1.417,21.4-1.417,6.105-.434,7.926,2.068a26.892,26.892,0,0,1,4.932,11.143c.693,3.234,2.581,9.067,3.34,14.013.554,3.619.5,6.764-1.058,8.072" transform="translate(-2249.197 -1836.591)" fill="#f4b545"/>
        <path id="Path_2035" data-name="Path 2035" d="M2721.927,2031.028s-.812,7.715-8.871,8.7-12.722-3.685-13.556-7.251c0,0,5.015-.052,8.2-7.362q.306-.7.586-1.488c3.119-8.794,6.275-.441,6.275-.441a12.709,12.709,0,0,0,1.813,3.88,8.947,8.947,0,0,0,5.55,3.965" transform="translate(-2351.606 -1759.324)" fill="#fdc8aa"/>
        <path id="Path_2036" data-name="Path 2036" d="M2771.823,2027.063a15.814,15.814,0,0,1-8.674-1.951q.306-.7.586-1.488c3.119-8.794,6.275-.441,6.275-.441a12.731,12.731,0,0,0,1.813,3.88" transform="translate(-2407.052 -1759.324)" fill="#fbb188"/>
        <path id="Path_2037" data-name="Path 2037" d="M2739.454,1909.157a10.308,10.308,0,0,1-5.547,9.344,8.6,8.6,0,0,1-3.578.885c-.08,0-.16,0-.242,0-5.173,0-9.366-4.581-9.366-10.233s4.193-10.233,9.366-10.233a8.954,8.954,0,0,1,6.568,2.939,10.68,10.68,0,0,1,2.8,7.294" transform="translate(-2370.092 -1654.202)" fill="#fdc8aa"/>
        <path id="Path_2038" data-name="Path 2038" d="M2828.582,1929.021a10.309,10.309,0,0,1-5.547,9.344c4.991-2.792,3.9-11.523,2.749-16.639a10.68,10.68,0,0,1,2.8,7.294" transform="translate(-2459.22 -1674.067)" fill="#fbb188"/>
        <path id="Path_2039" data-name="Path 2039" d="M2715.6,1881.717s13.325,5.526,20.053,1.906-7.388-12.614-12.929-8.579-7.125,6.674-7.125,6.674" transform="translate(-2365.631 -1632.511)" fill="#1f3a6f"/>
        <path id="Path_2040" data-name="Path 2040" d="M2844.276,2504.936c.02.959.875,1.451,1.834,1.793.182.063.368.123.552.178.392.119.776.222,1.108.329a9.265,9.265,0,0,1,2.8,1.649,6.933,6.933,0,0,0,1.9.33,3.828,3.828,0,0,0,2.1-.33c.722-.455,1.433-3.792,1.84-6.289a22.117,22.117,0,0,0,.35-2.78s-.8-.052-1.961-.109c-.554-.028-1.191-.057-1.866-.081-1.433-.056-3.034-.092-4.352-.064a9.933,9.933,0,0,0-2.521.254,2.087,2.087,0,0,0-1.061,1.023,9.259,9.259,0,0,0-.72,4.1" transform="translate(-2477.721 -2177.425)" fill="#ecf3fe"/>
        <path id="Path_2041" data-name="Path 2041" d="M2907.426,2243.229a13.812,13.812,0,0,1-.677,2.794,7.722,7.722,0,0,0-.9-.1s.928-.746.36-2.873c-.56-2.094-3.805-12.5-3.906-12.83l0-.008s5.783,8.6,5.124,13.021" transform="translate(-2528.271 -1942.793)" fill="#e59d29"/>
        <path id="Path_2042" data-name="Path 2042" d="M2679.084,2269.442c-.786-.115-1.587-.241-2.4-.384a39.6,39.6,0,0,1,.93-5.361c.637-2.376,1.3-6.063-1.13-14.187a23.178,23.178,0,0,1,2.6,19.932" transform="translate(-2331.555 -1959.608)" fill="#e59d29"/>
        <path id="Path_2043" data-name="Path 2043" d="M2512.645,2385.946s-13.92-3.627-16.2.364-1.155,8.014,2.489,10.559,7.176,8.149,38.97,6.529l1.259-5.348s-16-3.859-23.233-7.421v-3.493s-.651-.6-3.29-1.19" transform="translate(-2173.697 -2077.146)" fill="#1b345e"/>
        <path id="Path_2044" data-name="Path 2044" d="M2687.338,2513.617l-11.445,1.6s.4,6.465.511,6.465,15.205-3.2,15.205-3.2Z" transform="translate(-2331.041 -2189.677)" fill="#fdc8aa"/>
        <path id="Path_2045" data-name="Path 2045" d="M2907.883,2510.256a3.827,3.827,0,0,0,2.1-.331c1.154-.726,2.276-8.806,2.19-9.069,0,0-.8-.051-1.961-.109a68.886,68.886,0,0,1-2.326,9.509" transform="translate(-2533.133 -2178.467)" fill="#9fb8d6"/>
        <path id="Path_2046" data-name="Path 2046" d="M2647.09,2517.211c.093.188,1.029.235,1.9.085a2.717,2.717,0,0,0,1.3-.506c.726-.669,4.916-1.168,4.916-1.168s.174-.095.439-.273c.927-.624,2.947-2.272,2.331-4.447-.792-2.8-4.3-2.77-4.478-2.77a13.12,13.12,0,0,1-2.721-.966,1.572,1.572,0,0,0-.758-.206,6.32,6.32,0,0,0-1.229.026,2.7,2.7,0,0,0-1.575.552c-.544.643-.271,9.374-.123,9.673" transform="translate(-2305.774 -2183.863)" fill="#ecf3fe"/>
        <g id="Group_721" data-name="Group 721" transform="translate(366.552 322.126)" opacity="0.5">
          <g id="Group_720" data-name="Group 720">
            <g id="Group_719" data-name="Group 719" clip-path="url(#clip-path-9)">
              <path id="Path_2047" data-name="Path 2047" d="M2844.276,2504.936c.02.959.875,1.451,1.834,1.793.182.063.368.123.552.178l9.744-4.312a22.117,22.117,0,0,0,.35-2.78s-.8-.052-1.961-.109c-.554-.028-1.191-.057-1.866-.081-1.433-.056-3.034-.092-4.352-.064a9.933,9.933,0,0,0-2.521.254,2.087,2.087,0,0,0-1.061,1.023,9.259,9.259,0,0,0-.72,4.1" transform="translate(-2844.273 -2499.552)" fill="#587189"/>
            </g>
          </g>
        </g>
        <path id="Path_2048" data-name="Path 2048" d="M2757.033,2362.3c.264-.132,14.967-6.193,19.39-6.065s8.488,8.666,3.619,12.577-21.045,9.762-38.749,15.379a20.149,20.149,0,0,1-4.022-7.775s17.113-7.3,20.478-9.432Z" transform="translate(-2384.51 -2052.58)" fill="#1f3a6f"/>
        <path id="Path_2049" data-name="Path 2049" d="M2647.09,2517.211c.093.188,1.029.235,1.9.085a2.717,2.717,0,0,0,1.3-.506c.726-.669,4.916-1.168,4.916-1.168s.174-.095.439-.273c-6.425-.206-5.988-6.236-5.626-8.389a6.32,6.32,0,0,0-1.229.026,2.7,2.7,0,0,0-1.575.552c-.544.643-.271,9.374-.123,9.673" transform="translate(-2305.774 -2183.863)" fill="#d7e3f4"/>
        <path id="Path_2050" data-name="Path 2050" d="M2647.09,2517.513c.093.188,1.029.236,1.9.085-.185-.937-.412-2.256-.58-3.718a27.683,27.683,0,0,1,.382-6.592,2.7,2.7,0,0,0-1.575.552c-.544.643-.271,9.374-.123,9.673" transform="translate(-2305.774 -2184.165)" fill="#9fb8d6"/>
        <path id="Path_2051" data-name="Path 2051" d="M2676.941,2271.772v17.622a2.382,2.382,0,0,1-2.374,2.375h-33.755a2.381,2.381,0,0,1-2.375-2.375v-17.622a2.382,2.382,0,0,1,2.375-2.375h33.755a2.388,2.388,0,0,1,2.374,2.375" transform="translate(-2298.412 -1976.931)" fill="#869fb7"/>
        <path id="Path_2052" data-name="Path 2052" d="M2657.5,2289.55a1.4,1.4,0,1,1-1.4-1.4,1.4,1.4,0,0,1,1.4,1.4" transform="translate(-2312.576 -1993.264)" fill="#495a70"/>
        <path id="Path_2053" data-name="Path 2053" d="M2681.77,2276.146v17.622a2.381,2.381,0,0,1-2.375,2.375h-33.755a2.363,2.363,0,0,1-1.66-.681c25.562-2.476,34.156-13.482,37.036-21.044a2.349,2.349,0,0,1,.754,1.727" transform="translate(-2303.241 -1981.306)" fill="#728da3"/>
        <path id="Path_2054" data-name="Path 2054" d="M2844.167,293.929a11.063,11.063,0,1,1-11.063-11.063,11.063,11.063,0,0,1,11.063,11.063" transform="translate(-2458.355 -246.412)" fill="#c4d7f2"/>
        <path id="Path_2055" data-name="Path 2055" d="M368.657,880.819a5.735,5.735,0,1,1-5.735-5.735,5.735,5.735,0,0,1,5.735,5.735" transform="translate(-311.155 -762.309)" fill="#f4b545"/>
        <path id="Path_2056" data-name="Path 2056" d="M3744.313,2186.006a5.735,5.735,0,1,1-5.735-5.735,5.735,5.735,0,0,1,5.735,5.735" transform="translate(-3251.777 -1899.291)" fill="#4cd8bd"/>
        <path id="Path_2057" data-name="Path 2057" d="M4006.181,945.229a5.887,5.887,0,1,1-5.887-5.887,5.887,5.887,0,0,1,5.887,5.887" transform="translate(-3479.633 -818.286)" fill="#f4b545"/>
      </g>
    </g>
  </g>
</svg>
