<svg xmlns="http://www.w3.org/2000/svg" width="22.17" height="23.93" viewBox="0 0 22.17 23.93">
  <g id="Group_5" data-name="Group 5" transform="translate(-398 -246.006)">
    <path id="Path_4" data-name="Path 4" d="M404.564,264.808a2.564,2.564,0,1,0,2.564,2.564A2.577,2.577,0,0,0,404.564,264.808Zm0,1.709a.855.855,0,1,1-.855.855A.842.842,0,0,1,404.564,266.518Zm11.965-1.709a2.564,2.564,0,1,0,2.564,2.564A2.577,2.577,0,0,0,416.529,264.808Zm0,1.709a.855.855,0,1,1-.855.855A.842.842,0,0,1,416.529,266.518Zm.855-20.512c-2.822,0,2.822,0,0,0Z" transform="translate(-0.581)" fill="#1e1f1e" fill-rule="evenodd"/>
    <path id="Path_6" data-name="Path 6" d="M398.855,246.006a.855.855,0,1,0,0,1.709h1.008l2.265,11.318a2.562,2.562,0,0,0,1,4.921h14.529a.855.855,0,1,0,0-1.709H403.128a.855.855,0,1,1,0-1.709h12.82l.025-.005h2.539a.855.855,0,0,0,.845-.721l.8-5.1a.855.855,0,1,0-1.689-.265l-.689,4.378H403.829l-1.539-7.687h10.328a.855.855,0,0,0,0-1.709h-10.67l-.546-2.731a.855.855,0,0,0-.838-.688Z" transform="translate(0 0)" fill="#1e1f1e" fill-rule="evenodd"/>
  </g>
</svg>
