<svg xmlns="http://www.w3.org/2000/svg" xmlns:xlink="http://www.w3.org/1999/xlink" width="1104.995" height="1145.825" viewBox="0 0 1104.995 1145.825">
  <defs>
    <clipPath id="clip-path">
      <rect id="Rectangle_520" data-name="Rectangle 520" width="986.708" height="598.024" fill="none"/>
    </clipPath>
    <clipPath id="clip-path-3">
      <rect id="Rectangle_504" data-name="Rectangle 504" width="67.263" height="49.442" fill="none"/>
    </clipPath>
    <clipPath id="clip-path-4">
      <rect id="Rectangle_505" data-name="Rectangle 505" width="55.916" height="55.138" fill="none"/>
    </clipPath>
  </defs>
  <g id="Group_910" data-name="Group 910" transform="translate(-640.713 -4033)">
    <path id="Path_2195" data-name="Path 2195" d="M4206.783-2793.438c448.108,31.349,771.729,428.887,946.454,334.379s-57.166-221.288-83.236-57.166,175.709,313.143,138,401.658" transform="translate(-3566 7293)" fill="none" stroke="rgba(38,34,98,0.85)" stroke-width="2" stroke-dasharray="10"/>
    <g id="Group_883" data-name="Group 883" transform="translate(759 4033)">
      <g id="Group_882" data-name="Group 882" clip-path="url(#clip-path)">
        <g id="Group_881" data-name="Group 881">
          <g id="Group_880" data-name="Group 880" clip-path="url(#clip-path)">
            <path id="Path_2070" data-name="Path 2070" d="M97.086,295.8H22.212a3.112,3.112,0,0,1-3.112-3.112V239.544a5.093,5.093,0,0,1,5.093-5.093H97.086a3.112,3.112,0,0,1,3.112,3.114v55.121a3.112,3.112,0,0,1-3.112,3.112" transform="translate(8.093 99.343)" fill="#dadef1"/>
            <path id="Path_2071" data-name="Path 2071" d="M57.06,234.975v61.041a.89.89,0,0,0,1.78,0V234.975a.89.89,0,0,0-1.78,0" transform="translate(24.178 99.201)" fill="#b8c1ea"/>
            <rect id="Rectangle_482" data-name="Rectangle 482" width="11.292" height="11.292" transform="translate(48.654 333.794)" fill="#fff"/>
            <rect id="Rectangle_483" data-name="Rectangle 483" width="11.292" height="11.292" transform="translate(91.319 383.85)" fill="#fff"/>
            <path id="Path_2072" data-name="Path 2072" d="M19.168,294.893l-.068-58.03a2.535,2.535,0,0,1,2.534-2.536l78.566.175" transform="translate(8.093 99.291)" fill="none" stroke="#b8c1ea" stroke-width="1"/>
            <path id="Path_2073" data-name="Path 2073" d="M143.212,378.527H17.149a3.113,3.113,0,0,1-3.112-3.112V283.553a5.094,5.094,0,0,1,5.093-5.094H143.212a3.112,3.112,0,0,1,3.112,3.114v93.842a3.112,3.112,0,0,1-3.112,3.112" transform="translate(5.948 117.991)" fill="#dadef1"/>
            <path id="Path_2074" data-name="Path 2074" d="M76.351,279.153v99.57a.89.89,0,0,0,1.78,0v-99.57a.89.89,0,0,0-1.78,0" transform="translate(32.352 117.92)" fill="#b8c1ea"/>
            <rect id="Rectangle_484" data-name="Rectangle 484" width="18.417" height="18.417" transform="translate(54.993 396.45)" fill="#fff"/>
            <rect id="Rectangle_485" data-name="Rectangle 485" width="18.417" height="18.417" transform="translate(124.587 478.1)" fill="#fff"/>
            <path id="Path_2075" data-name="Path 2075" d="M14.148,377.05l-.112-94.658a4.134,4.134,0,0,1,4.135-4.134l128.154.286" transform="translate(5.947 117.905)" fill="none" stroke="#b8c1ea" stroke-width="1"/>
            <path id="Path_2076" data-name="Path 2076" d="M129.675,448.768H3.612A3.113,3.113,0,0,1,.5,445.656V353.794A5.093,5.093,0,0,1,5.593,348.7H129.675a3.112,3.112,0,0,1,3.112,3.114v93.842a3.112,3.112,0,0,1-3.112,3.112" transform="translate(0.212 147.754)" fill="#dadef1"/>
            <path id="Path_2077" data-name="Path 2077" d="M62.814,349.394v99.57a.89.89,0,0,0,1.78,0v-99.57a.89.89,0,0,0-1.78,0" transform="translate(26.616 147.683)" fill="#b8c1ea"/>
            <rect id="Rectangle_486" data-name="Rectangle 486" width="18.417" height="18.417" transform="translate(35.72 496.454)" fill="#fff"/>
            <rect id="Rectangle_487" data-name="Rectangle 487" width="18.417" height="18.417" transform="translate(105.315 578.104)" fill="#fff"/>
            <path id="Path_2078" data-name="Path 2078" d="M.611,447.291.5,352.634A4.134,4.134,0,0,1,4.634,348.5l128.154.286" transform="translate(0.211 147.668)" fill="none" stroke="#b8c1ea" stroke-width="1"/>
            <path id="Path_2079" data-name="Path 2079" d="M255.652,122.684H116.646c-1.867,0-3.818-.162-5.682,0-.083.007-.172,0-.258,0a.89.89,0,0,0,0,1.78H249.712c1.868,0,3.818.162,5.682,0,.084-.007.172,0,.258,0a.89.89,0,0,0,0-1.78" transform="translate(46.545 51.954)" fill="#dadef1"/>
            <path id="Path_2080" data-name="Path 2080" d="M210.908,125.028a6.034,6.034,0,1,0,6.035-6.034,6.035,6.035,0,0,0-6.035,6.034" transform="translate(89.367 50.421)" fill="#dadef1"/>
            <path id="Path_2081" data-name="Path 2081" d="M106.9,202.085v82.538a.89.89,0,0,0,1.78,0V202.085a.89.89,0,0,0-1.78,0" transform="translate(45.296 85.265)" fill="#dadef1"/>
            <path id="Path_2082" data-name="Path 2082" d="M102.715,262.8a6.034,6.034,0,1,0,6.034-6.035,6.035,6.035,0,0,0-6.034,6.035" transform="translate(43.523 108.799)" fill="#dadef1"/>
            <path id="Path_2083" data-name="Path 2083" d="M68.088,226.969h91.793A3.113,3.113,0,0,0,163,223.856V157.917a5.094,5.094,0,0,0-5.094-5.094H68.088a3.112,3.112,0,0,0-3.112,3.114v67.919a3.112,3.112,0,0,0,3.112,3.114" transform="translate(27.532 64.755)" fill="#f2a441"/>
            <path id="Path_2084" data-name="Path 2084" d="M86.562,153.4V227.18a.89.89,0,0,0,1.78,0V153.4a.89.89,0,0,0-1.78,0" transform="translate(36.679 64.637)" fill="#26244a"/>
            <rect id="Rectangle_488" data-name="Rectangle 488" width="13.646" height="13.646" transform="translate(150.941 217.58)" fill="#dadef1"/>
            <rect id="Rectangle_489" data-name="Rectangle 489" width="13.646" height="13.646" transform="translate(99.373 278.078)" fill="#dadef1"/>
            <path id="Path_2085" data-name="Path 2085" d="M85.24,161.3s8.222-10.8,28.413-14.563,27.788,2.5,27.788,2.5,11.462,18.346,6.143,29.723-8.06,28.17,4.583,32.914S179.218,201.41,183.134,185c3.255-13.624,7.459-25.066,2.131-53.229s-63.1-56.706-63.1-56.706-30.4,26.564-43.835,41.4a48.467,48.467,0,0,0-12.564,32.178" transform="translate(27.863 31.809)" fill="#f4b298"/>
            <path id="Path_2086" data-name="Path 2086" d="M136.348,72.59s-35.1,11.7-56.192,29.824c-10.074,8.658-29.8,50.987-40.721,81.4-2.134,5.938-3.948,10.439-4.7,12.824-3.917,12.435,8.3,26.574,21.258,17.163,10.843-7.876,19.314-34.421,19.314-34.421l31.073-63.747Z" transform="translate(14.404 30.758)" fill="#f4b298"/>
            <path id="Path_2087" data-name="Path 2087" d="M28.95,150.273l53.805-55.8L52.775,169.732a84.449,84.449,0,0,1-10.338,4.8c-5.927,2.335-11.246-.13-12.516-1.277-6.7-6.055-7.136-17.018-.971-22.983" transform="translate(10.422 40.031)" fill="#f4b298"/>
            <path id="Path_2088" data-name="Path 2088" d="M210.168,89.357l-53.339,54.516-35.781-30.186-24.7-19.1,31.873-61.553c29.786-.515,66.22,20.717,81.947,56.328" transform="translate(40.825 13.991)" fill="#f4b298"/>
            <path id="Path_2089" data-name="Path 2089" d="M64.984,117.5l33.693,3.333c-5.609,6.764-8.088,15.873-8.975,24.733s-.363,17.742-.877,26.618c-.293,5.049-.962,10.225-3.2,14.765s-6.331,8.364-11,8.846c-4.162.43-8.157-1.855-10.835-5.165s-4.207-7.54-5.352-11.8A88.067,88.067,0,0,1,64.984,117.5" transform="translate(23.578 49.787)" fill="#f4b298"/>
            <path id="Path_2090" data-name="Path 2090" d="M59.692,180.572c-1.577-8.856-3.332-17.9-3.293-26.936.044-10.071,3.645-19.767,8.979-28.215A46.9,46.9,0,0,1,74.7,114.285c.88-.735-.384-1.988-1.259-1.259-7.328,6.109-12.593,15.26-15.806,24.121-3.052,8.414-3.425,16.888-2.453,25.685.676,6.1,1.717,12.167,2.795,18.212.2,1.126,1.915.649,1.716-.473" transform="translate(23.18 47.799)" fill="#ed796a"/>
            <path id="Path_2091" data-name="Path 2091" d="M38.648,170.8q11.205-30.1,25.32-58.994c.5-1.025-1.034-1.928-1.538-.9q-14.2,29.065-25.5,59.419c-.4,1.075,1.318,1.538,1.716.473" transform="translate(15.624 46.803)" fill="#ed796a"/>
            <path id="Path_2092" data-name="Path 2092" d="M144.527,94.243c10.8,10.013,17.492,23.016,20.327,37.384,2.715,13.766,2.358,28.5-2.7,41.67-2.849,7.412-6.421,14.881-11.588,20.98-4.257,5.024-10.009,9.28-16.9,8.885-3.117-.179-6.7-1.172-8.969-3.423a11.12,11.12,0,0,1-2.9-7.717c-.178-5.715,1.805-11.5,4.059-16.673,3.656-8.4,4.465-17.486.464-25.96a83.4,83.4,0,0,0-9.659-15.01c-.691-.894-2.237-.009-1.536.9a91.808,91.808,0,0,1,9.056,13.8,27.341,27.341,0,0,1,3.1,13.359c-.127,4.6-1.555,8.673-3.319,12.853-2.251,5.33-4.23,11.262-3.93,17.125a13.292,13.292,0,0,0,2.534,7.6,13.437,13.437,0,0,0,7.715,4.431c15.277,3.648,25.482-12.432,30.866-24.191a73.166,73.166,0,0,0,6.884-25.221,91.5,91.5,0,0,0-.92-20.774c-2.443-15.778-9.54-30.348-21.325-41.271-.839-.777-2.1.478-1.259,1.259" transform="translate(48.705 39.297)" fill="#ed796a"/>
            <path id="Path_2093" data-name="Path 2093" d="M483.343,126.945H662.754a10.956,10.956,0,0,0,2.453,0,1.425,1.425,0,0,1,.312,0l-.89-.89V287.269c0,2.15-.178,4.387,0,6.532.007.094,0,.191,0,.285a.89.89,0,0,0,1.78,0V132.872c0-2.15.178-4.387,0-6.532-.008-.093,0-.191,0-.285a.9.9,0,0,0-.89-.89H490.786c-2.353,0-4.782-.175-7.131,0-.1.007-.208,0-.312,0a.89.89,0,0,0,0,1.78" transform="translate(204.441 53.003)" fill="#dadef1"/>
            <path id="Path_2094" data-name="Path 2094" d="M351.788,88.331q2.072-2.887,4.152-5.783" transform="translate(149.062 34.978)" fill="none" stroke="#b8c1ea" stroke-linecap="round" stroke-linejoin="round" stroke-width="3"/>
            <path id="Path_2095" data-name="Path 2095" d="M366.126,76.84c11.687-13.466,25.073-24.484,42.787-28.523A79.9,79.9,0,0,1,506.1,116.66" transform="translate(155.137 19.661)" fill="none" stroke="#b8c1ea" stroke-linecap="round" stroke-linejoin="round" stroke-width="3" stroke-dasharray="9.337 18.675"/>
            <path id="Path_2096" data-name="Path 2096" d="M465.049,105.066q-.139,3.556-.611,7.092" transform="translate(196.795 44.519)" fill="none" stroke="#b8c1ea" stroke-linecap="round" stroke-linejoin="round" stroke-width="3"/>
            <path id="Path_2097" data-name="Path 2097" d="M364.53,86.686c-43.082-11.834-92.874,8.164-115.8,46.51s-16.974,91.674,13.844,124.022" transform="translate(99.498 35.294)" fill="none" stroke="#b8c1ea" stroke-linecap="round" stroke-linejoin="round" stroke-width="3" stroke-dasharray="10 20"/>
            <path id="Path_2098" data-name="Path 2098" d="M518.172,84.811c-5.676-6.457-15.57-8.05-23.419-3.767a20.12,20.12,0,0,0-8.444,8.7,16.129,16.129,0,0,0-.994,2.681l-5.094,17.424a4.416,4.416,0,0,0,4.021,5.649l12.935.642c1.22.061,3.568.121,5.668.135A19.586,19.586,0,0,0,514.078,113l.075-.051c9.434-6.545,11.517-19.612,4.019-28.141m-19.948,18.642c-4.4-4-2.959-11.136,2.726-13.518a8.043,8.043,0,0,1,8.438,1.351c4.4,4,2.96,11.138-2.726,13.518a8.043,8.043,0,0,1-8.438-1.351" transform="translate(203.407 33.327)" fill="#dadef1"/>
            <path id="Path_2099" data-name="Path 2099" d="M553.648,195.8A142.116,142.116,0,1,1,411.532,53.681,142.117,142.117,0,0,1,553.648,195.8" transform="translate(114.159 22.746)" fill="#b8c1ea"/>
            <path id="Path_2100" data-name="Path 2100" d="M400.05,53.636c-24.235,2.319-47.2,11.427-65.557,27.569-15.013,13.2-26.579,30.33-34.333,48.7-11.8,27.963-13.746,59.29-9.117,89.064,4.4,28.291,14.79,56.254,33.151,78.51,17.217,20.869,41.963,36.187,69.066,39.48a89.674,89.674,0,0,0,10.154.642.89.89,0,0,0,0-1.78c-27.121-.2-52.9-13.2-71.578-32.455-19.72-20.324-31.489-47.231-37.226-74.689-6.025-28.835-5.926-59.545,3.3-87.706a136.183,136.183,0,0,1,31.931-52.927,111.208,111.208,0,0,1,60.121-31.279c3.343-.587,6.709-1.025,10.087-1.348,1.13-.108,1.142-1.889,0-1.78" transform="translate(122.341 22.725)" fill="#f5f5f5"/>
            <path id="Path_2101" data-name="Path 2101" d="M385.913,53.757c-17.4,10.022-31.271,26.338-41.924,43.1a135.081,135.081,0,0,0-13.441,26.911,161.582,161.582,0,0,0-7.644,34.46,283.819,283.819,0,0,0-1.855,37.41c.115,12.395.643,24.816,1.77,37.162a236.118,236.118,0,0,0,5.921,36.338c2.707,10.7,6.162,21.558,11.958,31.03,10.1,16.514,26.281,28.154,43.755,35.895q3.259,1.444,6.578,2.726c1.068.416,1.53-1.3.473-1.716-17.688-6.885-34.636-17.29-45.956-32.845-6.272-8.619-10.145-18.432-13.174-28.591a208.281,208.281,0,0,1-7.028-35.6c-1.381-11.958-2.027-24-2.359-36.026a335.431,335.431,0,0,1,.72-36.151,189.869,189.869,0,0,1,6.22-36.18,121.659,121.659,0,0,1,11.525-27.152c9.895-17.432,23.191-34.2,39.779-45.7q2.716-1.886,5.58-3.534a.89.89,0,0,0-.9-1.536" transform="translate(136.029 22.725)" fill="#f5f5f5"/>
            <path id="Path_2102" data-name="Path 2102" d="M373.8,336.7c-3.609-36.38-5.719-72.9-6.8-109.439-1.1-37.216-1.129-74.461-.283-111.683q.692-30.543,2.178-61.062c.056-1.145-1.726-1.142-1.78,0q-2.655,54.8-2.766,109.682c-.047,37.221.836,74.451,2.959,111.615q1.743,30.486,4.713,60.887c.112,1.129,1.892,1.14,1.78,0" transform="translate(154.384 22.736)" fill="#f5f5f5"/>
            <path id="Path_2103" data-name="Path 2103" d="M372.343,338.573a207.046,207.046,0,0,0,47.567-52.2c12.385-19.69,21.033-41.813,24.285-64.893a181.626,181.626,0,0,0,1.139-35.007,229.486,229.486,0,0,0-4.234-33.812c-4.157-20.341-11.455-40.3-23.083-57.6A112.4,112.4,0,0,0,374.857,56.68c-2.174-1.073-4.385-2.064-6.62-3-1.056-.441-1.516,1.28-.474,1.717a109.155,109.155,0,0,1,45.259,35.667c12.126,16.293,20.028,35.384,24.793,55.043a215.372,215.372,0,0,1,5.219,32.746,201.991,201.991,0,0,1,.289,34.757,161.039,161.039,0,0,1-21.02,65.315,200.459,200.459,0,0,1-44.52,52.93q-3.3,2.8-6.7,5.461c-.9.708.367,1.959,1.259,1.259" transform="translate(155.582 22.715)" fill="#f5f5f5"/>
            <path id="Path_2104" data-name="Path 2104" d="M368.011,55.415c11-.007,21.864,2.937,32.04,6.922a154.454,154.454,0,0,1,32.259,17.516,130.956,130.956,0,0,1,26.145,23.687c8.068,9.824,13.565,21.6,17.478,33.631,8.867,27.262,9.163,56.935,4.378,85.011a182.2,182.2,0,0,1-11.9,41.267C463.02,276,456.019,288.272,446.83,298.442a119.186,119.186,0,0,1-30.2,23.628,123.129,123.129,0,0,1-35.975,13.638q-4.431.884-8.928,1.334c-1.129.112-1.142,1.894,0,1.78a113.826,113.826,0,0,0,36.527-10.462,130.058,130.058,0,0,0,33.092-21.88c20.653-18.951,32.536-46.337,38.6-73.269,6.344-28.19,7.462-58.377.537-86.565-3.242-13.2-8.259-26.552-15.9-37.87-6.477-9.593-14.948-17.8-23.994-24.958a160.969,160.969,0,0,0-32-19.746c-10.39-4.819-21.438-8.624-32.854-9.976a65.2,65.2,0,0,0-7.727-.461.89.89,0,0,0,0,1.78" transform="translate(155.572 22.727)" fill="#f5f5f5"/>
            <path id="Path_2105" data-name="Path 2105" d="M269.813,158.707H553.846a.89.89,0,0,0,0-1.78H269.813a.89.89,0,0,0,0,1.78" transform="translate(113.963 66.494)" fill="#f5f5f5"/>
            <path id="Path_2106" data-name="Path 2106" d="M284.442,102.4H513.834c3.071,0,6.189.157,9.257,0,.132-.007.268,0,.4,0a.89.89,0,0,0,0-1.78H294.1c-3.071,0-6.189-.157-9.257,0-.132.007-.268,0-.4,0a.89.89,0,0,0,0,1.78" transform="translate(120.161 42.607)" fill="#f5f5f5"/>
            <path id="Path_2107" data-name="Path 2107" d="M292.787,215.032H511.2a.89.89,0,0,0,0-1.78H292.787a.89.89,0,0,0,0,1.78" transform="translate(123.697 90.361)" fill="#f5f5f5"/>
            <path id="Path_2108" data-name="Path 2108" d="M141.969,364.944h-97.5a3.113,3.113,0,0,1-3.114-3.112V291.578a5.094,5.094,0,0,1,5.094-5.093h95.515a3.112,3.112,0,0,1,3.112,3.112v72.234a3.112,3.112,0,0,1-3.112,3.112" transform="translate(17.525 121.391)" fill="#ef6856"/>
            <path id="Path_2109" data-name="Path 2109" d="M90.084,287.084v78.067a.89.89,0,0,0,1.78,0V287.084a.89.89,0,0,0-1.78,0" transform="translate(38.171 121.281)" fill="#26244a"/>
            <rect id="Rectangle_490" data-name="Rectangle 490" width="14.441" height="14.441" transform="translate(86.335 407.875)" fill="#dadef1"/>
            <rect id="Rectangle_491" data-name="Rectangle 491" width="14.441" height="14.441" transform="translate(140.901 471.894)" fill="#dadef1"/>
            <path id="Path_2110" data-name="Path 2110" d="M209.361,364.313h-97.5a3.113,3.113,0,0,1-3.114-3.112V290.947a5.093,5.093,0,0,1,5.094-5.093h95.515a3.112,3.112,0,0,1,3.112,3.112V361.2a3.112,3.112,0,0,1-3.112,3.112" transform="translate(46.081 121.124)" fill="#f2a441"/>
            <path id="Path_2111" data-name="Path 2111" d="M157.476,286.453V364.52a.89.89,0,0,0,1.78,0V286.453a.89.89,0,0,0-1.78,0" transform="translate(66.727 121.014)" fill="#26244a"/>
            <rect id="Rectangle_492" data-name="Rectangle 492" width="14.441" height="14.441" transform="translate(182.281 406.978)" fill="#dadef1"/>
            <rect id="Rectangle_493" data-name="Rectangle 493" width="14.441" height="14.441" transform="translate(236.848 470.996)" fill="#dadef1"/>
            <path id="Path_2112" data-name="Path 2112" d="M140.913,420.312h-97.5A3.113,3.113,0,0,1,40.3,417.2V346.946a5.093,5.093,0,0,1,5.094-5.093h95.515a3.113,3.113,0,0,1,3.112,3.112V417.2a3.113,3.113,0,0,1-3.112,3.112" transform="translate(17.078 144.852)" fill="#f2a441"/>
            <path id="Path_2113" data-name="Path 2113" d="M89.027,342.452v78.069a.89.89,0,0,0,1.78,0V342.452a.89.89,0,0,0-1.78,0" transform="translate(37.723 144.742)" fill="#26244a"/>
            <rect id="Rectangle_494" data-name="Rectangle 494" width="14.441" height="14.441" transform="translate(84.83 486.704)" fill="#dadef1"/>
            <rect id="Rectangle_495" data-name="Rectangle 495" width="14.441" height="14.441" transform="translate(139.397 550.723)" fill="#dadef1"/>
            <path id="Path_2114" data-name="Path 2114" d="M40.392,419.154,40.3,344.937a3.243,3.243,0,0,1,3.242-3.242l100.48.223" transform="translate(17.078 144.785)" fill="none" stroke="#26244a" stroke-width="1"/>
            <path id="Path_2115" data-name="Path 2115" d="M209.373,420.312h-97.5a3.113,3.113,0,0,1-3.114-3.112V346.946a5.093,5.093,0,0,1,5.094-5.093h95.515a3.112,3.112,0,0,1,3.112,3.112V417.2a3.112,3.112,0,0,1-3.112,3.112" transform="translate(46.086 144.852)" fill="#f2a441"/>
            <path id="Path_2116" data-name="Path 2116" d="M157.488,342.452v78.069a.89.89,0,0,0,1.78,0V342.452a.89.89,0,0,0-1.78,0" transform="translate(66.732 144.742)" fill="#26244a"/>
            <rect id="Rectangle_496" data-name="Rectangle 496" width="14.441" height="14.441" transform="translate(182.3 486.704)" fill="#dadef1"/>
            <rect id="Rectangle_497" data-name="Rectangle 497" width="14.441" height="14.441" transform="translate(236.865 550.723)" fill="#dadef1"/>
            <path id="Path_2117" data-name="Path 2117" d="M108.852,419.154l-.088-74.217a3.243,3.243,0,0,1,3.242-3.242l100.48.223" transform="translate(46.086 144.785)" fill="none" stroke="#26244a" stroke-width="1"/>
            <path id="Path_2118" data-name="Path 2118" d="M248.412,402.2H35.964a2.585,2.585,0,1,1,0-5.17H248.412a2.585,2.585,0,1,1,0,5.17" transform="translate(14.144 168.232)" fill="#545dbf"/>
            <path id="Path_2119" data-name="Path 2119" d="M248.412,420.336H35.964a2.585,2.585,0,1,1,0-5.17H248.412a2.585,2.585,0,1,1,0,5.17" transform="translate(14.144 175.917)" fill="#545dbf"/>
            <rect id="Rectangle_498" data-name="Rectangle 498" width="26.474" height="22.135" transform="translate(51.076 568.948)" fill="#545dbf"/>
            <rect id="Rectangle_499" data-name="Rectangle 499" width="26.474" height="22.135" transform="translate(143.519 568.948)" fill="#545dbf"/>
            <rect id="Rectangle_500" data-name="Rectangle 500" width="26.474" height="22.135" transform="translate(235.963 568.948)" fill="#545dbf"/>
            <path id="Path_2120" data-name="Path 2120" d="M35.719,402.1H247.784a.89.89,0,0,0,0-1.78H35.719a.89.89,0,0,0,0,1.78" transform="translate(14.771 169.628)" fill="#26244a"/>
            <path id="Path_2121" data-name="Path 2121" d="M35.719,416.321H247.784a.89.89,0,0,0,0-1.78H35.719a.89.89,0,0,0,0,1.78" transform="translate(14.771 175.652)" fill="#26244a"/>
            <path id="Path_2122" data-name="Path 2122" d="M43.123,287H240.11a.89.89,0,0,0,0-1.78H43.123a.89.89,0,0,0,0,1.78" transform="translate(17.908 120.857)" fill="#26244a"/>
            <path id="Path_2123" data-name="Path 2123" d="M109.979,364.151V286.1a.89.89,0,0,0-1.78,0v78.047a.89.89,0,0,0,1.78,0" transform="translate(45.847 120.866)" fill="#26244a"/>
            <path id="Path_2124" data-name="Path 2124" d="M331.848,399.8c0,15.25-6.166,34.648-15.328,44.194-4.271,4.449-17.244,3.932-27.273,3.932-23.529,0-42.6-21.547-42.6-48.126s19.074-48.126,42.6-48.126c1.79,0,16.891-.233,18.624.01,21.033,2.94,23.977,23.56,23.977,48.116" transform="translate(104.51 148.972)" fill="#26244a"/>
            <path id="Path_2125" data-name="Path 2125" d="M344.929,399.779c0,26.58-19.074,48.126-42.6,48.126s-42.6-21.547-42.6-48.126,19.074-48.126,42.6-48.126,42.6,21.547,42.6,48.126" transform="translate(110.053 149.005)" fill="#545dbf"/>
            <path id="Path_2126" data-name="Path 2126" d="M313.816,391.881c0,11.922-8.339,21.588-18.624,21.588s-18.625-9.666-18.625-21.588,8.339-21.588,18.625-21.588,18.624,9.666,18.624,21.588" transform="translate(117.189 156.903)" fill="#b8c1ea"/>
            <rect id="Rectangle_501" data-name="Rectangle 501" width="184.766" height="14.36" transform="translate(294.763 549.288)" fill="#26244a"/>
            <rect id="Rectangle_502" data-name="Rectangle 502" width="677.153" height="85.024" transform="translate(259.516 467.348)" fill="#26244a"/>
            <path id="Path_2127" data-name="Path 2127" d="M663.339,400.285c0,15.25-6.166,34.648-15.328,44.194-4.271,4.449-17.244,3.932-27.273,3.932-23.529,0-42.6-21.547-42.6-48.126s19.074-48.126,42.6-48.126c1.79,0,16.891-.233,18.624.01,21.033,2.94,23.977,23.56,23.977,48.116" transform="translate(244.972 149.176)" fill="#26244a"/>
            <path id="Path_2128" data-name="Path 2128" d="M676.42,400.262c0,26.58-19.074,48.126-42.6,48.126s-42.6-21.547-42.6-48.126,19.074-48.126,42.6-48.126,42.6,21.547,42.6,48.126" transform="translate(250.514 149.209)" fill="#545dbf"/>
            <path id="Path_2129" data-name="Path 2129" d="M645.307,392.364c0,11.922-8.339,21.588-18.624,21.588s-18.624-9.666-18.624-21.588,8.337-21.588,18.624-21.588,18.624,9.666,18.624,21.588" transform="translate(257.651 157.108)" fill="#b8c1ea"/>
            <path id="Path_2130" data-name="Path 2130" d="M723.579,328.12c-3.037-9.684-11.862-16.417-21.948-17.555L641.653,303.8l-33.159-67a20.608,20.608,0,0,0-4.577-6.088c-5.926-5.4-18.328-4.532-22.891-4.549-15.242-.056-37.131-.1-37.131,0V445.754h49.571c6.64,0,10.551-16.884,11.689-22.63.054-.269.083-.421.1-.508s.039-.164.063-.272c4.518-19.776,10.608-22.6,14.022-26.34,7.116-7.789,20.271-10.158,29.856-10.158,41.446-2.372,49.531,33.1,49.531,33.1l3.593,19.991H724.8V336.082a26.592,26.592,0,0,0-1.217-7.963" transform="translate(230.463 95.804)" fill="#ef6856"/>
            <rect id="Rectangle_503" data-name="Rectangle 503" width="180.9" height="21.013" transform="translate(774.359 443.131)" fill="#f2a441"/>
            <path id="Path_2131" data-name="Path 2131" d="M544.152,423.265h47.179a.9.9,0,0,0,.89-.89,58.266,58.266,0,0,1,2.3-16.662c3-11.01,9.182-21.243,19.065-27.327,7.563-4.656,16.406-6.46,25.2-6.615a.9.9,0,0,0,.89-.89l-.034-38.461q-.011-9.892-.019-19.783a8.2,8.2,0,0,0-.167-2.7,34.1,34.1,0,0,0-1.784-3.554l-20.9-41.694q-4.286-8.544-8.571-17.09c-.527-1.052-1.024-2.129-1.614-3.148-3.065-5.295-8.488-8.79-14.259-10.51-6.546-1.949-13.8-1.314-20.56-1.314H547.353a.89.89,0,0,0,0,1.78c11.855,0,23.712-.023,35.57,0,9.377.019,18.669,3.994,23.01,12.653l7.214,14.387q10.723,21.382,21.443,42.766,1.4,2.787,2.795,5.574c.181.362.367.72.544,1.085-.215-.444-.056-.436-.1.13-.134,1.9,0,3.854.007,5.756q0,5.247.008,10.494.019,21.386.039,42.772c0,.288,0,.574,0,.86q.444-.444.89-.89c-14.753.259-28.846,5.553-37.776,17.706-5.978,8.139-9.092,18.161-10.194,28.12a47.886,47.886,0,0,0-.367,6.558l.89-.89H544.152a.89.89,0,0,0,0,1.78" transform="translate(230.207 98.528)" fill="#26244a"/>
            <path id="Path_2132" data-name="Path 2132" d="M547.089,296.508q.94-25.033,1.881-50.065c.09-2.4.292-5.06,1.969-6.684,1.587-1.536,3.965-1.623,6.122-1.623l19.2-.006c5.42,0,11.1.061,15.869,2.762,4.723,2.674,8.124,7.392,10.822,12.264,9.837,17.755,15.59,30.068,23.036,45.377,2.718,5.59-1.068,12.244-7.039,12.314-19.556.226-43.687,1.765-60.241.618-3-.208-6.232-.517-8.511-2.58-3.191-2.886-3.277-7.956-3.111-12.376" transform="translate(231.795 100.902)" fill="#dadef1"/>
            <g id="Group_876" data-name="Group 876" transform="translate(782.788 363.264)" opacity="0.5">
              <g id="Group_875" data-name="Group 875">
                <g id="Group_874" data-name="Group 874" clip-path="url(#clip-path-3)">
                  <path id="Path_2133" data-name="Path 2133" d="M617.079,275.3l-33.67,28.846c-9.471.169-29.628,1.622-33.594-1.855l56.948-47.144Z" transform="translate(-549.816 -255.15)" fill="#fff"/>
                </g>
              </g>
            </g>
            <g id="Group_879" data-name="Group 879" transform="translate(778.836 346.27)" opacity="0.5">
              <g id="Group_878" data-name="Group 878">
                <g id="Group_877" data-name="Group 877" clip-path="url(#clip-path-4)">
                  <path id="Path_2134" data-name="Path 2134" d="M602.955,251,547.04,298.352l.4-13.345,50.141-41.793Z" transform="translate(-547.04 -243.214)" fill="#fff"/>
                </g>
              </g>
            </g>
            <path id="Path_2135" data-name="Path 2135" d="M598.652,296.394V272.471l6.133,12.647a2.333,2.333,0,0,1,.232,1.014v7.942a2.321,2.321,0,0,1-2.321,2.321Z" transform="translate(253.665 115.453)" fill="#26244a"/>
            <path id="Path_2136" data-name="Path 2136" d="M588.2,272.7c2.255,2.328,4.223,5.016,6.3,7.5q4.771,5.725,9.535,11.461,1.087,1.307,2.173,2.615c.733.881,1.986-.383,1.259-1.259q-7.776-9.365-15.577-18.709c-.8-.954-1.559-1.976-2.426-2.87-.8-.824-2.056.436-1.259,1.259" transform="translate(249.126 114.904)" fill="#26244a"/>
            <path id="Path_2137" data-name="Path 2137" d="M582.271,270.483v19.6a4.132,4.132,0,0,0,3.863,4.358h6.7a4.134,4.134,0,0,0,3.865-4.358V270.807a4.161,4.161,0,0,0-3.7-4.355l-6.7-.323a4.108,4.108,0,0,0-4.028,4.355" transform="translate(246.724 112.764)" fill="#ef6856"/>
            <path id="Path_2138" data-name="Path 2138" d="M656.588,285.69S653.4,301.318,659.7,304.2s17.126,1.216,17.126,1.216-2.344-18.03-20.235-19.729" transform="translate(277.872 121.055)" fill="#f2a441"/>
            <path id="Path_2139" data-name="Path 2139" d="M683.3,402.757H659.24l-11.618-51.582H683.3a8.51,8.51,0,0,1,8.51,8.51v34.562a8.51,8.51,0,0,1-8.51,8.51" transform="translate(274.415 148.802)" fill="#26244a"/>
            <path id="Path_2140" data-name="Path 2140" d="M675.975,347.945H665.382a6.268,6.268,0,0,1,0-12.536h10.592Z" transform="translate(279.285 142.122)" fill="#dadef1"/>
            <rect id="Rectangle_506" data-name="Rectangle 506" width="142.77" height="278.877" transform="translate(226.701 266.976)" fill="#b8c1ea"/>
            <path id="Path_2141" data-name="Path 2141" d="M259.51,459.5V187.569H648.629a17.776,17.776,0,0,1,17.777,17.777V459.5H477.729v-6.2A49.527,49.527,0,0,0,428.2,403.773H398.373c-19.852,0-31.456,13.3-33.831,33.008L356.869,459.5Z" transform="translate(109.961 79.478)" fill="#dadef1"/>
            <rect id="Rectangle_507" data-name="Rectangle 507" width="119.846" height="87.585" transform="translate(239.079 287.88)" fill="#545dbf"/>
            <rect id="Rectangle_508" data-name="Rectangle 508" width="119.846" height="153.27" transform="translate(239.079 375.465)" fill="#545dbf"/>
            <path id="Path_2142" data-name="Path 2142" d="M287.772,304.725l-119.847-41H287.772Z" transform="translate(71.154 111.745)" fill="#26244a"/>
            <path id="Path_2143" data-name="Path 2143" d="M259.489,363.319a2.548,2.548,0,1,1-2.548-2.548,2.549,2.549,0,0,1,2.548,2.548" transform="translate(107.793 152.868)" fill="#f2a441"/>
            <path id="Path_2144" data-name="Path 2144" d="M259.489,368.621a2.548,2.548,0,1,1-2.548-2.548,2.549,2.549,0,0,1,2.548,2.548" transform="translate(107.793 155.115)" fill="#f2a441"/>
            <path id="Path_2145" data-name="Path 2145" d="M259.489,373.923a2.548,2.548,0,1,1-2.548-2.548,2.548,2.548,0,0,1,2.548,2.548" transform="translate(107.793 157.361)" fill="#f2a441"/>
            <path id="Path_2146" data-name="Path 2146" d="M166.681,363.319a2.548,2.548,0,1,1-2.548-2.548,2.549,2.549,0,0,1,2.548,2.548" transform="translate(68.467 152.868)" fill="#f2a441"/>
            <path id="Path_2147" data-name="Path 2147" d="M166.681,368.621a2.548,2.548,0,1,1-2.548-2.548,2.549,2.549,0,0,1,2.548,2.548" transform="translate(68.467 155.115)" fill="#f2a441"/>
            <path id="Path_2148" data-name="Path 2148" d="M166.681,373.923a2.548,2.548,0,1,1-2.548-2.548,2.548,2.548,0,0,1,2.548,2.548" transform="translate(68.467 157.361)" fill="#f2a441"/>
            <path id="Path_2149" data-name="Path 2149" d="M168.936,251.468H287.169a.89.89,0,0,0,0-1.78H168.936a.89.89,0,0,0,0,1.78" transform="translate(71.218 105.8)" fill="#26244a"/>
            <path id="Path_2150" data-name="Path 2150" d="M168.936,237.228H287.169a.89.89,0,0,0,0-1.78H168.936a.89.89,0,0,0,0,1.78" transform="translate(71.218 99.766)" fill="#26244a"/>
            <path id="Path_2151" data-name="Path 2151" d="M168.936,222.987H287.169a.89.89,0,0,0,0-1.78H168.936a.89.89,0,0,0,0,1.78" transform="translate(71.218 93.731)" fill="#26244a"/>
            <path id="Path_2152" data-name="Path 2152" d="M168.559,209.706H286.792a.89.89,0,0,0,0-1.78H168.559a.89.89,0,0,0,0,1.78" transform="translate(71.059 88.104)" fill="#26244a"/>
            <rect id="Rectangle_509" data-name="Rectangle 509" width="123.921" height="8.517" transform="translate(235.005 528.735)" fill="#dadef1"/>
            <path id="Path_2153" data-name="Path 2153" d="M419.085,399.228c0,15.25-6.166,34.648-15.328,44.194-4.271,4.449-17.244,3.932-27.273,3.932-23.529,0-42.6-21.547-42.6-48.126s19.074-48.126,42.6-48.126c1.79,0,16.891-.233,18.624.01,21.033,2.941,23.977,23.56,23.977,48.116" transform="translate(141.475 148.729)" fill="#26244a"/>
            <path id="Path_2154" data-name="Path 2154" d="M432.166,399.2c0,26.58-19.074,48.126-42.6,48.126s-42.6-21.547-42.6-48.126,19.074-48.126,42.6-48.126,42.6,21.547,42.6,48.126" transform="translate(147.018 148.761)" fill="#545dbf"/>
            <path id="Path_2155" data-name="Path 2155" d="M401.053,391.306c0,11.922-8.339,21.588-18.624,21.588s-18.624-9.666-18.624-21.588,8.337-21.588,18.624-21.588,18.624,9.666,18.624,21.588" transform="translate(154.154 156.659)" fill="#b8c1ea"/>
            <path id="Path_2156" data-name="Path 2156" d="M273.553,394.656h-97.5a3.113,3.113,0,0,1-3.114-3.112V321.29a5.093,5.093,0,0,1,5.094-5.093h95.515a3.112,3.112,0,0,1,3.112,3.112v72.234a3.112,3.112,0,0,1-3.112,3.112" transform="translate(73.281 133.981)" fill="#f2a441"/>
            <path id="Path_2157" data-name="Path 2157" d="M221.667,316.8v78.069a.89.89,0,0,0,1.78,0V316.8a.89.89,0,0,0-1.78,0" transform="translate(93.926 133.871)" fill="#26244a"/>
            <rect id="Rectangle_510" data-name="Rectangle 510" width="14.441" height="14.441" transform="translate(273.673 450.178)" fill="#dadef1"/>
            <rect id="Rectangle_511" data-name="Rectangle 511" width="14.441" height="14.441" transform="translate(328.24 514.196)" fill="#dadef1"/>
            <path id="Path_2158" data-name="Path 2158" d="M223.782,260.03H203.917a2.322,2.322,0,1,1,0-4.644h19.865a2.322,2.322,0,1,1,0,4.644" transform="translate(85.421 108.214)" fill="#26244a"/>
            <path id="Path_2159" data-name="Path 2159" d="M260.637,289.95c21.276.374,39.135-13.891,53.185-28.453,15.765-16.342,27.763-35.886,43.711-52.086,8.558-8.69,18.335-16.5,29.884-20.761,1.065-.393.605-2.114-.473-1.716-19.892,7.346-34.487,24.233-47.355,40.367-14.165,17.758-27.405,36.4-46.233,49.638-9.693,6.815-20.712,11.441-32.72,11.23a.89.89,0,0,0,0,1.78" transform="translate(110.075 79.184)" fill="#fff"/>
            <path id="Path_2160" data-name="Path 2160" d="M418.628,188.7c-17.832,15.308-35.133,31.245-51.567,48.051A584.182,584.182,0,0,0,321.1,289.481q-10.706,13.954-20.388,28.654c-6.3,9.592-12.4,19.509-16.105,30.434-3.245,9.565-4.419,19.783-1.943,29.665,2.133,8.508,6.815,16.611,14.111,21.679,8.715,6.054,19.948,6.394,29.824,3.276,10.724-3.387,19.623-10.621,27.548-18.37,17.129-16.754,32.667-35.041,50.443-51.157,17.284-15.67,36.692-29.511,58.824-37.393a106.846,106.846,0,0,1,33.338-6.457c9.011-.2,19.656,1.351,25.858,8.6,7.668,8.965,3.781,21.619-1.24,30.834-5.386,9.886-12.647,18.94-20.1,27.33-15.086,16.975-32.689,31.483-50.606,45.344q-6.77,5.236-13.6,10.395c-.9.685-.014,2.231.9,1.538,17.98-13.659,36.009-27.392,52.227-43.155a222.221,222.221,0,0,0,22.435-25.153c6.477-8.561,13.2-17.979,15.442-28.678,1.982-9.458-.935-18.961-9.461-24.1-8.132-4.9-18.3-5.194-27.491-4.429-22.456,1.868-43.66,11.215-62.178,23.714-19.78,13.35-36.681,30.407-53.075,47.612-8.178,8.582-16.138,17.442-24.741,25.6-8.414,7.981-18.083,15.127-29.69,17.408-10.671,2.1-21.575-.672-28.907-8.922-6.272-7.056-9.317-16.752-9.454-26.09-.168-11.475,4.112-22.619,9.449-32.591,5.513-10.3,12.2-20.013,18.941-29.534a540.349,540.349,0,0,1,44.933-55c15.981-17.234,32.922-33.564,50.471-49.193q6.462-5.755,13.03-11.386c.87-.747-.393-2-1.259-1.259" transform="translate(119.208 79.862)" fill="#fff"/>
            <path id="Path_2161" data-name="Path 2161" d="M425.05,419.141a143.408,143.408,0,0,1,84.443-64.728c7.725-2.24,15.556-4.139,23.158-6.786a77.027,77.027,0,0,0,20.5-10.332,77.81,77.81,0,0,0,15.3-15.164c5.507-7.11,9.78-15,14.094-22.859,4.654-8.488,9.2-17.036,13.984-25.452a.891.891,0,0,0-1.538-.9c-4.224,7.432-8.26,14.968-12.354,22.472-3.934,7.213-7.752,14.559-12.423,21.33a82.612,82.612,0,0,1-15.2,16.878,71.082,71.082,0,0,1-21.094,11.689c-14.316,5.234-29.384,7.878-43.408,13.991a144.942,144.942,0,0,0-35.579,22.26,152.4,152.4,0,0,0-31.417,36.7c-.6.979.938,1.875,1.536.9" transform="translate(179.396 115.46)" fill="#fff"/>
            <path id="Path_2162" data-name="Path 2162" d="M430.166,188.9c-11.713,11.005-25.93,25.879-20.65,43.569,2.311,7.744,8.7,13.127,15.618,16.781a78.084,78.084,0,0,0,24.518,7.862c18.2,2.816,36.658.333,54.507-3.527,19.33-4.18,38.513-10.255,58.282-12.048,9.288-.843,20.818-.628,28.264,5.854,6.3,5.48,8.29,14.456,10.546,22.12a.89.89,0,0,0,1.716-.474c-1.97-6.694-3.729-13.947-7.991-19.625-4.438-5.913-11.512-8.561-18.647-9.526-8.887-1.2-17.942.125-26.7,1.663-9.633,1.69-19.145,3.994-28.648,6.29-18.289,4.418-36.771,8.826-55.7,8.706a94.609,94.609,0,0,1-26.51-3.695c-8.014-2.393-16.522-6-22.387-12.161-7.043-7.406-7.385-17.972-3.71-27.1,3.8-9.436,11.5-16.615,18.76-23.436.836-.786-.424-2.043-1.259-1.259" transform="translate(173.042 79.936)" fill="#fff"/>
            <path id="Path_2163" data-name="Path 2163" d="M260.22,354.8a154.207,154.207,0,0,1,24.218-5.251c7.452-.948,15.019-1.246,22.394.429,6.647,1.511,13.051,4.532,17.821,9.486a87.825,87.825,0,0,1,10.756,14.474,122.678,122.678,0,0,1,9.009,16.712c.45,1.051,1.983.144,1.536-.9a120.7,120.7,0,0,0-8.334-15.627,99.792,99.792,0,0,0-10.88-15.032c-9.895-10.865-25.189-13.058-39.135-11.682a150.781,150.781,0,0,0-27.857,5.674.89.89,0,0,0,.473,1.716" transform="translate(109.797 147.051)" fill="#fff"/>
            <path id="Path_2164" data-name="Path 2164" d="M464.348,394.248a127.69,127.69,0,0,1,65.6-33.442c8.189-1.474,16.515-2.03,24.759-3.119,8.863-1.172,17.765-2.775,26-6.385,1.047-.46.142-1.993-.9-1.538-15.465,6.785-32.8,6.33-49.173,9.123a129.33,129.33,0,0,0-67.546,34.1c-.829.794.431,2.052,1.259,1.259" transform="translate(196.109 148.169)" fill="#fff"/>
            <path id="Path_2165" data-name="Path 2165" d="M158.577,406.1c10.684-.337,21.417-.027,32.1.024q31.746.154,63.491.389,33.956.231,67.912.477,23.133.164,46.267.3c6.978.033,13.91-.038,20.8-1.431,9.345-1.891,17.724-6.683,22.825-14.909,4.273-6.891,5.712-15.628,8.839-22.575,3.225-7.166,7.863-13.424,15.351-16.525,8.542-3.538,18.406-3.336,27.478-3.451s18.81-.065,27.1,4.15A33.09,33.09,0,0,1,500.2,359.6c2.662,2.879,4.375,6.464,6.014,10.144.041.09.531,1.219.172.369.118.279.232.561.345.844.242.6.478,1.21.7,1.82.55,1.478,1.046,2.974,1.558,4.465.7,2.054,1.4,4.095,2.241,6.094a44.57,44.57,0,0,0,8.591,13.544,23.2,23.2,0,0,0,16.82,7.591c1.814.009,3.628-.024,5.441-.036q25.8-.177,51.6-.359l68.188-.478,43.294-.3,2.184-.016c8.343-.058,8.363-13.031,0-12.973l-31.2.221q-33,.231-66,.463-29.6.207-59.207.411c-4.785.034-9.575.124-14.36.1-.135,0-.271,0-.4,0-.31,0-.618-.021-.928-.03-1.038-.027.923.229-.065,0-.672-.159-1.323-.332-1.978-.554,1.123.38-.95-.521-1.306-.739-.312-.191-1.72-1.249-.8-.5a22.067,22.067,0,0,1-1.707-1.556c-.474-.475-.911-.98-1.361-1.476-.191-.211-.367-.436-.547-.655.878,1.069-.239-.336-.33-.464a42.126,42.126,0,0,1-3.6-6.189c-.2-.414-.37-.84-.574-1.25-.476-.958.564,1.606.205.487-.13-.406-.309-.814-.454-1.214-2.544-7.028-4.654-14.482-8.673-20.853-5.06-8.018-12.8-13.78-21.525-17.263-9.4-3.75-19.9-3.949-29.881-3.794-9.768.152-20.112.276-29.386,3.7A40.545,40.545,0,0,0,412.333,356.6c-4.448,7.382-6.141,15.668-9.364,23.541a21.374,21.374,0,0,1-6.02,8.638,25.229,25.229,0,0,1-10.393,4.391,61.382,61.382,0,0,1-13.323,1.166c-12.255,0-24.512-.132-36.768-.218q-32.649-.226-65.3-.461-33.529-.235-67.059-.434c-14-.08-28.012-.206-42.017-.138-1.172.006-2.345.006-3.515.043-8.327.262-8.364,13.235,0,12.972" transform="translate(64.541 142.122)" fill="#b8c1ea"/>
            <path id="Path_2166" data-name="Path 2166" d="M618.766,245.585a6.034,6.034,0,1,1-6.035-6.034,6.035,6.035,0,0,1,6.035,6.034" transform="translate(257.074 101.504)" fill="#dadef1"/>
            <path id="Path_2167" data-name="Path 2167" d="M489.139,127.563a6.034,6.034,0,1,1-6.035-6.035,6.034,6.034,0,0,1,6.035,6.035" transform="translate(202.147 51.495)" fill="#dadef1"/>
            <path id="Path_2168" data-name="Path 2168" d="M681.068,263.872l-108.2-.211a11.448,11.448,0,0,1-11.426-11.471l.406-208.758A11.449,11.449,0,0,1,573.32,32.005l108.2.211a11.449,11.449,0,0,1,11.427,11.471l-.407,208.758a11.449,11.449,0,0,1-11.471,11.427" transform="translate(237.898 13.561)" fill="#26244a"/>
            <rect id="Rectangle_512" data-name="Rectangle 512" width="174.739" height="119.385" transform="translate(804.99 241.262) rotate(-89.889)" fill="#fff"/>
            <path id="Path_2169" data-name="Path 2169" d="M627.567,41.864l-29.988-.347a1.193,1.193,0,0,1-1.179-1.207l0-.261a1.192,1.192,0,0,1,1.206-1.179l29.988.347a1.194,1.194,0,0,1,1.18,1.206l0,.262a1.194,1.194,0,0,1-1.207,1.179" transform="translate(252.711 16.47)" fill="#545dbf"/>
            <path id="Path_2170" data-name="Path 2170" d="M622.922,184.764a11.285,11.285,0,1,1-11.154-11.415,11.286,11.286,0,0,1,11.154,11.415" transform="translate(254.386 73.452)" fill="#545dbf"/>
            <path id="Path_2171" data-name="Path 2171" d="M661.534,153.032l-79.981-.155a3.113,3.113,0,0,1-3.107-3.119l.111-57a5.091,5.091,0,0,1,5.1-5.083l78,.152a3.111,3.111,0,0,1,3.107,3.118l-.114,58.985a3.114,3.114,0,0,1-3.119,3.107" transform="translate(245.104 37.148)" fill="#f2a441"/>
            <path id="Path_2172" data-name="Path 2172" d="M618.959,88.284q-.064,32.442-.127,64.885a.89.89,0,0,0,1.78,0q.064-32.442.127-64.885a.89.89,0,0,0-1.78,0" transform="translate(262.216 37.044)" fill="#26244a"/>
            <rect id="Rectangle_513" data-name="Rectangle 513" width="12.002" height="12.002" transform="translate(846.46 136.853) rotate(-89.884)" fill="#dadef1"/>
            <rect id="Rectangle_514" data-name="Rectangle 514" width="12.003" height="12.002" transform="matrix(0.002, -1, 1, 0.002, 891.709, 190.151)" fill="#dadef1"/>
            <path id="Path_2173" data-name="Path 2173" d="M649.293,131.481A30.055,30.055,0,1,1,613.2,109.026a30.055,30.055,0,0,1,36.089,22.455" transform="translate(249.982 45.863)" fill="#5bc55c"/>
            <path id="Path_2174" data-name="Path 2174" d="M601.168,134.044l8.79,9.785a3.59,3.59,0,0,0,5.034,0l13.461-14.6q.95-1.032,1.9-2.063a3.634,3.634,0,0,0,0-5.033,3.6,3.6,0,0,0-5.034,0q-6.732,7.3-13.461,14.6l-1.9,2.062h5.034l-8.79-9.785a3.56,3.56,0,0,0-5.034,5.034" transform="translate(254.3 51.314)" fill="#fff"/>
            <path id="Path_2175" data-name="Path 2175" d="M582.973,73.65H659.12a.89.89,0,0,0,0-1.78H582.973a.89.89,0,0,0,0,1.78" transform="translate(246.657 30.453)" fill="#26244a"/>
            <path id="Path_2176" data-name="Path 2176" d="M601.332,67.509H625.2a.89.89,0,0,0,0-1.78H601.332a.89.89,0,0,0,0,1.78" transform="translate(254.436 27.851)" fill="#26244a"/>
            <path id="Path_2177" data-name="Path 2177" d="M223.683,76.771a15.488,15.488,0,0,0-1.669,19.078,16.249,16.249,0,0,0,7.495,6.291,12.981,12.981,0,0,0,2.217.644l14.327,3.087a3.565,3.565,0,0,0,4.314-3.566l-.238-10.452c-.02-.987-.11-2.88-.221-4.573a15.807,15.807,0,0,0-3.286-8.854c-.014-.019-.03-.038-.046-.057-5.819-7.215-16.463-8.131-22.894-1.6m16.174,14.976a6.559,6.559,0,0,1-11.044-1.407,6.492,6.492,0,0,1,.6-6.874,6.671,6.671,0,0,1,10.447,8.28" transform="translate(93.008 30.665)" fill="#dadef1"/>
            <path id="Path_2178" data-name="Path 2178" d="M652.934,226.064c-8.924,1.009-16.2,8.538-17.214,17.824a21.036,21.036,0,0,0,2.413,12.429,16.91,16.91,0,0,0,1.7,2.453l11.894,14.77a4.613,4.613,0,0,0,7.242-.073l8.272-10.7c.783-1.009,2.235-2.987,3.5-4.778a20.449,20.449,0,0,0,3.907-11.579c0-.031,0-.064,0-.1.023-11.993-9.933-21.582-21.72-20.247M657,254.292c-6.052,1.384-11.313-4.113-9.959-10.409a8.4,8.4,0,0,1,6.2-6.427c6.054-1.384,11.314,4.115,9.96,10.41a8.4,8.4,0,0,1-6.2,6.425" transform="translate(269.316 95.737)" fill="#dadef1"/>
            <path id="Path_2179" data-name="Path 2179" d="M710.294,86.152c2.853-3.816.8-9.918-3.458-12.049s-9.7-.732-13.192,2.51c3.122-3.309,1.486-9.334-2.448-11.62s-9.086-1.419-12.956.974-6.734,6.078-9.512,9.683c.151-2.613-2.352-4.866-4.963-5.04s-5.022,1.4-6.793,3.326A43.621,43.621,0,0,0,649.227,86.7Z" transform="translate(275.095 26.973)" fill="#b8c1ea"/>
            <path id="Path_2180" data-name="Path 2180" d="M518.507,54.323c2.853-3.816.8-9.918-3.458-12.049s-9.7-.732-13.192,2.511c3.122-3.31,1.486-9.335-2.447-11.622s-9.086-1.419-12.956.974-6.734,6.079-9.512,9.683c.151-2.613-2.352-4.866-4.963-5.04s-5.021,1.4-6.793,3.326a43.607,43.607,0,0,0-7.745,12.767Z" transform="translate(193.83 13.487)" fill="#dadef1"/>
            <path id="Path_2181" data-name="Path 2181" d="M148.016,29.216c2.852-3.816.8-9.918-3.458-12.049s-9.7-.732-13.192,2.511c3.122-3.31,1.486-9.335-2.447-11.622s-9.086-1.419-12.956.974-6.734,6.078-9.512,9.683c.151-2.613-2.352-4.866-4.963-5.04s-5.021,1.4-6.793,3.326a43.639,43.639,0,0,0-7.745,12.767Z" transform="translate(36.843 2.848)" fill="#f5f5f5"/>
            <path id="Path_2182" data-name="Path 2182" d="M613.17,22.493c2.853-3.814.8-9.916-3.458-12.048s-9.7-.732-13.192,2.51c3.122-3.309,1.486-9.334-2.447-11.62s-9.086-1.419-12.956.974-6.734,6.078-9.512,9.683c.151-2.613-2.352-4.866-4.963-5.04s-5.022,1.4-6.793,3.326A43.609,43.609,0,0,0,552.1,23.044Z" transform="translate(233.941 0)" fill="#f5f5f5"/>
            <path id="Path_2183" data-name="Path 2183" d="M432.853,24.184c2.853-3.816.8-9.918-3.458-12.049s-9.7-.732-13.192,2.511c3.122-3.31,1.486-9.335-2.447-11.622S404.668,1.6,400.8,4s-6.734,6.078-9.512,9.681c.151-2.613-2.352-4.866-4.963-5.04s-5.022,1.4-6.793,3.326a43.606,43.606,0,0,0-7.745,12.767Z" transform="translate(157.536 0.716)" fill="#f5f5f5"/>
            <path id="Path_2184" data-name="Path 2184" d="M536.755,179.173c2.852-3.816.8-9.918-3.458-12.049s-9.7-.732-13.192,2.51c3.122-3.309,1.486-9.334-2.447-11.62s-9.086-1.419-12.956.975-6.734,6.076-9.512,9.681c.151-2.613-2.352-4.866-4.963-5.04s-5.021,1.4-6.793,3.326a43.639,43.639,0,0,0-7.745,12.767Z" transform="translate(201.562 66.389)" fill="#f5f5f5"/>
            <path id="Path_2185" data-name="Path 2185" d="M258.541,47.5c2.852-3.816.8-9.918-3.458-12.049s-9.7-.732-13.192,2.511c3.122-3.31,1.486-9.335-2.447-11.622s-9.086-1.419-12.956.975-6.734,6.076-9.512,9.681c.151-2.613-2.352-4.866-4.963-5.04s-5.021,1.4-6.793,3.326a43.608,43.608,0,0,0-7.745,12.767Z" transform="translate(83.675 10.595)" fill="#b8c1ea"/>
            <path id="Path_2186" data-name="Path 2186" d="M70.713,89.472c2.853-3.816.8-9.918-3.458-12.049s-9.7-.732-13.192,2.511c3.122-3.31,1.486-9.335-2.447-11.622s-9.086-1.419-12.956.975-6.734,6.076-9.512,9.681c.151-2.613-2.352-4.866-4.963-5.04s-5.021,1.4-6.793,3.326A43.607,43.607,0,0,0,9.647,90.021Z" transform="translate(4.088 28.38)" fill="#b8c1ea"/>
            <path id="Path_2187" data-name="Path 2187" d="M309.4,4.685C296.7,9.631,288.948,23.5,291.06,37.517a31.91,31.91,0,0,0,8.364,17.3,25.585,25.585,0,0,0,3.451,2.937l23.184,17.055a7,7,0,0,0,10.6-2.916l7.984-18.916c.755-1.785,2.118-5.249,3.282-8.37A31.029,31.029,0,0,0,349.162,26.1c-.011-.047-.024-.093-.036-.14-4.62-17.607-22.95-27.813-39.728-21.28m16.924,39.842c-8.343,4.379-18.2-1.646-18.652-11.408a12.756,12.756,0,0,1,6.6-11.834c8.343-4.379,18.2,1.646,18.652,11.408a12.753,12.753,0,0,1-6.6,11.834" transform="translate(123.184 1.143)" fill="#4092e2"/>
            <path id="Path_2188" data-name="Path 2188" d="M519.269,367.1H455.654a3.113,3.113,0,0,1-3.112-3.112V319.365a5.093,5.093,0,0,1,5.093-5.093h61.635a3.112,3.112,0,0,1,3.112,3.112V363.99a3.112,3.112,0,0,1-3.112,3.112" transform="translate(191.754 133.165)" fill="#f2a441"/>
            <path id="Path_2189" data-name="Path 2189" d="M485.146,314.759v52.567a.89.89,0,0,0,1.78,0V314.759a.89.89,0,0,0-1.78,0" transform="translate(205.569 133.008)" fill="#26244a"/>
            <rect id="Rectangle_515" data-name="Rectangle 515" width="9.724" height="9.724" transform="translate(662.778 447.437)" fill="#dadef1"/>
            <rect id="Rectangle_516" data-name="Rectangle 516" width="9.724" height="9.724" transform="translate(699.52 490.544)" fill="#dadef1"/>
            <path id="Path_2190" data-name="Path 2190" d="M452.6,366.323l-.058-49.974a2.182,2.182,0,0,1,2.181-2.183l67.658.151" transform="translate(191.754 133.121)" fill="none" stroke="#26244a" stroke-width="1"/>
            <path id="Path_2191" data-name="Path 2191" d="M558.265,447.524h-120.2a3.113,3.113,0,0,1-3.112-3.112V356.981a5.092,5.092,0,0,1,5.093-5.093H558.265A3.112,3.112,0,0,1,561.377,355v89.411a3.112,3.112,0,0,1-3.112,3.112" transform="translate(184.3 149.104)" fill="#f2a441"/>
            <path id="Path_2192" data-name="Path 2192" d="M494.476,352.562v95.159a.89.89,0,0,0,1.78,0V352.562a.89.89,0,0,0-1.78,0" transform="translate(209.523 149.026)" fill="#26244a"/>
            <rect id="Rectangle_517" data-name="Rectangle 517" width="17.602" height="17.602" transform="translate(652.706 500.994)" fill="#dadef1"/>
            <rect id="Rectangle_518" data-name="Rectangle 518" width="17.602" height="17.602" transform="translate(719.218 579.027)" fill="#dadef1"/>
            <path id="Path_2193" data-name="Path 2193" d="M435.056,446.113l-.107-90.466A3.95,3.95,0,0,1,438.9,351.7l122.479.273" transform="translate(184.3 149.023)" fill="none" stroke="#26244a" stroke-width="1"/>
            <path id="Path_2194" data-name="Path 2194" d="M9.875,420.571H973.291a.89.89,0,0,0,0-1.78H9.875a.89.89,0,0,0,0,1.78" transform="translate(3.82 177.453)" fill="#26244a"/>
          </g>
        </g>
      </g>
    </g>
  </g>
</svg>
