<svg xmlns="http://www.w3.org/2000/svg" xmlns:xlink="http://www.w3.org/1999/xlink" width="252.533" height="262.421" viewBox="0 0 252.533 262.421">
  <defs>
    <clipPath id="clip-path">
      <path id="Rectangle_545" data-name="Rectangle 545" d="M10.066,0h232.4a10.066,10.066,0,0,1,10.066,10.066v232.4a10.068,10.068,0,0,1-10.068,10.068H10.068A10.068,10.068,0,0,1,0,242.465V10.066A10.066,10.066,0,0,1,10.066,0Z" fill="none"/>
    </clipPath>
  </defs>
  <g id="Group_929" data-name="Group 929" transform="translate(-430.568 -2702.77)">
    <path id="Path_2219" data-name="Path 2219" d="M17.711,187.412l126.226,61.41,61.085-127.2,28.643-65.5L101.113,8.877,41.427,135.028Z" transform="translate(433.585 2695.839)" fill="#fff"/>
    <path id="Path_2220" data-name="Path 2220" d="M146.06,252.232l-129-62.759L41.4,135.707,101.7,8.254,237.158,56.535l-29.314,67.03ZM21.151,187.994,144.6,248.052l60.4-125.789,27.95-63.911L103.311,12.144,44.233,137.018Z" transform="translate(432.193 2694.516)" fill="#2f2f2f"/>
    <path id="Path_2221" data-name="Path 2221" d="M97.417,126.18,32.236,101.668,74.454,11.444l65.181,24.512Z" transform="translate(464.41 2701.285)" fill="#fff"/>
    <path id="Path_2222" data-name="Path 2222" d="M97.433,129.839l-65.509-27.11L74.779,11.147l66.493,25.005ZM33.872,101.861,96.915,127.65l42.408-90.63L75.453,13Z" transform="translate(463.748 2700.656)" fill="#2f2f2f"/>
    <path id="Path_2223" data-name="Path 2223" d="M92.73,75.024C91.712,56.051,85.868,41.411,74.378,37.09,62.9,32.775,48.467,38.46,33.072,51.246Z" transform="translate(466.184 2752.683)" fill="#fff"/>
    <path id="Path_2224" data-name="Path 2224" d="M94.35,76.211l-61.616-24.4.731-.606c16.273-13.513,30.75-18.446,41.868-14.265C86.666,41.2,93.226,54.04,94.3,74.072ZM34.845,51.4,93.157,75.143c-1.2-19.1-7.518-33.129-18.3-37.185C64.29,33.987,50.468,38.632,34.845,51.4" transform="translate(465.467 2752.32)" fill="#2f2f2f"/>
    <path id="Path_2225" data-name="Path 2225" d="M45.245,40.425A19,19,0,0,1,49.26,26.007c5.514-7.1,21.393-5.888,22.842-4.774s7.681,3.843,7.681,3.843,7.671,2.851,5.008,11.031S74.494,52.164,73.66,53.316,45.926,50.878,45.245,40.425" transform="translate(491.624 2720.255)" fill="#2f2f2f"/>
    <path id="Path_2227" data-name="Path 2227" d="M47.473,50.513a4.712,4.712,0,0,1-2.423-6.557L49.147,35a5.7,5.7,0,0,1,6.912-3.147l1.792.653a4.415,4.415,0,0,1,2.654,2.635,5.093,5.093,0,0,1-.2,3.937l-4.1,8.951a5.706,5.706,0,0,1-6.912,3.15l-1.783-.653-.044-.016m9.944-16.969-.037-.012-1.789-.656a4.5,4.5,0,0,0-5.454,2.488l-4.1,8.951a3.72,3.72,0,0,0,1.911,5.177l.034.012,1.786.653a4.5,4.5,0,0,0,5.458-2.488l4.093-8.948a4.031,4.031,0,0,0,.156-3.11,3.484,3.484,0,0,0-2.061-2.067" transform="translate(490.541 2743.977)" fill="#2f2f2f"/>
    <path id="Path_2228" data-name="Path 2228" d="M43.212,28.675a4.1,4.1,0,0,0,1.917,5.782A4.9,4.9,0,0,0,51.2,31.981a4.1,4.1,0,0,0-1.92-5.782,4.9,4.9,0,0,0-6.069,2.476" transform="translate(486.625 2731.921)" fill="#fff"/>
    <path id="Path_2229" data-name="Path 2229" d="M45.389,35.381l-.14-.056a4.316,4.316,0,0,1-2.482-2.663A4.989,4.989,0,0,1,43.1,28.84a5.521,5.521,0,0,1,6.809-2.782,4.608,4.608,0,0,1,2.148,6.488,5.517,5.517,0,0,1-6.669,2.835m3.9-8.355a4.317,4.317,0,0,0-5.223,2.217,3.873,3.873,0,0,0-.259,2.982,3.378,3.378,0,0,0,1.948,2.092,4.3,4.3,0,0,0,5.333-2.17A3.606,3.606,0,0,0,49.4,27.069a1.14,1.14,0,0,0-.109-.044" transform="translate(486.254 2731.556)" fill="#2f2f2f"/>
    <path id="Path_2230" data-name="Path 2230" d="M45.579,30.3a2.622,2.622,0,0,0,.131-.265c.041-.1.081-.2.116-.3.013-.041.056-.1,0,0a.43.43,0,0,0,.025-.091c.022-.069.037-.137.053-.206a3.328,3.328,0,0,0,.066-.425c.009-.1,0,.062,0-.034,0-.034,0-.069,0-.1,0-.084-.009-.165-.019-.25-.006-.034-.012-.069-.016-.1-.016-.094.016.047-.009-.041a2.131,2.131,0,0,0-.084-.25.977.977,0,0,0-.047-.1c-.028-.072.028.044,0,0l-.028-.05a1.594,1.594,0,0,0-.159-.222l-.041-.047-.034-.037.006.006c-.037-.034-.078-.072-.119-.106a2.477,2.477,0,0,0-.278-.2c-.006,0-.094-.056-.028-.019l-.084-.044c-.059-.031-.122-.059-.181-.084a3.684,3.684,0,0,0-.453-.156.32.32,0,0,1-.159-.443.389.389,0,0,1,.465-.209,2.485,2.485,0,0,1,1.911,1.808,3.7,3.7,0,0,1-.415,2.2.393.393,0,0,1-.465.206.317.317,0,0,1-.162-.443" transform="translate(489.826 2733.267)" fill="#2f2f2f"/>
    <path id="Path_2231" data-name="Path 2231" d="M61.961,36.154a4.9,4.9,0,0,1-6.069,2.476,4.1,4.1,0,0,1-1.917-5.782,4.9,4.9,0,0,1,6.069-2.476,4.1,4.1,0,0,1,1.917,5.782" transform="translate(509.461 2740.777)" fill="#fff"/>
    <path id="Path_2232" data-name="Path 2232" d="M56.149,39.546l-.14-.056a4.308,4.308,0,0,1-2.482-2.663A4.987,4.987,0,0,1,53.86,33a5.55,5.55,0,0,1,6.809-2.779,4.316,4.316,0,0,1,2.482,2.663,4.975,4.975,0,0,1-.334,3.822,5.521,5.521,0,0,1-6.669,2.835m3.9-8.355A4.318,4.318,0,0,0,54.828,33.4a3.9,3.9,0,0,0-.259,2.985,3.378,3.378,0,0,0,1.948,2.092,4.328,4.328,0,0,0,5.333-2.173,3.9,3.9,0,0,0,.262-2.985,3.385,3.385,0,0,0-1.951-2.089,1.141,1.141,0,0,0-.109-.044" transform="translate(509.088 2740.42)" fill="#2f2f2f"/>
    <path id="Path_2233" data-name="Path 2233" d="M54.048,32.728a3.3,3.3,0,0,1,2.707-2.057,3.229,3.229,0,0,1,1.677.471c.156.087.144.343.031.481a.367.367,0,0,1-.49.084,2.525,2.525,0,0,0-1.218-.35c-.025,0-.162.006-.078,0l-.134.012a2.853,2.853,0,0,0-.284.056c-.1.025.037-.016-.056.019l-.119.044c-.078.034-.156.072-.231.112l-.053.031c.078-.044.034-.022.019-.012l-.1.066c-.069.05-.137.1-.2.156l-.087.075c-.019.019-.109.106-.028.025-.053.053-.106.109-.159.165a3.535,3.535,0,0,0-.253.318c-.034.047-.069.1-.1.147-.022.034-.084.091,0,0a.32.32,0,0,0-.044.069,2.673,2.673,0,0,0-.169.325.336.336,0,1,1-.628-.237" transform="translate(510.63 2742.083)" fill="#2f2f2f"/>
    <path id="Path_2234" data-name="Path 2234" d="M71.649,51.807c-3.007,6.272-10.4,9.485-16.435,7.14l-3.566-1.383c-6.032-2.345-8.508-9.391-5.5-15.664l5.9-12.3c3.007-6.272,10.4-9.485,16.435-7.144l3.562,1.386c6.035,2.342,8.511,9.391,5.5,15.664Z" transform="translate(491.215 2723.029)" fill="#fff"/>
    <path id="Path_2235" data-name="Path 2235" d="M55.463,59.86c-.041-.012-.078-.028-.119-.044l-3.562-1.383c-6.319-2.454-8.9-9.794-5.748-16.363l5.9-12.3a14.684,14.684,0,0,1,7.4-7.106,13,13,0,0,1,9.772-.356l3.562,1.386a10.9,10.9,0,0,1,6.416,6.641,12.655,12.655,0,0,1-.668,9.719l-5.9,12.3a14.659,14.659,0,0,1-7.4,7.1,12.8,12.8,0,0,1-9.651.4M68.5,23.284a11.7,11.7,0,0,0-8.826.365,13.429,13.429,0,0,0-6.769,6.5l-5.9,12.3c-2.879,6.007-.521,12.72,5.258,14.965L55.832,58.8a11.781,11.781,0,0,0,8.936-.325,13.429,13.429,0,0,0,6.769-6.5l5.9-12.3a11.581,11.581,0,0,0,.609-8.889,9.956,9.956,0,0,0-5.867-6.079l-3.562-1.383-.109-.041" transform="translate(490.841 2722.669)" fill="#2f2f2f"/>
    <path id="Path_2236" data-name="Path 2236" d="M85.958,42.637c-.287-1.639-2.46-5-4.412-7.072C87.672,23.776,59.963,5.374,58.373,25.087c0,0-8.093-8.339-12.283-3.681-10.2,11.337,17.6,26.554,31.356,18.265,1.442,1.346,3,3.481,2.292,6.063-1.221,4.49-4.53,14.184-4.53,14.184A30.323,30.323,0,0,1,78.48,56.3C80.2,54.735,86.373,45,85.958,42.637" transform="translate(489.142 2711.815)" fill="#2f2f2f"/>
    <path id="Path_2237" data-name="Path 2237" d="M48.552,26.57s.318,4.168,3.1,6.607S57,33.523,59.77,34.5s4.524,1.661,5.913,4.321,6.21-.674,9.691-5.3-3.469,10.562-8.836,13.688-9.882,2.382-14.871,0S44.4,40,44.933,36.015s3.619-9.445,3.619-9.445" transform="translate(491.196 2733.386)" fill="#2f2f2f"/>
    <path id="Path_2238" data-name="Path 2238" d="M53.61,26.9,49.3,32.428l3.088,1.124Z" transform="translate(500.626 2734.077)" fill="#2f2f2f"/>
    <path id="Path_2239" data-name="Path 2239" d="M48.553,30.053a2.534,2.534,0,0,0,1.4,3.278A3.066,3.066,0,0,0,53.561,32Z" transform="translate(498.697 2740.777)" fill="#fff"/>
    <path id="Path_2240" data-name="Path 2240" d="M50.283,28.386a1.8,1.8,0,0,1-2.235.893,1.512,1.512,0,0,1-.671-2.139,1.8,1.8,0,0,1,2.239-.893,1.509,1.509,0,0,1,.668,2.139" transform="translate(496.122 2732.441)" fill="#2f2f2f"/>
    <path id="Path_2241" data-name="Path 2241" d="M55.314,30.278a1.8,1.8,0,0,1-2.235.893,1.509,1.509,0,0,1-.668-2.139,1.8,1.8,0,0,1,2.235-.893,1.511,1.511,0,0,1,.668,2.139" transform="translate(506.801 2736.456)" fill="#2f2f2f"/>
    <path id="Path_2242" data-name="Path 2242" d="M53.626,49.765,46.645,47.14c-3.21-1.208-4.549-4.886-2.988-8.218l.325-.693a7.081,7.081,0,0,1,8.633-3.85l7.652,2.879c3.206,1.208,4.546,4.886,2.988,8.218-1.739,3.715-6.051,5.636-9.629,4.29" transform="translate(487.264 2749.143)" fill="#fff"/>
    <path id="Path_2243" data-name="Path 2243" d="M54.953,51.192,46.124,47.87A5.483,5.483,0,0,1,43.332,40.2l1.174-2.51a6.624,6.624,0,0,1,8.065-3.594l9.4,3.534A5.491,5.491,0,0,1,64.763,45.3l-.9,1.917a7.317,7.317,0,0,1-8.911,3.971m-2.86-16.079a5.425,5.425,0,0,0-6.6,2.941l-1.177,2.51A4.5,4.5,0,0,0,46.6,46.853l8.829,3.319a6.117,6.117,0,0,0,7.449-3.319l.9-1.917a4.5,4.5,0,0,0-2.285-6.288Z" transform="translate(486.671 2748.59)" fill="#2f2f2f"/>
    <path id="Path_2244" data-name="Path 2244" d="M43.03,44.177a4.665,4.665,0,0,0,.312.64l5.07-10.837a6.06,6.06,0,0,0-.727.25Z" transform="translate(487.316 2749.111)" fill="#2f2f2f"/>
    <path id="Path_2245" data-name="Path 2245" d="M43.546,46.343a4.259,4.259,0,0,0,.471.293l5.9-12.614a5.012,5.012,0,0,0-.568-.094Z" transform="translate(488.412 2749.003)" fill="#2f2f2f"/>
    <path id="Path_2246" data-name="Path 2246" d="M44.268,46.912l.521.2,5.97-12.76-.521-.194Z" transform="translate(489.943 2749.483)" fill="#2f2f2f"/>
    <path id="Path_2247" data-name="Path 2247" d="M45.115,47.231l.521.2,5.97-12.76-.521-.194Z" transform="translate(491.741 2750.159)" fill="#2f2f2f"/>
    <path id="Path_2248" data-name="Path 2248" d="M45.832,47.5l.521.2,5.97-12.76-.521-.2Z" transform="translate(493.263 2750.73)" fill="#2f2f2f"/>
    <path id="Path_2249" data-name="Path 2249" d="M46.61,47.8l.521.2,5.97-12.76-.521-.2Z" transform="translate(494.914 2751.351)" fill="#2f2f2f"/>
    <path id="Path_2250" data-name="Path 2250" d="M47.3,47.749a4.817,4.817,0,0,0,.6.028L53.549,35.7a4.569,4.569,0,0,0-.443-.362Z" transform="translate(496.382 2752.001)" fill="#2f2f2f"/>
    <path id="Path_2251" data-name="Path 2251" d="M48.027,46.438a6.243,6.243,0,0,0,.734-.265l4.487-9.682a4.744,4.744,0,0,0-.312-.646Z" transform="translate(497.921 2753.069)" fill="#2f2f2f"/>
    <path id="Path_2252" data-name="Path 2252" d="M109.253,43.112l-42.97-16.16,2.532-5.72,43.014,16.176Z" transform="translate(536.663 2722.058)" fill="#2f2f2f"/>
    <path id="Path_2253" data-name="Path 2253" d="M65.934,27.053q21.7,8.158,43.395,16.32l6.166,2.32c1.414.531,2.023-1.733.624-2.257q-21.7-8.163-43.395-16.32L66.556,24.8c-1.411-.531-2.02,1.73-.621,2.257" transform="translate(534.243 2729.45)" fill="#2f2f2f"/>
    <path id="Path_2254" data-name="Path 2254" d="M64.943,29.442Q86.964,37.722,108.981,46q3.128,1.176,6.26,2.354c1.411.531,2.02-1.733.621-2.26L71.825,29.539q-3.128-1.18-6.26-2.354c-1.411-.531-2.02,1.73-.621,2.257" transform="translate(532.14 2734.52)" fill="#2f2f2f"/>
    <path id="Path_2255" data-name="Path 2255" d="M63.516,32.107,88.481,41.5q1.775.67,3.55,1.336c1.411.531,2.023-1.733.621-2.26q-12.481-4.693-24.965-9.388-1.775-.665-3.55-1.333c-1.411-.531-2.02,1.73-.621,2.257" transform="translate(529.111 2740.175)" fill="#2f2f2f"/>
    <path id="Path_2256" data-name="Path 2256" d="M62.172,35.135q17.492,6.58,34.987,13.157,2.487.937,4.974,1.87c1.411.534,2.023-1.73.621-2.257q-17.492-6.58-34.987-13.157-2.487-.937-4.974-1.87c-1.411-.531-2.02,1.73-.621,2.257" transform="translate(526.259 2746.601)" fill="#2f2f2f"/>
    <path id="Path_2257" data-name="Path 2257" d="M60.562,39.061l42.761,16.082,6.076,2.285c1.411.531,2.023-1.733.621-2.26Q88.642,47.132,67.263,39.089L61.184,36.8c-1.411-.531-2.02,1.73-.621,2.257" transform="translate(522.842 2754.933)" fill="#2f2f2f"/>
    <path id="Path_2258" data-name="Path 2258" d="M59.154,41.4q21.936,8.247,43.87,16.5l6.232,2.345c1.414.531,2.023-1.733.624-2.257q-21.936-8.252-43.87-16.5-3.114-1.175-6.235-2.345c-1.411-.531-2.02,1.73-.621,2.257" transform="translate(519.854 2759.905)" fill="#2f2f2f"/>
    <path id="Path_2259" data-name="Path 2259" d="M57.809,44.462,86.346,55.193,90.4,56.719c1.414.531,2.023-1.733.624-2.26Q76.753,49.1,62.486,43.728q-2.028-.763-4.056-1.524c-1.411-.531-2.02,1.73-.621,2.257" transform="translate(517 2766.395)" fill="#2f2f2f"/>
    <path id="Path_2260" data-name="Path 2260" d="M32.356,46.011l71.32,28.774,9.985,4.031c1.4.562,2-1.7.621-2.257Q78.623,62.167,42.962,47.782l-9.985-4.028c-1.4-.565-2,1.7-.621,2.257" transform="translate(463.007 2769.663)" fill="#2f2f2f"/>
    <path id="Path_2261" data-name="Path 2261" d="M30.761,48.89q35.911,14.63,71.825,29.258l10.375,4.224c1.4.568,2-1.7.621-2.257Q77.672,65.484,41.758,50.857L31.383,46.633c-1.392-.568-2,1.7-.621,2.257" transform="translate(459.628 2775.77)" fill="#2f2f2f"/>
    <path id="Path_2262" data-name="Path 2262" d="M29.454,51.588q36.1,14.977,72.209,29.945l10.3,4.271c1.389.574,2-1.689.621-2.257Q76.485,68.574,40.378,53.6q-5.152-2.136-10.3-4.271c-1.389-.578-2,1.686-.621,2.254" transform="translate(456.861 2781.495)" fill="#2f2f2f"/>
    <path id="Path_2263" data-name="Path 2263" d="M28.311,54.2,100.63,84.99l10.194,4.34c1.371.584,2.566-1.433,1.183-2.023L39.688,56.519q-5.1-2.168-10.194-4.34c-1.374-.584-2.566,1.433-1.183,2.023" transform="translate(454.775 2787.51)" fill="#2f2f2f"/>
    <path id="Path_2264" data-name="Path 2264" d="M27.262,56.336q19.473,8.678,38.949,17.353l5.573,2.482c1.364.609,2.557-1.408,1.183-2.023Q53.49,65.475,34.016,56.8q-2.787-1.241-5.57-2.485c-1.368-.606-2.56,1.411-1.183,2.023" transform="translate(452.558 2792.023)" fill="#2f2f2f"/>
    <path id="Path_2265" data-name="Path 2265" d="M26.156,58.557q11.9,5.653,23.806,11.308l3.416,1.62c1.355.643,2.545-1.374,1.18-2.02l-23.8-11.308q-1.709-.81-3.416-1.624c-1.355-.643-2.545,1.377-1.183,2.023" transform="translate(450.23 2796.709)" fill="#2f2f2f"/>
    <g id="Group_893" data-name="Group 893" transform="translate(430.568 2712.658)" clip-path="url(#clip-path)">
      <path id="Path_2266" data-name="Path 2266" d="M46.857,136.342s47.195-57.395,71.71-76.374c11.824-9.154,18.658-5.467,13.625,4.683-3.206,6.472-10.088,17.019-15.667,24.387-8.78,11.589-11.836,17.412-6.635,16.91,7.574-.734,35.771-37.819,35.771-37.819l15.13-34.047s5.97,45.752-.837,62.409S101.61,157.445,87.17,171.785,38.989,158.84,46.857,136.342" transform="translate(62.378 36.669)" fill="#fff"/>
      <path id="Path_2267" data-name="Path 2267" d="M78.093,181.2c-4.568,0-9.647-1.608-14.73-4.811-11.814-7.453-21.765-22.839-16.925-36.676l.269-.475c.471-.578,47.588-57.751,71.96-76.618,6.847-5.3,12.81-6.931,15.948-4.359,2.473,2.023,2.485,6.023.031,10.971-3.063,6.176-9.863,16.766-15.823,24.631-7.965,10.519-9.011,13.572-8.867,14.449a1.4,1.4,0,0,1,.306-.009,5.27,5.27,0,0,0,.531-.025c5.008-.484,23.81-22.926,34.572-37.066l17.312-38.955.718,5.511c.247,1.883,5.945,46.352-.94,63.2-5.314,13-36.785,42.04-57.61,61.254-6.491,5.985-12.1,11.156-15.517,14.559A15.533,15.533,0,0,1,78.093,181.2M49.3,141c-4.09,12.248,5.008,25.986,15.733,32.745,6.775,4.271,16.138,6.734,22.1.815,3.466-3.441,9.089-8.63,15.6-14.637,20.622-19.026,51.787-47.778,56.836-60.139,5.17-12.654,2.7-43.239,1.38-55.943L147.958,72.957c-4.78,6.282-29.008,37.666-36.866,38.424-2.354.231-3.4-.693-3.859-1.511-1.414-2.526.884-7.044,9.1-17.893,5.857-7.734,12.526-18.109,15.517-24.137,1.673-3.375,1.983-6.188.787-7.168-1.492-1.221-5.9-.359-12.061,4.415C97.238,83.154,52.507,137.108,49.3,141" transform="translate(61.324 32.788)" fill="#2f2f2f"/>
      <path id="Path_2268" data-name="Path 2268" d="M135.309,209.061A561.841,561.841,0,0,0,179.1,102.417L113.85,62.753S53.258,124.778,12.464,160.511Z" transform="translate(-8.118 97.514)" fill="#fff"/>
      <path id="Path_2269" data-name="Path 2269" d="M137.387,211.15l-2.748-1.483a557.457,557.457,0,0,0,43.323-105.2l-63.168-38.4c-7.584,7.73-62.877,63.911-100.6,96.959l-2.058-2.348c40.282-35.284,100.69-97.059,101.3-97.68l.865-.887,67.342,40.932-.34,1.155a560.907,560.907,0,0,1-43.91,106.943" transform="translate(-8.816 96.171)" fill="#2f2f2f"/>
      <rect id="Rectangle_544" data-name="Rectangle 544" width="3.123" height="96.05" transform="matrix(0.528, -0.85, 0.85, 0.528, 74.517, 192.127)" fill="#2f2f2f"/>
      <path id="Path_2270" data-name="Path 2270" d="M53.841,69.824a4.408,4.408,0,0,1-1.911,6.488,5.929,5.929,0,0,1-7.462-1.661,4.4,4.4,0,0,1,1.908-6.488,5.93,5.93,0,0,1,7.465,1.661" transform="translate(58.179 107.593)" fill="#2f2f2f"/>
    </g>
  </g>
</svg>
