<svg xmlns="http://www.w3.org/2000/svg" width="112.873" height="53.864" viewBox="0 0 112.873 53.864">
  <g id="Group_36" data-name="Group 36" transform="translate(-83.456 -562.617)">
    <path id="Path_50" data-name="Path 50" d="M170.581,742.7h10.681a2.316,2.316,0,0,0,1.931-1.009,3.218,3.218,0,0,0,.194-2.99l-.088-.233-.146-.2c-.016-.022-1.642-2.261-3.311-4.471-.988-1.308-1.8-2.353-2.416-3.108-1.139-1.4-1.731-2.069-2.745-2.069h-4.1a2.647,2.647,0,0,0-2.319,1.542,4.71,4.71,0,0,0-.49,2.16V739a4.711,4.711,0,0,0,.49,2.16A2.648,2.648,0,0,0,170.581,742.7Zm.885-3.7v-6.684h2.506c.91,1.036,3.082,3.886,5.145,6.692h-7.651S171.467,739,171.467,739ZM93.575,725.069h8.572a1.847,1.847,0,1,0,0-3.695H93.575a1.847,1.847,0,1,0,0,3.695Zm10.42,7.919a1.847,1.847,0,0,0-1.847-1.847H85.3a1.847,1.847,0,1,0,0,3.695h16.844A1.847,1.847,0,0,0,103.995,732.987Zm0,9.767a1.847,1.847,0,0,0-1.847-1.847H93.575a1.847,1.847,0,1,0,0,3.695h8.572A1.848,1.848,0,0,0,103.995,742.754Z" transform="translate(0 -148.982)"/>
    <circle id="Ellipse_2" data-name="Ellipse 2" cx="2.594" cy="2.594" r="2.594" transform="translate(120.329 606.364)"/>
    <circle id="Ellipse_3" data-name="Ellipse 3" cx="2.594" cy="2.594" r="2.594" transform="translate(174.301 606.364)"/>
    <path id="Path_51" data-name="Path 51" d="M463.081,602.75a5.725,5.725,0,0,0-3.194-1.007V589.412a4.767,4.767,0,0,0-.876-2.591L448.872,573.23a3.884,3.884,0,0,0-2.951-1.425H433.148v-6.291a2.858,2.858,0,0,0-2.809-2.9H377.245a2.858,2.858,0,0,0-2.809,2.9v36.229a5.726,5.726,0,0,0-3.194,1.007,3.837,3.837,0,0,0-1.71,3.107v.832a3.837,3.837,0,0,0,1.71,3.107,5.75,5.75,0,0,0,3.32,1.01h9.529a7.523,7.523,0,0,0,14.585,0h39.388a7.523,7.523,0,0,0,14.585,0h7.111a5.75,5.75,0,0,0,3.32-1.01,3.837,3.837,0,0,0,1.71-3.107v-.832A3.838,3.838,0,0,0,463.081,602.75ZM445.891,575.5a.481.481,0,0,1,.088.033l10.066,13.493a1.351,1.351,0,0,1,.146.407v12.309h-8.716a7.529,7.529,0,0,0-4.238,0H439.8l-6.655-.012V575.5Zm-47.863,29.936h40.684a7.467,7.467,0,0,0-.648,1.676H398.676A7.453,7.453,0,0,0,398.028,605.436Zm-19.9-39.125h51.322V601.7H397.059v.041H393.5a7.529,7.529,0,0,0-4.238,0h-3.556V601.7H378.13Zm-4.9,40.33v-.735a1.754,1.754,0,0,1,1.335-.47H384.74a7.466,7.466,0,0,0-.648,1.676h-9.53A1.756,1.756,0,0,1,373.226,606.641Zm18.157,6.145a3.828,3.828,0,1,1,1.476-7.359v.008h.019a3.827,3.827,0,0,1-1.5,7.351Zm53.973,0a3.828,3.828,0,1,1,3.828-3.828A3.832,3.832,0,0,1,445.357,612.786Zm15.739-6.145a1.754,1.754,0,0,1-1.335.47h-7.111a7.47,7.47,0,0,0-.648-1.676h7.759a1.754,1.754,0,0,1,1.335.47Z" transform="translate(-268.461)"/>
  </g>
</svg>
