<svg xmlns="http://www.w3.org/2000/svg" width="22.592" height="22.592" viewBox="0 0 22.592 22.592">
  <g id="Group_4" data-name="Group 4" transform="translate(-4.5 -4.5)">
    <path id="Path_4" data-name="Path 4" d="M27.092,36.348H4.5V32c0-1.677,1.548-3.133,4.477-4.211A21.919,21.919,0,0,1,15.8,26.5a21.919,21.919,0,0,1,6.818,1.292c2.929,1.078,4.477,2.534,4.477,4.211ZM6.238,34.61H25.354V32c0-.846-1.248-1.811-3.34-2.58A19.942,19.942,0,0,0,15.8,28.238a19.942,19.942,0,0,0-6.218,1.185c-2.091.769-3.34,1.734-3.34,2.58Z" transform="translate(0 -9.256)" fill="#1e1f1e"/>
    <path id="Path_5" data-name="Path 5" d="M19.162,17.823a6.662,6.662,0,1,1,4.71-1.951A6.618,6.618,0,0,1,19.162,17.823Zm0-11.585a4.924,4.924,0,1,0,4.924,4.924A4.929,4.929,0,0,0,19.162,6.238Z" transform="translate(-3.366)" fill="#1e1f1e"/>
  </g>
</svg>
