<svg xmlns="http://www.w3.org/2000/svg" xmlns:xlink="http://www.w3.org/1999/xlink" width="277.178" height="238.368" viewBox="0 0 277.178 238.368">
  <defs>
    <clipPath id="clip-path">
      <rect id="Rectangle_560" data-name="Rectangle 560" width="253.343" height="131.304" rx="10.067" fill="none"/>
    </clipPath>
  </defs>
  <g id="Group_928" data-name="Group 928" transform="translate(-825.484 -3092.674)">
    <g id="Group_902" data-name="Group 902" transform="translate(835.538 3199.739)" clip-path="url(#clip-path)">
      <path id="Path_2418" data-name="Path 2418" d="M74.441,83.03s12.98,30.911,15.846,45.539-27.41,14.624-27.41,14.624L52.331,85.129Z" transform="translate(57.041 14.296)" fill="#fff"/>
      <path id="Path_2419" data-name="Path 2419" d="M64.133,145.9H62.824L51.742,84.865,76.7,82.5l.445,1.062c.532,1.269,13.074,31.228,15.94,45.843a9.675,9.675,0,0,1-2.023,8.366c-6.615,8.034-26.1,8.128-26.924,8.128m-8.7-58.233,10,55.07c4.357-.16,18.411-1.128,23.209-6.96A6.587,6.587,0,0,0,90,130c-2.5-12.786-13.02-38.623-15.31-44.17Z" transform="translate(55.786 13.16)" fill="#0f110e"/>
      <path id="Path_2420" data-name="Path 2420" d="M70.856,63.189s36.271,21.869,51.239,65.193l-47.227,19.8-40.252-8.967Z" transform="translate(19.272 -28.008)" fill="#fff"/>
      <path id="Path_2421" data-name="Path 2421" d="M76.55,151.339l-42.654-9.5,37.83-79.36,1.478.893c.366.222,36.928,22.664,51.91,66.023l.479,1.388Zm-38.134-11.7,37.846,8.432,45.4-19.037C108.52,92.523,79.823,71.553,73.042,67Z" transform="translate(17.735 -29.529)" fill="#0f110e"/>
      <path id="Path_2422" data-name="Path 2422" d="M166.726,215.219c-4.7-88.2-37.408-156.5-77.052-156.5s-72.347,68.3-77.055,156.5Z" transform="translate(-27.629 -37.544)" fill="#fff"/>
      <path id="Path_2423" data-name="Path 2423" d="M169.5,217.852H12.092l.088-1.651C16.991,126.135,50.784,58.217,90.8,58.217s73.807,67.918,78.615,157.984ZM15.4,214.719H166.2c-5.024-87.554-37.317-153.37-75.395-153.37s-70.374,65.816-75.4,153.37" transform="translate(-28.755 -38.61)" fill="#0f110e"/>
      <path id="Path_2424" data-name="Path 2424" d="M0,139.609a126.137,126.137,0,0,1,23.958-32.177c15.855-15.3,30.711-28.487,49.354-37.846s27.269-10.01,27.269-10.01l3.07,6.061s-16.281,30.351-19.686,38.7S63.01,155.251,63.01,155.251s-22.514,19.3-25.731,17.543S0,139.609,0,139.609" transform="translate(-54.537 -35.712)" fill="#fff"/>
      <rect id="Rectangle_559" data-name="Rectangle 559" width="81.348" height="3.133" transform="translate(-1.405 133.901) rotate(-66.178)" fill="#0f110e"/>
      <path id="Path_2425" data-name="Path 2425" d="M3.238,136.255.6,134.561C40.784,72.1,96.671,59.21,97.232,59.088l.673,3.057c-.548.122-55.223,12.786-94.667,74.11" transform="translate(-53.25 -36.752)" fill="#0f110e"/>
    </g>
    <g id="Group_927" data-name="Group 927" transform="translate(781 3037)">
      <path id="Path_2426" data-name="Path 2426" d="M138.853,85.736c-1.005-15.238-11.1-14.627-11.1-14.627s2.9-5.077-2.258-12.876c-5.8-8.758-15.971-9.622-20.685-9.509-3.611-9.093-7.956-15.507-12.366-15.67C78.468,32.539,63,61.615,51.343,61.408s-51.5,37.3-19.752,47.014c34.611,10.587,80.538,1.175,80.538,1.175,11.379-1.845,27.657-9.7,26.724-23.861" transform="translate(41.72 70.46)" fill="#0f110e"/>
      <path id="Path_2427" data-name="Path 2427" d="M30.742,68.031c0,6.161,9.086,11.157,20.293,11.157s20.29-5,20.29-11.157-9.083-11.157-20.29-11.157-20.293,5-20.293,11.157" transform="translate(65.547 121.265)" fill="#fff"/>
      <path id="Path_2428" data-name="Path 2428" d="M51.834,81.165c-12.037,0-21.468-5.419-21.468-12.331S39.8,56.5,51.834,56.5,73.3,61.915,73.3,68.834,63.871,81.165,51.834,81.165m0-22.317c-10.364,0-19.119,4.57-19.119,9.985s8.754,9.982,19.119,9.982,19.119-4.573,19.119-9.982S62.2,58.848,51.834,58.848" transform="translate(64.746 120.466)" fill="#0f110e"/>
      <path id="Path_2429" data-name="Path 2429" d="M70.005,30.22H53.235c-11.147,0-20.268,10.386-20.268,23.078V79.292c0,.733.038,1.456.1,2.174a10.276,10.276,0,0,0-.288,2.38v32.528a10.472,10.472,0,0,0,10.44,10.443h6.653a10.472,10.472,0,0,0,10.44-10.443v-14h9.7c11.147,0,20.268-10.383,20.268-23.078V53.3c0-12.692-9.121-23.078-20.268-23.078" transform="translate(69.884 64.434)" fill="#fff"/>
      <path id="Path_2430" data-name="Path 2430" d="M50.668,128.79H44.015A11.628,11.628,0,0,1,32.4,117.173V84.646a11.686,11.686,0,0,1,.276-2.468c-.053-.686-.088-1.381-.088-2.086V54.1c0-13.371,9.622-24.252,21.446-24.252H70.8c11.824,0,21.443,10.881,21.443,24.252V80.091c0,13.374-9.619,24.256-21.443,24.256H62.282v12.826A11.628,11.628,0,0,1,50.668,128.79m3.367-96.6c-10.53,0-19.1,9.826-19.1,21.9V80.091c0,.7.038,1.391.094,2.077l.016.185-.041.182a9.1,9.1,0,0,0-.257,2.111v32.528a9.276,9.276,0,0,0,9.265,9.268h6.653a9.276,9.276,0,0,0,9.265-9.268V102H70.8C81.332,102,89.9,92.169,89.9,80.091V54.1c0-12.078-8.566-21.9-19.094-21.9Z" transform="translate(69.085 63.635)" fill="#0f110e"/>
      <path id="Path_2431" data-name="Path 2431" d="M41.715,94.045S26.477,83.659,24.359,66.206c0,0-.639-26.633,21.684-36.48s44.314-5.9,53.137-2.575c16.55,6.233,23.56,16.049,17.174,29.6-4.755,10.086-28.465,4.8-36.672-1.5,0,0-1.45,10.653-21.888,13.631L50.8,97l-.429,9.2Z" transform="translate(51.934 50.079)" fill="#0f110e"/>
      <path id="Path_2432" data-name="Path 2432" d="M40.42,42.874A3.781,3.781,0,1,0,44.2,39.093a3.779,3.779,0,0,0-3.781,3.781" transform="translate(86.183 83.353)" fill="#0f110e"/>
      <path id="Path_2433" data-name="Path 2433" d="M48.321,42.319a3.226,3.226,0,1,0,3.226-3.226,3.226,3.226,0,0,0-3.226,3.226" transform="translate(103.029 83.353)" fill="#0f110e"/>
      <path id="Path_2434" data-name="Path 2434" d="M56.219,46.17s-1.9,5.535-5.917,5.917-7.163-4.072-7.379-7.545Z" transform="translate(91.519 94.969)" fill="#fff"/>
      <path id="Path_2435" data-name="Path 2435" d="M55.887,46.66c-.047.138-.1.276-.16.41.138-.345-.069.15-.119.263-.1.216-.21.429-.319.642A9.281,9.281,0,0,1,53.335,50.6a3.976,3.976,0,0,1-3.27,1.106,5.619,5.619,0,0,1-3.358-2.111,7.736,7.736,0,0,1-1.807-4.25l-1.175,1.175q5.821.709,11.642,1.425c.551.069,1.1.135,1.654.2A1.183,1.183,0,0,0,58.2,46.973,1.2,1.2,0,0,0,57.021,45.8L45.376,44.37c-.551-.066-1.1-.135-1.651-.2a1.175,1.175,0,0,0-1.175,1.175c.266,3.586,2.669,7.348,6.208,8.457,3.467,1.087,6.449-1.124,8.175-3.965a13.535,13.535,0,0,0,1.218-2.553c.495-1.431-1.773-2.045-2.265-.623" transform="translate(90.72 94.166)" fill="#0f110e"/>
      <path id="Path_2436" data-name="Path 2436" d="M36.4,50.606a8.8,8.8,0,1,0,8.72-8.873,8.8,8.8,0,0,0-8.72,8.873" transform="translate(77.62 88.98)" fill="#e5809d"/>
      <path id="Path_2437" data-name="Path 2437" d="M54.883,42.551a6.674,6.674,0,0,1,1.554.175l.078,9.124a18.668,18.668,0,0,1-.291,3.968A7.877,7.877,0,0,1,55,55.941a6.7,6.7,0,1,1-.116-13.39" transform="translate(102.869 90.726)" fill="#e5809d"/>
      <path id="Path_2438" data-name="Path 2438" d="M45.98,39.1l-.774,12.87,6.145-3.743Z" transform="translate(96.388 83.365)" fill="#e5809d"/>
      <path id="Path_2439" data-name="Path 2439" d="M14.812,62.945C11.523,77.7,21.875,90.574,37.665,96.807,68.454,108.96,76.848,76.072,69.206,55.243S38.112,32.087,33.771,48.415c0,0-15.013-3.179-18.959,14.53" transform="translate(30.282 80.349)" fill="#0f110e"/>
      <path id="Path_2440" data-name="Path 2440" d="M26.092,52.354A13.351,13.351,0,1,0,39.441,39.111,13.3,13.3,0,0,0,26.092,52.354" transform="translate(55.633 83.392)" fill="#fff"/>
      <path id="Path_2441" data-name="Path 2441" d="M40.722,50.268a10.37,10.37,0,0,0-.42-3.411,7.868,7.868,0,0,0-4.109-5.121,10.353,10.353,0,0,0-5.412-.755,1.323,1.323,0,0,0-1.294,1.294,1.306,1.306,0,0,0,1.294,1.29,12.013,12.013,0,0,1,2.4-.028l.247.028c-.354-.041-.031,0,.034.013.153.025.3.056.454.091a8.423,8.423,0,0,1,.908.276,1.034,1.034,0,0,1,.153.06c-.319-.182-.091-.038-.016,0,.119.06.235.113.351.175a2.139,2.139,0,0,1,.689.445c-.119-.185-.182-.147-.063-.047l.138.113c.088.078.172.157.257.238.066.063.532.492.5.558.006-.016-.2-.279-.041-.05l.075.11c.063.088.125.182.182.273a7.021,7.021,0,0,1,.345.617c.05.1.091.213.147.313.078.144-.128-.326-.047-.11l.056.144c.085.213.157.429.222.648a9.924,9.924,0,0,1,.263,1.124l.038.247c.05.3-.038-.357-.006-.06.016.157.034.316.044.473a7.371,7.371,0,0,1,.022,1.052,1.3,1.3,0,0,0,1.294,1.294,1.325,1.325,0,0,0,1.294-1.294" transform="translate(62.868 87.225)" fill="#0f110e"/>
      <path id="Path_2442" data-name="Path 2442" d="M39.09,50.367H36.741a11.917,11.917,0,0,0-3.671-8.635L34.7,40.043A14.264,14.264,0,0,1,39.09,50.367" transform="translate(70.511 85.379)" fill="#0f110e"/>
      <path id="Path_2443" data-name="Path 2443" d="M40.241,67.568A14.416,14.416,0,1,1,50.38,42.83l-1.632,1.688A12.075,12.075,0,1,0,45.982,63.8a19.12,19.12,0,0,0,2.756-1.9l1.651,1.679a21.231,21.231,0,0,1-3.3,2.3,14.607,14.607,0,0,1-6.844,1.7" transform="translate(54.833 82.592)" fill="#0f110e"/>
      <path id="Path_2444" data-name="Path 2444" d="M139.047,18.275H75.028c-8.181,0-14.812,6.3-14.812,14.076V93.1L75.272,79.96h63.774c8.178,0,14.809-6.3,14.809-14.076V32.351c0-7.774-6.631-14.076-14.809-14.076" transform="translate(128.391 38.966)" fill="#fff"/>
      <path id="Path_2445" data-name="Path 2445" d="M59.716,97.614V33.42c0-8.626,7.348-15.645,16.378-15.645h64.019c9.03,0,16.378,7.019,16.378,15.645V66.95c0,8.626-7.348,15.642-16.378,15.642H76.93ZM76.094,20.907c-7.3,0-13.246,5.613-13.246,12.513v57.3L75.756,79.46h64.357c7.3,0,13.246-5.613,13.246-12.51V33.42c0-6.9-5.942-12.513-13.246-12.513Z" transform="translate(127.325 37.899)" fill="#0f110e"/>
      <path id="Path_2446" data-name="Path 2446" d="M79.255,32.645a6.448,6.448,0,0,1-12.88,0,6.448,6.448,0,0,1,12.88,0" transform="translate(141.523 56.556)" fill="#0f110e"/>
      <path id="Path_2447" data-name="Path 2447" d="M86.407,32.645a6.448,6.448,0,0,1-12.88,0,6.448,6.448,0,0,1,12.88,0" transform="translate(156.773 56.556)" fill="#0f110e"/>
      <path id="Path_2448" data-name="Path 2448" d="M93.559,32.645a6.448,6.448,0,0,1-12.88,0,6.448,6.448,0,0,1,12.88,0" transform="translate(172.022 56.556)" fill="#0f110e"/>
      <path id="Path_2449" data-name="Path 2449" d="M83.148,50.812H163.98c10.327,0,18.7,7.956,18.7,17.772v76.7L163.667,128.7H83.148c-10.327,0-18.7-7.959-18.7-17.775V68.584c0-9.816,8.372-17.772,18.7-17.772" transform="translate(137.417 108.34)" fill="#fff"/>
      <path id="Path_2450" data-name="Path 2450" d="M185.311,149.8l-21.164-18.47H84.214c-11.176,0-20.265-8.676-20.265-19.341V69.65c0-10.662,9.09-19.338,20.265-19.338h80.832c11.176,0,20.265,8.676,20.265,19.338ZM84.214,53.444c-9.447,0-17.133,7.27-17.133,16.206v42.338c0,8.936,7.686,16.209,17.133,16.209h81.108l16.857,14.709V69.65c0-8.936-7.686-16.206-17.133-16.206Z" transform="translate(136.351 107.274)" fill="#0f110e"/>
      <path id="Path_2451" data-name="Path 2451" d="M89.228,68.956a8.14,8.14,0,1,0,8.131-7.727,7.935,7.935,0,0,0-8.131,7.727" transform="translate(190.25 130.551)" fill="#0f110e"/>
      <path id="Path_2452" data-name="Path 2452" d="M80.2,68.956a8.14,8.14,0,1,0,8.131-7.727A7.935,7.935,0,0,0,80.2,68.956" transform="translate(170.996 130.551)" fill="#0f110e"/>
      <path id="Path_2453" data-name="Path 2453" d="M71.169,68.956A8.14,8.14,0,1,0,79.3,61.229a7.935,7.935,0,0,0-8.131,7.727" transform="translate(151.745 130.551)" fill="#0f110e"/>
    </g>
  </g>
</svg>
