<svg id="Group_914" data-name="Group 914" xmlns="http://www.w3.org/2000/svg" xmlns:xlink="http://www.w3.org/1999/xlink" width="253.34" height="224.095" viewBox="0 0 253.34 224.095">
  <defs>
    <clipPath id="clip-path">
      <path id="Rectangle_575" data-name="Rectangle 575" d="M10.066,0H243.272A10.068,10.068,0,0,1,253.34,10.068V214.027a10.068,10.068,0,0,1-10.068,10.068H10.067A10.067,10.067,0,0,1,0,214.028V10.066A10.066,10.066,0,0,1,10.066,0Z" fill="none"/>
    </clipPath>
  </defs>
  <g id="Group_913" data-name="Group 913" clip-path="url(#clip-path)">
    <path id="Path_2604" data-name="Path 2604" d="M30.531,91.878,57.07,42.709l39.6,4s13.976.933,17.252.263,19.968-3.7,22.376-2.186,53.538,24.083,53.538,24.083,2.074,2.308,1.347,7.633-5.954,41.971-5.954,41.971l-16.939,3.185s-1.034.911-.886,4.069-1.472,5.494-5.037,8.015a12.44,12.44,0,0,1-7.461,2.214S156.275,146.9,150,148.31s-9.309-2.183-9.309-2.183,1.447,8.216-7.195,10.2-13.772-6.888-13.772-6.888,1.134,9.231-7.345,9.437-12.4-7.721-12.4-7.721-4.99,6.136-11.025,5.544-8.582-4.122-7.483-8.632.388-2.146.388-2.146a9.8,9.8,0,0,1-5.337-.495c-3.342-1.084-6.584-2.772-7.032-5.516a19.527,19.527,0,0,1,.244-6.036s-5.206,2.568-8.538-1.829-3.668-6.474-3.668-6.474l.686-3.68s-9.1-.125-9.816-1.77-4.119-6.769-2.427-9.478a24.409,24.409,0,0,1,2.791-3.824s5.744-1.582,1.337-4.99S35.279,89.695,35.279,89.695a4.251,4.251,0,0,0-4.748,2.183" transform="translate(12.073 49.778)" fill="#fff"/>
    <path id="Path_2605" data-name="Path 2605" d="M94.206,97.882A10.183,10.183,0,0,1,86.344,94.2L61.3,64.023a1.566,1.566,0,0,1,2.412-2L88.756,92.2a7.069,7.069,0,0,0,10.878-9.03,1.565,1.565,0,0,1,.915-2.54L123.5,76.317a1.566,1.566,0,0,1,.579,3.079l-20.672,3.887a10.2,10.2,0,0,1-9.2,14.6" transform="translate(76.899 89.761)" fill="#2f2f2f"/>
    <path id="Path_2606" data-name="Path 2606" d="M125.419,71.994a1.589,1.589,0,0,1-.677-.153C103.065,61.473,68.936,45.985,63.756,45.819A1.568,1.568,0,0,1,62.237,44.2a1.543,1.543,0,0,1,1.616-1.513c7.5.241,56.664,23.654,62.243,26.326a1.566,1.566,0,0,1-.677,2.979" transform="translate(79.673 49.731)" fill="#2f2f2f"/>
    <path id="Path_2607" data-name="Path 2607" d="M51.854,75.045a1.568,1.568,0,0,1-.958-.326L31.4,59.647a1.565,1.565,0,0,1,1.914-2.478l19.5,15.069a1.566,1.566,0,0,1-.958,2.806" transform="translate(12.622 79.913)" fill="#2f2f2f"/>
    <path id="Path_2608" data-name="Path 2608" d="M92.609,104.59a10.19,10.19,0,0,1-7.862-3.68L56.564,66.95a1.566,1.566,0,0,1,2.412-2L87.159,98.911a7.07,7.07,0,0,0,10.878-9.033,1.567,1.567,0,0,1,2.412-2,10.2,10.2,0,0,1-7.84,16.713" transform="translate(66.809 95.998)" fill="#2f2f2f"/>
    <path id="Path_2609" data-name="Path 2609" d="M86.137,105.414c-.319,0-.639-.013-.962-.044a10.127,10.127,0,0,1-6.906-3.643L52.115,70.217a1.566,1.566,0,1,1,2.409-2L80.681,99.729A7.071,7.071,0,0,0,91.562,90.7a1.567,1.567,0,0,1,2.412-2,10.2,10.2,0,0,1-7.837,16.72" transform="translate(57.32 102.964)" fill="#2f2f2f"/>
    <path id="Path_2610" data-name="Path 2610" d="M64.725,92.246c-.319,0-.639-.013-.962-.044a10.127,10.127,0,0,1-6.906-3.643l-4.294-5.174a1.567,1.567,0,0,1,2.412-2l4.294,5.177A7.071,7.071,0,1,0,70.15,77.528a1.567,1.567,0,0,1,2.412-2,10.2,10.2,0,0,1-7.837,16.72" transform="translate(58.278 118.549)" fill="#2f2f2f"/>
    <path id="Path_2611" data-name="Path 2611" d="M44.754,87.3c-.31,0-.617-.016-.927-.044a9.847,9.847,0,0,1-5.378-17.38l9.8-8.134A9.847,9.847,0,0,1,60.828,76.892l-9.8,8.131A9.772,9.772,0,0,1,44.754,87.3M54.533,62.6a6.691,6.691,0,0,0-4.282,1.544l-9.8,8.137a6.712,6.712,0,1,0,8.573,10.33l9.8-8.134A6.711,6.711,0,0,0,54.533,62.6" transform="translate(21.382 85.518)" fill="#2f2f2f"/>
    <path id="Path_2612" data-name="Path 2612" d="M48.488,91.123a9.836,9.836,0,0,1-6.3-17.412l9.8-8.137a9.846,9.846,0,0,1,13.863,1.287,9.861,9.861,0,0,1-1.287,13.866l-9.8,8.134a9.806,9.806,0,0,1-6.28,2.261m-5.174-5.55a6.727,6.727,0,0,0,9.456.877l9.8-8.131a6.713,6.713,0,1,0-8.573-10.333l-9.8,8.134a6.72,6.72,0,0,0-.877,9.453" transform="translate(29.362 93.682)" fill="#2f2f2f"/>
    <path id="Path_2613" data-name="Path 2613" d="M52.173,94.958c-.31,0-.617-.016-.927-.044a9.847,9.847,0,0,1-5.378-17.38l9.8-8.131A9.844,9.844,0,1,1,68.244,84.55l-9.8,8.134a9.772,9.772,0,0,1-6.271,2.274m9.772-24.7a6.67,6.67,0,0,0-4.275,1.55l-9.8,8.134a6.712,6.712,0,1,0,8.573,10.33l9.8-8.134a6.711,6.711,0,0,0-3.665-11.849c-.21-.019-.423-.031-.633-.031" transform="translate(37.201 101.849)" fill="#2f2f2f"/>
    <path id="Path_2614" data-name="Path 2614" d="M56.148,98.551a9.226,9.226,0,0,1-.927-.044A9.843,9.843,0,0,1,49.843,81.13L59.644,73A9.846,9.846,0,0,1,72.22,88.149l-9.8,8.131a9.762,9.762,0,0,1-6.271,2.271m9.776-24.688A6.68,6.68,0,0,0,61.645,75.4l-9.8,8.137a6.712,6.712,0,1,0,8.573,10.33l9.8-8.134a6.71,6.71,0,0,0-4.294-11.874" transform="translate(45.66 109.529)" fill="#2f2f2f"/>
    <path id="Path_2615" data-name="Path 2615" d="M149.665,124.884a1.558,1.558,0,0,1-1.131-.482L100.722,74.384,82.051,80.439c-6.543,2.12-15.363.852-19.532-5.7-2.731-4.3-2.346-8.792,1.15-13.365,1.933-2.531,5.6-7.326,20.033-11.611L39.447,45.283a1.563,1.563,0,0,1-1.4-1.713,1.614,1.614,0,0,1,1.713-1.4l51.991,5.256,3.987-.558c5.265-1.027,11.423-1.973,18.64-2.788,1.259-.135,2.691-.3,2.885,1.256.088.68.135,1.081-1.557,1.56v.2c-.125.006-.439.038-.977.1l-.532.06c-2.8.573-8.065,1.328-17.907,2.7-23.466,4.6-28.143,10.721-30.128,13.321-3.533,4.62-2.261,7.8-1,9.782,3.308,5.212,10.515,6.17,15.921,4.4L100.69,71.1a1.569,1.569,0,0,1,1.616.407L150.8,122.234a1.566,1.566,0,0,1-1.131,2.65" transform="translate(28.074 48.61)" fill="#2f2f2f"/>
    <path id="Path_2616" data-name="Path 2616" d="M176.788,48.411c-29.092.116-59.778,3.621-89.145,5.381l-7.877,57.717s61.835,23.5,99.249,41.154Z" transform="translate(117.051 61.936)" fill="#fff"/>
    <path id="Path_2617" data-name="Path 2617" d="M179.52,155.585c-36.935-17.421-98.523-40.866-99.14-41.1l-1.162-.445L87.44,53.8l1.306-.06c16.435-.714,32.189-1.945,47.424-3.135,13.694-1.068,27.854-2.177,42.41-2.9l.153,3.126c-14.511.72-28.647,1.826-42.319,2.894-14.859,1.162-30.21,2.359-46.228,3.088L82.654,112c8.7,3.326,63.975,24.6,98.2,40.75Z" transform="translate(115.882 60.426)" fill="#2f2f2f"/>
    <rect id="Rectangle_574" data-name="Rectangle 574" width="73.272" height="3.134" transform="translate(225.87 185.178) rotate(-81.668)" fill="#2f2f2f"/>
    <path id="Path_2618" data-name="Path 2618" d="M90.152,69.335a3.4,3.4,0,1,1-3.073-3.7,3.4,3.4,0,0,1,3.073,3.7" transform="translate(124.719 98.625)" fill="#2f2f2f"/>
    <path id="Path_2619" data-name="Path 2619" d="M58.306,36.7l14.987,9.791L41.58,107.687l-16.961-6.778Z" transform="translate(-0.532 36.971)" fill="#fff"/>
    <path id="Path_2620" data-name="Path 2620" d="M43.811,111.2l-19.892-7.949,35.29-67.27,17.622,11.5ZM28.3,101.631l14.032,5.607L72.743,48.563l-12.36-8.075Z" transform="translate(-2.025 35.439)" fill="#2f2f2f"/>
    <path id="Path_2621" data-name="Path 2621" d="M.165,114.169c40.565,14.211,76.594,26.542,76.594,26.542l37.4-69.942S81.78,46.433,46.421,19.828Z" transform="translate(-52.673 0.992)" fill="#fff"/>
    <path id="Path_2622" data-name="Path 2622" d="M77.863,145.08l-1.259-.432c-.363-.122-36.5-12.494-76.6-26.542l1.034-2.957c35.885,12.569,68.592,23.8,75.326,26.1L112.5,73.673c-6.076-4.564-37.041-27.845-69.8-52.5l1.882-2.5c36.559,27.5,70.875,53.3,70.875,53.3l1.071.808Z" transform="translate(-53.025 -1.467)" fill="#2f2f2f"/>
    <path id="Path_2623" data-name="Path 2623" d="M23.367,61.2a5.063,5.063,0,1,1,7.01-1.466,5.067,5.067,0,0,1-7.01,1.466" transform="translate(-8.088 69.366)" fill="#fff"/>
    <path id="Path_2624" data-name="Path 2624" d="M27.193,64.652a6.628,6.628,0,1,1,1.372-.141,6.6,6.6,0,0,1-1.372.141m.019-10.126a3.495,3.495,0,0,0-1.92,6.421l0,0a3.5,3.5,0,0,0,5.334-3.643,3.5,3.5,0,0,0-3.417-2.781" transform="translate(-9.155 68.303)"/>
    <path id="Path_2625" data-name="Path 2625" d="M18.739,59.914a5.063,5.063,0,1,1,7.01-1.466,5.066,5.066,0,0,1-7.01,1.466" transform="translate(-17.956 66.632)" fill="#fff"/>
    <path id="Path_2626" data-name="Path 2626" d="M22.565,63.37a6.612,6.612,0,0,1-3.615-1.077l0,0a6.637,6.637,0,1,1,3.618,1.081m-1.9-3.7a3.5,3.5,0,1,0-1.009-4.842,3.5,3.5,0,0,0,1.009,4.842" transform="translate(-19.022 65.567)"/>
    <path id="Path_2627" data-name="Path 2627" d="M14.244,58.43a5.063,5.063,0,1,1,7.01-1.466,5.064,5.064,0,0,1-7.01,1.466" transform="translate(-27.543 63.468)" fill="#fff"/>
    <path id="Path_2628" data-name="Path 2628" d="M18.066,61.887a6.638,6.638,0,1,1,1.372-.141,6.607,6.607,0,0,1-1.372.141m.022-10.126a3.5,3.5,0,0,0-1.923,6.421l0,0a3.422,3.422,0,0,0,2.628.495,3.5,3.5,0,0,0-.708-6.919" transform="translate(-28.608 62.404)"/>
  </g>
</svg>
