<svg xmlns="http://www.w3.org/2000/svg" width="22.663" height="28.328" viewBox="0 0 22.663 28.328">
  <g id="Icon_core-trash" data-name="Icon core-trash" transform="translate(-4.5 -1.125)">
    <path id="Path_1936" data-name="Path 1936" d="M6.75,29.573a1.406,1.406,0,0,0,1.392,1.416h16.1a1.406,1.406,0,0,0,1.392-1.416V10.688H6.75Zm1.889-17H23.747V29.1H8.639Z" transform="translate(-0.361 -1.536)" fill="#1e1f1e"/>
    <path id="Path_1937" data-name="Path 1937" d="M10.638,12.928h1.889v11.8H10.638Zm4.249,0h1.889v11.8H14.887Zm4.249,0h1.889v11.8H19.136Zm.944-7.554V2.541a1.337,1.337,0,0,0-1.275-1.416H12.857a1.337,1.337,0,0,0-1.275,1.416V5.374H4.5V7.263H27.163V5.374Zm-6.61-2.361h4.721V5.374H13.471Z" fill="#1e1f1e"/>
  </g>
</svg>
