<svg xmlns="http://www.w3.org/2000/svg" width="61.391" height="61.391" viewBox="0 0 61.391 61.391">
  <path id="Path_52" data-name="Path 52" d="M30.7,0a30.7,30.7,0,1,0,30.7,30.7A30.7,30.7,0,0,0,30.7,0Zm0,57.554A26.858,26.858,0,1,1,57.554,30.7,26.888,26.888,0,0,1,30.7,57.554Zm-3.6-36.57a5.874,5.874,0,1,0-5.874,5.874A5.874,5.874,0,0,0,27.1,20.984Zm-7.912,0a2.039,2.039,0,1,1,2.037,1.978A2.039,2.039,0,0,1,19.185,20.984Zm20.984,13.31a5.874,5.874,0,1,0,5.874,5.874A5.874,5.874,0,0,0,40.169,34.294Zm0,7.912a2.039,2.039,0,1,1,1.978-2.037A2.039,2.039,0,0,1,40.169,42.206Zm3.4-24.38a1.918,1.918,0,0,0-2.713,0L17.83,40.848a1.92,1.92,0,0,0,2.713,2.717L43.564,20.543A1.924,1.924,0,0,0,43.564,17.826Z"/>
</svg>
