<svg xmlns="http://www.w3.org/2000/svg" width="23.401" height="23.353" viewBox="0 0 23.401 23.353">
  <path id="Path_2" data-name="Path 2" d="M21.033,32.044a2.678,2.678,0,0,0-3.794,0l-1.294,1.294a23.334,23.334,0,0,1-4.026-3.231,23.762,23.762,0,0,1-3.231-4.026l1.294-1.294a2.678,2.678,0,0,0,0-3.794L7.456,18.476a2.615,2.615,0,0,0-1.883-.786h0a2.678,2.678,0,0,0-1.9.786L2.457,19.681A5.686,5.686,0,0,0,.993,24.367c.286,3.347,2.482,7.373,5.865,10.765s7.454,5.579,10.8,5.9a7.023,7.023,0,0,0,.75,0,5.418,5.418,0,0,0,3.937-1.464l1.205-1.214a2.678,2.678,0,0,0,.786-1.9,2.615,2.615,0,0,0-.786-1.883ZM22.291,37.1,21.077,38.3a4.079,4.079,0,0,1-3.267.893c-2.9-.25-6.6-2.3-9.649-5.356s-5.106-6.722-5.383-9.623a4.044,4.044,0,0,1,.893-3.267l1.259-1.214a.893.893,0,0,1,.634-.259h0a.893.893,0,0,1,.634.259l2.526,2.553a.893.893,0,0,1,0,1.259L6.938,25.332a.893.893,0,0,0-.143,1.08,25.19,25.19,0,0,0,8.846,8.846.893.893,0,0,0,1.08-.143l1.785-1.785a.893.893,0,0,1,1.259,0l2.526,2.526h0a.873.873,0,0,1,0,1.241Z" transform="translate(-0.934 -17.691)" fill="#1e1f1e"/>
</svg>
